<mxfile host="app.diagrams.net" modified="2020-11-17T00:58:15.050Z" agent="5.0 (Windows NT 10.0; Win64; x64) AppleWebKit/537.36 (KHTML, like Gecko) Chrome/86.0.4240.198 Safari/537.36 Edg/86.0.622.69" etag="9U3KOtepdtmHVAhkKhLs" version="13.9.9" type="github">
  <diagram id="Giauc3vEuvDMSi7nsrjX" name="Page-1">
    <mxGraphModel dx="4740" dy="3193" grid="1" gridSize="10" guides="1" tooltips="1" connect="1" arrows="1" fold="1" page="1" pageScale="1" pageWidth="8500" pageHeight="11000" math="0" shadow="0">
      <root>
        <mxCell id="0" />
        <mxCell id="1" parent="0" />
        <mxCell id="380feVYEUsmyo0d7AHBr-40" value="" style="group" parent="1" vertex="1" connectable="0">
          <mxGeometry x="1160" y="1520" width="241.05" height="185" as="geometry" />
        </mxCell>
        <mxCell id="380feVYEUsmyo0d7AHBr-51" value="&lt;font style=&quot;font-size: 18px&quot;&gt;Citrulline&lt;br&gt;&lt;/font&gt;" style="rounded=1;whiteSpace=wrap;html=1;" parent="1" vertex="1">
          <mxGeometry x="1459.84" y="2040" width="160" height="40" as="geometry" />
        </mxCell>
        <mxCell id="380feVYEUsmyo0d7AHBr-52" value="&lt;font style=&quot;font-size: 18px&quot;&gt;Ornithine&lt;br&gt;&lt;/font&gt;" style="rounded=1;whiteSpace=wrap;html=1;" parent="1" vertex="1">
          <mxGeometry x="900" y="2040" width="160" height="40" as="geometry" />
        </mxCell>
        <mxCell id="380feVYEUsmyo0d7AHBr-63" value="&lt;font style=&quot;font-size: 18px&quot;&gt;Urea&lt;/font&gt;" style="rounded=1;whiteSpace=wrap;html=1;fillColor=#f8cecc;strokeColor=#b85450;" parent="1" vertex="1">
          <mxGeometry x="120" y="2050" width="120" height="40" as="geometry" />
        </mxCell>
        <mxCell id="380feVYEUsmyo0d7AHBr-64" value="&lt;font style=&quot;font-size: 18px&quot;&gt;Urea&lt;/font&gt;" style="rounded=1;whiteSpace=wrap;html=1;fillColor=#f5f5f5;strokeColor=#666666;gradientColor=#b3b3b3;" parent="1" vertex="1">
          <mxGeometry x="120" y="1950" width="120" height="40" as="geometry" />
        </mxCell>
        <mxCell id="380feVYEUsmyo0d7AHBr-68" value="&lt;font style=&quot;font-size: 18px&quot;&gt;Aspartate&lt;/font&gt;" style="rounded=1;whiteSpace=wrap;html=1;" parent="1" vertex="1">
          <mxGeometry x="2010" y="2480" width="200" height="40" as="geometry" />
        </mxCell>
        <mxCell id="380feVYEUsmyo0d7AHBr-98" style="edgeStyle=orthogonalEdgeStyle;curved=1;orthogonalLoop=1;jettySize=auto;html=1;exitX=1;exitY=0.5;exitDx=0;exitDy=0;entryX=0;entryY=0.5;entryDx=0;entryDy=0;endArrow=classic;endFill=1;strokeColor=#000000;" parent="1" source="380feVYEUsmyo0d7AHBr-69" target="380feVYEUsmyo0d7AHBr-71" edge="1">
          <mxGeometry relative="1" as="geometry" />
        </mxCell>
        <mxCell id="380feVYEUsmyo0d7AHBr-87" value="" style="curved=1;endArrow=none;html=1;strokeColor=#000000;exitX=0.5;exitY=1;exitDx=0;exitDy=0;endFill=0;" parent="1" source="380feVYEUsmyo0d7AHBr-42" edge="1">
          <mxGeometry width="50" height="50" relative="1" as="geometry">
            <mxPoint x="1350" y="1970" as="sourcePoint" />
            <mxPoint x="1270" y="1880" as="targetPoint" />
            <Array as="points">
              <mxPoint x="1150" y="1880" />
            </Array>
          </mxGeometry>
        </mxCell>
        <mxCell id="380feVYEUsmyo0d7AHBr-88" value="" style="endArrow=classic;html=1;strokeColor=#000000;exitX=0.5;exitY=1;exitDx=0;exitDy=0;entryX=0.5;entryY=0;entryDx=0;entryDy=0;" parent="1" source="380feVYEUsmyo0d7AHBr-48" target="380feVYEUsmyo0d7AHBr-51" edge="1">
          <mxGeometry width="50" height="50" relative="1" as="geometry">
            <mxPoint x="1380" y="2220" as="sourcePoint" />
            <mxPoint x="1430" y="2170" as="targetPoint" />
          </mxGeometry>
        </mxCell>
        <mxCell id="380feVYEUsmyo0d7AHBr-89" value="" style="endArrow=classic;html=1;strokeColor=#000000;exitX=0.5;exitY=1;exitDx=0;exitDy=0;entryX=0.5;entryY=0;entryDx=0;entryDy=0;" parent="1" source="380feVYEUsmyo0d7AHBr-46" target="380feVYEUsmyo0d7AHBr-52" edge="1">
          <mxGeometry width="50" height="50" relative="1" as="geometry">
            <mxPoint x="979.56" y="1959.9999999999995" as="sourcePoint" />
            <mxPoint x="978.8200000000002" y="2040" as="targetPoint" />
          </mxGeometry>
        </mxCell>
        <mxCell id="380feVYEUsmyo0d7AHBr-90" value="" style="endArrow=classic;html=1;strokeColor=#000000;exitX=1;exitY=0.5;exitDx=0;exitDy=0;entryX=0.5;entryY=0;entryDx=0;entryDy=0;rounded=1;" parent="1" source="380feVYEUsmyo0d7AHBr-51" target="380feVYEUsmyo0d7AHBr-53" edge="1">
          <mxGeometry width="50" height="50" relative="1" as="geometry">
            <mxPoint x="1380" y="2220" as="sourcePoint" />
            <mxPoint x="1430" y="2170" as="targetPoint" />
            <Array as="points">
              <mxPoint x="1760" y="2060" />
            </Array>
          </mxGeometry>
        </mxCell>
        <mxCell id="380feVYEUsmyo0d7AHBr-91" value="" style="endArrow=classic;html=1;strokeColor=#000000;exitX=0.5;exitY=0;exitDx=0;exitDy=0;entryX=0;entryY=0.5;entryDx=0;entryDy=0;rounded=1;" parent="1" source="380feVYEUsmyo0d7AHBr-58" target="380feVYEUsmyo0d7AHBr-52" edge="1">
          <mxGeometry width="50" height="50" relative="1" as="geometry">
            <mxPoint x="927.5800000000002" y="2144" as="sourcePoint" />
            <mxPoint x="1067.5800000000002" y="2264" as="targetPoint" />
            <Array as="points">
              <mxPoint x="720" y="2060" />
            </Array>
          </mxGeometry>
        </mxCell>
        <mxCell id="380feVYEUsmyo0d7AHBr-93" value="" style="endArrow=classic;html=1;strokeColor=#000000;exitX=0.5;exitY=1;exitDx=0;exitDy=0;entryX=1;entryY=0.5;entryDx=0;entryDy=0;rounded=1;" parent="1" source="380feVYEUsmyo0d7AHBr-53" target="380feVYEUsmyo0d7AHBr-56" edge="1">
          <mxGeometry width="50" height="50" relative="1" as="geometry">
            <mxPoint x="1100" y="2380" as="sourcePoint" />
            <mxPoint x="960" y="2400" as="targetPoint" />
            <Array as="points">
              <mxPoint x="1760" y="2685" />
            </Array>
          </mxGeometry>
        </mxCell>
        <mxCell id="380feVYEUsmyo0d7AHBr-95" value="" style="curved=1;endArrow=classic;html=1;strokeColor=#000000;exitX=0;exitY=0.5;exitDx=0;exitDy=0;endFill=1;entryX=0;entryY=0.5;entryDx=0;entryDy=0;" parent="1" source="380feVYEUsmyo0d7AHBr-68" target="380feVYEUsmyo0d7AHBr-142" edge="1">
          <mxGeometry width="50" height="50" relative="1" as="geometry">
            <mxPoint x="1590" y="2700" as="sourcePoint" />
            <mxPoint x="1590" y="2720" as="targetPoint" />
            <Array as="points">
              <mxPoint x="1760" y="2520" />
              <mxPoint x="1760" y="2600" />
            </Array>
          </mxGeometry>
        </mxCell>
        <mxCell id="380feVYEUsmyo0d7AHBr-106" value="" style="curved=1;endArrow=classic;html=1;strokeColor=#000000;" parent="1" edge="1">
          <mxGeometry width="50" height="50" relative="1" as="geometry">
            <mxPoint x="520" y="2200" as="sourcePoint" />
            <mxPoint x="520" y="2080" as="targetPoint" />
            <Array as="points">
              <mxPoint x="720" y="2160" />
              <mxPoint x="720" y="2120" />
            </Array>
          </mxGeometry>
        </mxCell>
        <mxCell id="380feVYEUsmyo0d7AHBr-107" value="" style="endArrow=classic;html=1;strokeColor=#000000;exitX=0;exitY=0.5;exitDx=0;exitDy=0;entryX=1;entryY=0.5;entryDx=0;entryDy=0;" parent="1" source="380feVYEUsmyo0d7AHBr-61" target="380feVYEUsmyo0d7AHBr-63" edge="1">
          <mxGeometry width="50" height="50" relative="1" as="geometry">
            <mxPoint x="500" y="2180" as="sourcePoint" />
            <mxPoint x="680" y="2200" as="targetPoint" />
          </mxGeometry>
        </mxCell>
        <mxCell id="380feVYEUsmyo0d7AHBr-108" value="" style="endArrow=classic;html=1;strokeColor=#000000;exitX=0.5;exitY=0;exitDx=0;exitDy=0;entryX=0.5;entryY=1;entryDx=0;entryDy=0;" parent="1" source="380feVYEUsmyo0d7AHBr-63" target="380feVYEUsmyo0d7AHBr-64" edge="1">
          <mxGeometry width="50" height="50" relative="1" as="geometry">
            <mxPoint x="530" y="2240" as="sourcePoint" />
            <mxPoint x="580" y="2190" as="targetPoint" />
          </mxGeometry>
        </mxCell>
        <mxCell id="380feVYEUsmyo0d7AHBr-119" value="" style="endArrow=classic;html=1;strokeColor=#000000;exitX=1;exitY=0.5;exitDx=0;exitDy=0;entryX=1;entryY=0.5;entryDx=0;entryDy=0;rounded=1;" parent="1" source="380feVYEUsmyo0d7AHBr-37" target="380feVYEUsmyo0d7AHBr-68" edge="1">
          <mxGeometry width="50" height="50" relative="1" as="geometry">
            <mxPoint x="1790" y="1350" as="sourcePoint" />
            <mxPoint x="2000" y="2500" as="targetPoint" />
            <Array as="points">
              <mxPoint x="2500" y="1080" />
              <mxPoint x="2500" y="2500" />
            </Array>
          </mxGeometry>
        </mxCell>
        <mxCell id="380feVYEUsmyo0d7AHBr-127" value="" style="curved=1;endArrow=classic;html=1;strokeColor=#000000;" parent="1" edge="1">
          <mxGeometry width="50" height="50" relative="1" as="geometry">
            <mxPoint x="920" y="1200" as="sourcePoint" />
            <mxPoint x="920" y="1440" as="targetPoint" />
            <Array as="points">
              <mxPoint x="1140" y="1240" />
              <mxPoint x="1140" y="1400" />
            </Array>
          </mxGeometry>
        </mxCell>
        <mxCell id="380feVYEUsmyo0d7AHBr-128" value="&lt;p style=&quot;line-height: 0%&quot;&gt;HCO&lt;sub&gt;3&lt;/sub&gt;&lt;sup&gt;-&lt;/sup&gt;&lt;/p&gt;" style="text;html=1;strokeColor=none;fillColor=none;align=center;verticalAlign=middle;whiteSpace=wrap;rounded=0;fontSize=18;fontStyle=4" parent="1" vertex="1">
          <mxGeometry x="870" y="1260" width="40" height="20" as="geometry" />
        </mxCell>
        <mxCell id="380feVYEUsmyo0d7AHBr-129" value="2 ATP" style="text;html=1;strokeColor=none;fillColor=none;align=center;verticalAlign=middle;whiteSpace=wrap;rounded=0;fontSize=18;fontStyle=4" parent="1" vertex="1">
          <mxGeometry x="844.25" y="1190" width="70" height="20" as="geometry" />
        </mxCell>
        <mxCell id="380feVYEUsmyo0d7AHBr-130" value="2 ADP + P&lt;sub&gt;i&lt;/sub&gt;" style="text;html=1;strokeColor=none;fillColor=none;align=center;verticalAlign=middle;whiteSpace=wrap;rounded=0;fontSize=18;fontStyle=4" parent="1" vertex="1">
          <mxGeometry x="800" y="1430" width="128.5" height="20" as="geometry" />
        </mxCell>
        <mxCell id="380feVYEUsmyo0d7AHBr-126" value="&lt;span style=&quot;font-size: 14px&quot;&gt;Carbamoyl Phosphate Synthetase I&lt;/span&gt;" style="ellipse;whiteSpace=wrap;html=1;fillColor=#ffe6cc;strokeColor=#d79b00;" parent="1" vertex="1">
          <mxGeometry x="937.25" y="1290" width="202.26" height="60" as="geometry" />
        </mxCell>
        <mxCell id="380feVYEUsmyo0d7AHBr-132" value="&lt;span style=&quot;font-size: 14px&quot;&gt;Ornithine Transcarbamoylase&lt;/span&gt;" style="ellipse;whiteSpace=wrap;html=1;fillColor=#ffe6cc;strokeColor=#d79b00;" parent="1" vertex="1">
          <mxGeometry x="1159.53" y="1880" width="202.26" height="70" as="geometry" />
        </mxCell>
        <mxCell id="380feVYEUsmyo0d7AHBr-134" value="" style="curved=1;endArrow=classic;html=1;strokeColor=#000000;fontSize=18;" parent="1" edge="1">
          <mxGeometry width="50" height="50" relative="1" as="geometry">
            <mxPoint x="1920" y="2080" as="sourcePoint" />
            <mxPoint x="1920" y="2200" as="targetPoint" />
            <Array as="points">
              <mxPoint x="1760" y="2120" />
              <mxPoint x="1760" y="2160" />
            </Array>
          </mxGeometry>
        </mxCell>
        <mxCell id="380feVYEUsmyo0d7AHBr-133" value="&lt;span style=&quot;font-size: 14px&quot;&gt;Argininosuccinate synthetase&lt;/span&gt;" style="ellipse;whiteSpace=wrap;html=1;" parent="1" vertex="1">
          <mxGeometry x="1500" y="2121" width="260" height="40" as="geometry" />
        </mxCell>
        <mxCell id="380feVYEUsmyo0d7AHBr-135" value="ATP" style="text;html=1;strokeColor=none;fillColor=none;align=center;verticalAlign=middle;whiteSpace=wrap;rounded=0;fontSize=18;fontStyle=4" parent="1" vertex="1">
          <mxGeometry x="1904.25" y="2070" width="70" height="20" as="geometry" />
        </mxCell>
        <mxCell id="380feVYEUsmyo0d7AHBr-136" value="PP&lt;sub&gt;i&lt;/sub&gt;" style="text;html=1;strokeColor=none;fillColor=none;align=center;verticalAlign=middle;whiteSpace=wrap;rounded=0;fontSize=18;fontStyle=4" parent="1" vertex="1">
          <mxGeometry x="1920" y="2190" width="38.5" height="20" as="geometry" />
        </mxCell>
        <mxCell id="380feVYEUsmyo0d7AHBr-140" value="" style="endArrow=none;html=1;strokeColor=#000000;fontSize=18;exitX=0.381;exitY=0.041;exitDx=0;exitDy=0;exitPerimeter=0;" parent="1" edge="1" source="380feVYEUsmyo0d7AHBr-139">
          <mxGeometry width="50" height="50" relative="1" as="geometry">
            <mxPoint x="1600" y="2528" as="sourcePoint" />
            <mxPoint x="1602" y="2161" as="targetPoint" />
          </mxGeometry>
        </mxCell>
        <mxCell id="380feVYEUsmyo0d7AHBr-139" value="&lt;span style=&quot;font-size: 14px&quot;&gt;Argininosuccinate synthetase&lt;/span&gt;" style="ellipse;whiteSpace=wrap;html=1;" parent="1" vertex="1">
          <mxGeometry x="1500" y="2540" width="260" height="40" as="geometry" />
        </mxCell>
        <mxCell id="380feVYEUsmyo0d7AHBr-142" value="AMP" style="text;html=1;strokeColor=none;fillColor=none;align=center;verticalAlign=middle;whiteSpace=wrap;rounded=0;fontSize=18;fontStyle=4" parent="1" vertex="1">
          <mxGeometry x="2020" y="2630" width="70" height="20" as="geometry" />
        </mxCell>
        <mxCell id="380feVYEUsmyo0d7AHBr-143" value="&lt;span style=&quot;font-size: 14px&quot;&gt;Argininosuccinase&lt;/span&gt;" style="ellipse;whiteSpace=wrap;html=1;" parent="1" vertex="1">
          <mxGeometry x="844.25" y="2640" width="180" height="40" as="geometry" />
        </mxCell>
        <mxCell id="380feVYEUsmyo0d7AHBr-145" value="Arginase" style="ellipse;whiteSpace=wrap;html=1;fontSize=18;" parent="1" vertex="1">
          <mxGeometry x="720" y="2116" width="152.5" height="50" as="geometry" />
        </mxCell>
        <mxCell id="380feVYEUsmyo0d7AHBr-147" value="H&lt;sub&gt;2&lt;/sub&gt;O" style="text;html=1;strokeColor=none;fillColor=none;align=center;verticalAlign=middle;whiteSpace=wrap;rounded=0;fontSize=18;fontStyle=4" parent="1" vertex="1">
          <mxGeometry x="460" y="2190" width="70" height="20" as="geometry" />
        </mxCell>
        <mxCell id="380feVYEUsmyo0d7AHBr-148" value="&lt;font style=&quot;font-size: 18px&quot;&gt;Fumarase&lt;/font&gt;" style="ellipse;whiteSpace=wrap;html=1;fontSize=18;" parent="1" vertex="1">
          <mxGeometry x="1165.66" y="2920" width="190" height="80" as="geometry" />
        </mxCell>
        <mxCell id="mMBgnrupJotZcHhOcbj2-8" value="" style="endArrow=classic;html=1;fontSize=18;entryX=0.5;entryY=1;entryDx=0;entryDy=0;exitX=0;exitY=0.5;exitDx=0;exitDy=0;" edge="1" parent="1" source="380feVYEUsmyo0d7AHBr-56" target="380feVYEUsmyo0d7AHBr-58">
          <mxGeometry width="50" height="50" relative="1" as="geometry">
            <mxPoint x="980" y="2680" as="sourcePoint" />
            <mxPoint x="1540" y="2410" as="targetPoint" />
            <Array as="points">
              <mxPoint x="720" y="2680" />
            </Array>
          </mxGeometry>
        </mxCell>
        <mxCell id="mMBgnrupJotZcHhOcbj2-9" value="" style="endArrow=classic;html=1;fontSize=18;entryX=0.5;entryY=0;entryDx=0;entryDy=0;" edge="1" parent="1" target="380feVYEUsmyo0d7AHBr-69">
          <mxGeometry width="50" height="50" relative="1" as="geometry">
            <mxPoint x="720" y="2660" as="sourcePoint" />
            <mxPoint x="1540" y="2410" as="targetPoint" />
          </mxGeometry>
        </mxCell>
        <mxCell id="mMBgnrupJotZcHhOcbj2-12" value="" style="group" vertex="1" connectable="0" parent="1">
          <mxGeometry x="620" y="2880" width="200" height="240" as="geometry" />
        </mxCell>
        <mxCell id="380feVYEUsmyo0d7AHBr-69" value="&lt;font style=&quot;font-size: 18px&quot;&gt;Fumarate&lt;br&gt;&lt;br&gt;&lt;/font&gt;" style="rounded=1;whiteSpace=wrap;html=1;verticalAlign=top;" parent="mMBgnrupJotZcHhOcbj2-12" vertex="1">
          <mxGeometry width="200" height="240" as="geometry" />
        </mxCell>
        <mxCell id="380feVYEUsmyo0d7AHBr-70" value="" style="shape=image;imageAspect=0;aspect=fixed;verticalLabelPosition=bottom;verticalAlign=top;image=data:image/png,iVBORw0KGgoAAAANSUhEUgAAAZYAAAH/CAMAAABD3Qs2AAADAFBMVEX///+AAAAAgACAgAAAAICAAIAAgIDAwMDA3MCmyvD/8NT/4rH/1I7/xmv/uEj/qiX/qgDckgC5egCWYgBzSgBQMgD/49T/x7H/q47/j2v/c0j/VyX/VQDcSQC5PQCWMQBzJQBQGQD/1NT/sbH/jo7/a2v/SEj/JSX+AADcAAC5AACWAABzAABQAAD/1OP/scf/jqv/a4//SHP/JVf/AFXcAEm5AD2WADFzACVQABn/1PD/seL/jtT/a8b/SLj/Jar/AKrcAJK5AHqWAGJzAEpQADL/1P//sf//jv//a///SP//Jf/+AP7cANy5ALmWAJZzAHNQAFDw1P/isf/Ujv/Ga/+4SP+qJf+qAP+SANx6ALliAJZKAHMyAFDj1P/Hsf+rjv+Pa/9zSP9XJf9VAP9JANw9ALkxAJYlAHMZAFDU1P+xsf+Ojv9ra/9ISP8lJf8AAP4AANwAALkAAJYAAHMAAFDU4/+xx/+Oq/9rj/9Ic/8lV/8AVf8ASdwAPbkAMZYAJXMAGVDU8P+x4v+O1P9rxv9IuP8lqv8Aqv8AktwAerkAYpYASnMAMlDU//+x//+O//9r//9I//8l//8A/v4A3NwAubkAlpYAc3MAUFDU//Cx/+KO/9Rr/8ZI/7gl/6oA/6oA3JIAuXoAlmIAc0oAUDLU/+Ox/8eO/6tr/49I/3Ml/1cA/1UA3EkAuT0AljEAcyUAUBnU/9Sx/7GO/45r/2tI/0gl/yUA/gAA3AAAuQAAlgAAcwAAUADj/9TH/7Gr/46P/2tz/0hX/yVV/wBJ3AA9uQAxlgAlcwAZUADw/9Ti/7HU/47G/2u4/0iq/yWq/wCS3AB6uQBilgBKcwAyUAD//9T//7H//47//2v//0j//yX+/gDc3AC5uQCWlgBzcwBQUADy8vLm5uba2trOzs7CwsK2traqqqqenp6SkpKGhoZ6enpubm5iYmJWVlZKSko+Pj4yMjImJiYaGhoODg7/+/CgoKSAgID/AAAA/wD//wAAAP//AP8A//8AAABYWvgoAAAAAXRSTlMAQObYZgAAAAFiS0dEAIgFHUgAAAAJcEhZcwAADsQAAA7EAZUrDhsAABBHSURBVHic7Z1de6I8F4V7xv//i3yIg1SK6GXPHC1JQNzs+AVZtOs+esf0eSdwh+xkGTofH4QQQgghhBBCCCHkWbYnmdD9+uNQCyTUQgghhBBCyBKJszNJ6F5MQHq5sNCdeIp0U9n9VL2JQvfmfcT5trEXtj0ubMzlzWCrW8Shu/QWknJwXdWCHppoKOVHTOhevU48lPIjJg3drfsQO3+Zyxb2xN+QjYRex9Adu4e47pmoqqrX/4WMqxHy/iNSVb3LLEN3zY+z0myMhSSvfoMXZ2WbmzqZbZbjxVrJ+x9m1eK9RFZKfyqOi4V4MQNoO1x4mf7XS12QJeb+D5f6aS2MQjiy0cFj5oClrseqsafdTtrQ460Zf6SNl2Uux/LxOdh4QZ7G2t5XcuMWvvvjtMNN3jqm8OOt1up6soCnfYS23m9HWtt6upm1R4+Qqr03ZX8Rm68BW3UZGbfjbdYePUIhLlYc7eNSz9mjN+HpeKlfd2gqz6ipFzqLZZ7HPMKexfQ57OPjiD2qRinUOezD+zSFJfPtTLw/AIpvFvD/QEhy78OgrZ+BaXwPQ6Gsn4Pj71yzTC3e0ZTja9EqOvTDPo63okPPzv6bvkwt/ptOLQGgFkioBZKFayl+qZaPO7WApn3+BfJC9y3ebh+RF8iRbzvZRq3L+8al9m0n22gf9BuXxLe+v5mC4916+m69TunbkGFPzifPqNoMn/Xv84+vpu/Xq/gi1hh7ci49z3IzGFTJ4fLnT9CHvyPxTL45csW3xWV0yZINr86cUjps0L+C8XxRVCGXlg8zi412v7qZC6Jd+1804CXmqI63zDd5h6bQin77LDWD/2Lfiqmhz1uab+tHnof2WQI+wGe6LxZH0zbsffzZfn76RJ7JCuWBKKThhoWpFsLQN6fchN6nX6bEoIUX68Y9HmZMSVU/l4cbFubo582GNx5ruGDfHWuQri2r+2teczK8vHmkjRXY1XGLOWI4LI/2jZ2RshNvDm37F0qJSdq5tdtUlWINdK9Y4S7DWuxrIP2R796jGD8VY27D6XA7HgPghkk3a7n3dsrOgHuPYgEviHQvTW2LKMuyY+nepKy0W56Z696HLzF2Ut311y7dW2715ni+rqjoXnRDmnzHGHvF0JtRrvfC3ZifsSXI2DuhS3hWLiSV2Pn+zS4qaTKOv83cIbbOg7ZgP4rXdfOKFSzCG+BXL+Yn+9PhW7oaa1RunYFCXXsID8ySXsw/i7n6FYF1fn2Xf0aknLisTB6zD5HHRN6VelJcjbhyGfNXn6zYVGfKIhqO/NhcWi2ONJfHzB35p/ZR1aPTJC+2lwsrjstzohOXZq4QQ33Xup2zxOh9+iN0I1Ns/bpr3L4T94wuqla8Hz1xca3zlJiV3TSBf8MwB/qqx7bOMHyDr/+w0EP9uSJ/hN0SGDZxkUN9vfVNrEMt/KBZS/nTTetkkb9L4v5N9BcsFZfWir8vbdrIHyu3BsNVXPHm6K2voA8I0q1PxalkNU3kL8b35Aq98E4Q+cOeIMDCZR9y5K+2PvG3LeK8DQSpuqnTWx9E38iSayI11Ndbn/hroA7aQKMnLq71lZ3fnfE96dNN+mKJsa1PR/6M759ED/VfjPz/Mb5/mskif8b3L6EnLq71wSHP+P5lEnVfobfKML5/C2+O/Bnfvws9cbGtd20+gA7SLp9u3hFLzPe9W3XG92/mvshfeOukB+P7CXCJixj5u9bxycmtpxnfvxX9kGWhR/6M7yfj3shf+NciGN9PiRvzcuQ/1sr4fmpshZBjE7GV8f0cPBj5M76fCT3yd3nMTwFifD8jLnERn4Be65rx/azohyzX168GMr6fDU/kb/OY0VUbmQiXuMiR/65fYsiMrMZDfXfOnPF9AFyof524ML4PjJi4ML4PT3ob+R/qoSgyPzeh/nlS2zFpCc8gcbn8Tz4qAMRXiQu1wNAP9akFiLUL9akFCZfHUAsWLtSnFixsHkMtYJg8hlrAiL+pBRJqgYRaIKEWSKgFEmqBhFogoRZIqAUSaoGEWiChFkioBRJqgYRaIKEWSKgFEmqBhFogoRZIqAUSaoGEWiChFkioBRJqgYRaIKEWSKgFEmqBhFogoRZIqAUSaoGEWiChFkioBRJqgYRaIKEWSKgFEmqBhFogoRZIqAUSaoGEWiChFkioBRJqgYRaIKEWSKgFEmqBhFogoRZIqAUSaoGEWiChFkioBRJqgYRaIKEWSKgFEmqBhFogoRZIqAUSaoGEWiChFkioBRJqgYRaIKEWSKgFEmqBhFogoRZIqAUSaoGEWiChFkioBRJqgYRaIKEWSKgFEmqBhFogoRZIqAUSaoGEWiChFkioBRJqgYRaIKEWSKgFEmqBhFogoRZIqAWDPLn6I7UgkH6dtlcfUEt44vJwtpD1P6KW4BT7i4TTrv8ZtQRmtfuRcjoU/U+pJShJ1Uo5fcZXn1NLQOLvQyvla6iAWsKxbovKqVnfNFFLKLLaFJVNfNtILWFIPm1RSaTWPbUEIN6YolJnUvPmcKipZXbyppWyvy0qrrXZUcuspF+mqHwLRaVrLYRGMhWxLSqVVFRc66ekjExFYYrKbiW27kf2MWRKIpO07MUZyrYK+xgyHalJWg6lWFRsq7SPIVPRxveXoiLNUK5V3MeQqXBJS6611mLJIROxskmLWFRsq7yPIRMxFt9ft8r7GDIRLmkRl72uVdzHkKlYN9qy17buorn79adR43vXKu9jyETo8b1NWuR9DJmKQo3vC63kkKm4J74f28eQiWB8D0hcqvG9S1pYVObEBvR6fC+XHDIRjO8BSdT4PmF8HwJ3UFKO77+ZtISA8T0gjO8BSdRTKwmTlhDcG98zaZkTxveApGp8b5MWxvezEt8V3zNpmRfG94AwvgckVU+tdAclZ+/YX6Y7KKnH90xa5oTxPSAr9dSKbWV8Pyt3xvc8KDknjO8RYXwPSKbG9+6g5L+5+/WnYXwPCON7RHI1vnetjO/nxB2FVON7HpScFcb3iDC+B8QdlBSLijsoyfh+Tu6N7zl/zUnB+B6RlRLfrxnfB2Pri+95UDIEyZ7xPSLSbWd8j4g7KMn4Hgf+ngNAGN8jwqQFEB6UBITxPSDutyAwvgfCHZRkUcGBv+cAEbNVYXyPRXTanR+XLZMWLKLLToVJCxoXLU3oTpAh1AIJtUBCLZBQCyTUAgm1QEItkFALJNQCCbVAQi2QUAsk1AIJtUBCLZBQCyTUAgm1QEItkFALJNQCCbVAQi2QUAsk1AIJtUBCLZBQCyTUAgm1QEItkFALJNQCCbVAQi2QUAsk1AIJtUBCLZBQCyTUAgm1QEItkFALJNQCCbVAQi2QUAsk1AIJtUBCLZBQCyTUAgm1QEItkFALJNQCCbVAQi2QUAsk1AIJtUBCLZBQCyTUAgm1QEItkFALJNQCCbVAQi2QUAsk1AIJtUBCLZBQCyTUAgm1QEItkFALJNQCCbVAQi2QUAsk1AIJtUBCLZBQCyTUAgm1QEItkFALJNQCCbVAQi2QUAsk1AIJtUBCLZBQCyTUAgm1QEItkFALJNQCCbVAQi2QUAsk1AIJtUBCLZBQCyQXLYc0dC/IgIuW06GMQ/eDXPGj5XTaF6E7QvoYLafTLgrdFdLhtJxOVRK6M8Ry0bL/ar0cvlliQGgXyHljSsw6dH/ID2bfEm8OrZg6C90j8tHbTiafpsR8ssQEJ61qt8vPalNiNiwxQYm/z1PXbufCl/W+FdPkIXv117EWtu6TH08XvpjHBGJVS6uvpLIlhjNZAJLt2F7F6jowj5mbbj0sTVb/9sxjQrBuusRF8hKXB6WVTEJan3rIoX5aaa3k7cRu2xiJNd8S7ZjHzEfRXwHbIlKvtB+VW8n7sJGk3S92RURKXNyDxch/SlzBKITPxMQl/dJayRtwT8Ygi4zsEyQWkVxtJa9S2Dpym9wXaqjPyH867NZdHvTd6kyaqxK1lTyNDbrGvxV2RURMXDLmMe/HxcLqgmq4SLtmrbaSx1mrm5MOl5OJob7eSh7Ezj/7f/6ftUVETlwS5jHvQr/RtziJYhFZqa2/lN5BuivuGOZjbB4PgtdqqK+3/krersUV8Yfuob5A0NOa38ibtehLXg19OZ16F9tkFH2D6GOlhvqM/J/FJi1Pr2aVqMbbSmTscH4lXhwLNm3rSWklAnpU/8D/jxrqM/J/CLeQesM41vMYvZX0uTdpuZNCTVz0VmKRD0q+gr6ie22990cYPyj5Cqka6jPy9+Ai3rfvv22oP5LHqK1/nSnvTqxma3rrnyadONt186Mc+autfxZXeSe8Lfpq4v1rjeUz0zpVX3u/eWW+eObb1Xki/7tODPwRno/vnyFRcx299Q/R5Ylz3Qg9BX1HRrp8guTrjPx1VoGGZhfqi3nM7A8wFCEncr2gmdb9H9QSetlzR+T/woEdQJKoKKszm0KZnQE2Cb7Ifzf8KDsWl+vaFvniFtDx8ept0628FckgttSxejIwvraVlf3rajZLMhMXpyHCJPHoQcnp0I9g9n+wurmwcjFi5HNig99ngBXX3hVbx1vxwhbyBc1G7PyZ/gMTgX25cceXPGkzcl1V6Kf9HrrJtyyyM0U3xnpe1j8fIH0V6HujKe2e+yI/X1e+ceWzxvdirVS9x8CuQvteLjcBbKOmhvrOStE9Tkm5FC9H09FI/rhbK6cHwGMm69HEJTYja3stIDEmq9m6+BTp2Oixg61rwJPyoRzB3N6WxxbzwADNxgL16DNtvGzm79NjyEc5ozErzgvyOjlXZtoMv/stLtTvSWhGrbRV8ry+mal3z9AMCsgVJXz3LSaP6SamXCsgCfp4y9QbHw+rCy4/eUzT9bRSb3wBXl1K7WGx+8xlnL9Ov07dMjnRV1vteMP9l5YavXtt1d+OtmPRG125Zzy1yzTIpeWHHVTKWqstPfN16F2Untm31XacsUeP0PZOCbk20KNqnJ/hVI+3x9DTQOG7677JABXvXffM3mGpfHNUBr5kGcHfbe+Vh8TfucXsXK7IvKWjQN65NOoy8oK+0EQl19f9H1YL6Iky/01fphb/TaeWAFALJAvXwtoCSeVbvce+GACTzLvd2nhigKBsf+m+JV32vsW7yz8iP+sK3l0+9OTs3XaVyLsuBd/DkEBvk72J3clXfEDxRaxHb/EJylavfNEyK74tLuMdr5Ervl1JjtbGyld7YGnU+555a09Y9G/rs6XOYb5v6yvsOcx2Xx43sXaoBxwz3uQH/Qg/3Ez3xcVYCd97hXa8NdI8YM4lQg+342gfzeFDkPcmHsU86sLBRHu8N0CnHsAcFR2uWuwbO7h10YM5E9oM5zH7ihX4QsZMY4Mz7/ZNCvgXDsax7x0W/Utwb1JAT2EX3HsglX0RNz2616iWt8HvcK9TbcyIi6Puo7Bdu4f+u2yXF6W7P9VLtnL18mFzvq7eZaKeELsivn0dt60ry53BWnL5uhazjJH6/9g/8oFJIr1qHPz19fuJi8FbuTV8TbyPbChmOa/lt0Tdi7hVAb58fITk6Mw0Zb6cJ6VHcnkBfJE993C5rl801AghhBBCCCEkAP8BvxoB1x4aPoYAAAAASUVORK5CYII=;" parent="mMBgnrupJotZcHhOcbj2-12" vertex="1">
          <mxGeometry x="28.5" y="40" width="143" height="180" as="geometry" />
        </mxCell>
        <mxCell id="mMBgnrupJotZcHhOcbj2-13" value="" style="group" vertex="1" connectable="0" parent="1">
          <mxGeometry x="1101.32" y="2560" width="318.68000000000006" height="250" as="geometry" />
        </mxCell>
        <mxCell id="380feVYEUsmyo0d7AHBr-56" value="&lt;font style=&quot;font-size: 18px&quot;&gt;Argininosuccinate&lt;br&gt;&lt;/font&gt;" style="rounded=1;whiteSpace=wrap;html=1;verticalAlign=top;" parent="mMBgnrupJotZcHhOcbj2-13" vertex="1">
          <mxGeometry width="318.68" height="250" as="geometry" />
        </mxCell>
        <mxCell id="380feVYEUsmyo0d7AHBr-57" value="" style="shape=image;imageAspect=0;aspect=fixed;verticalLabelPosition=bottom;verticalAlign=top;image=data:image/png,iVBORw0KGgoAAAANSUhEUgAABB4AAAM3CAMAAACtfGNxAAADAFBMVEX///+AAAAAgACAgAAAAICAAIAAgIDAwMDA3MCmyvD/8NT/4rH/1I7/xmv/uEj/qiX/qgDckgC5egCWYgBzSgBQMgD/49T/x7H/q47/j2v/c0j/VyX/VQDcSQC5PQCWMQBzJQBQGQD/1NT/sbH/jo7/a2v/SEj/JSX+AADcAAC5AACWAABzAABQAAD/1OP/scf/jqv/a4//SHP/JVf/AFXcAEm5AD2WADFzACVQABn/1PD/seL/jtT/a8b/SLj/Jar/AKrcAJK5AHqWAGJzAEpQADL/1P//sf//jv//a///SP//Jf/+AP7cANy5ALmWAJZzAHNQAFDw1P/isf/Ujv/Ga/+4SP+qJf+qAP+SANx6ALliAJZKAHMyAFDj1P/Hsf+rjv+Pa/9zSP9XJf9VAP9JANw9ALkxAJYlAHMZAFDU1P+xsf+Ojv9ra/9ISP8lJf8AAP4AANwAALkAAJYAAHMAAFDU4/+xx/+Oq/9rj/9Ic/8lV/8AVf8ASdwAPbkAMZYAJXMAGVDU8P+x4v+O1P9rxv9IuP8lqv8Aqv8AktwAerkAYpYASnMAMlDU//+x//+O//9r//9I//8l//8A/v4A3NwAubkAlpYAc3MAUFDU//Cx/+KO/9Rr/8ZI/7gl/6oA/6oA3JIAuXoAlmIAc0oAUDLU/+Ox/8eO/6tr/49I/3Ml/1cA/1UA3EkAuT0AljEAcyUAUBnU/9Sx/7GO/45r/2tI/0gl/yUA/gAA3AAAuQAAlgAAcwAAUADj/9TH/7Gr/46P/2tz/0hX/yVV/wBJ3AA9uQAxlgAlcwAZUADw/9Ti/7HU/47G/2u4/0iq/yWq/wCS3AB6uQBilgBKcwAyUAD//9T//7H//47//2v//0j//yX+/gDc3AC5uQCWlgBzcwBQUADy8vLm5uba2trOzs7CwsK2traqqqqenp6SkpKGhoZ6enpubm5iYmJWVlZKSko+Pj4yMjImJiYaGhoODg7/+/CgoKSAgID/AAAA/wD//wAAAP//AP8A//8AAABYWvgoAAAAAXRSTlMAQObYZgAAAAFiS0dEAIgFHUgAAAAJcEhZcwAADsQAAA7EAZUrDhsAACAASURBVHic7d3dcqNItoZhn+kOZs6rq7vvai6gZ2LmnpGwXEiWSsYuuSN2BNsS/5ArEX9JZvI+J3tktF2oZT5YKzPh6QkAAAAAAAAAAAAAAAAAAKd8qr0svV8AFpeonZbeLwCLIx4ACCguAAAAAAAAAAAAAPfs9tHp/CW67pbeFQAW2R7i6tSgY7j0Dk0nCKPDLfaO0SZYel8A92yPrbmDZ08CYn+qfqrLlYQAeonUk4s9OJL2cetjRR58LMCU4CwsPohd70HsLsrPtVl6vwBXBMUxFB+uYRhuojIu3M6HvRB7yWHpPQPcUKTDscyCoKg2XM6HMh1O0eYr967HotI4Lr1vgBOyzt2lHgRB3qt0t1DP0yHel58hPJMPwMOu0uGSHV3nBfZpErssCKL6j0P1jwG0bOWT6d7pPl4QC9VRXkx5Mm4LzOeoudROGxCx4T2ayEHsnWT5cDG/T4BTttoGQ3oC3pvdpWlsNZ3VIHH3cwHmRNoDJXS3+3DUNRj2Ll8WAabE+tGJ9DJ8a3KPphHoA+BM9wHosu0Y5EuHNa4G92gie/3oxIbBTaDLvmNsIo0PB2/sfuy47Em7DwZ3CHDOsWvm08XRwyjuGJs4yo1LAHfnrqO/6yxsqfSqR7OyYuNq1QQY0zkyEbnZwwu7jv6upguAztZC6OYMge5Uc3fIFjBjq+/vP+Xx4Nz6hKiztXBm5gOg1X3wOxoPx86OamfXBVg5b+Oh++AnHgA94gGAwNveA/EAjNY5vLfpmFZpKXoPwGi+znuIOmdzXTqmVQKr13kOPTXfEDhx78kr8x6AsTrnB8TN6QHR+4/Z92q8zlmTOzd7KoBBXUsPds3mxPbj65L82cCejdQ1HXTv5mxQwKREX4Ifmp3JtBo5Wb9Gq2ul6amzOQGs3lFbpGc3Zaz8JHtMxMfB8hbEVT/iEnTEIoCuu0lG7YHPTXZ/+NjuC/OtvvUYdfUmAOSXA+oDJXuQTOMSPPpIf/zT6pupaO8mGSg/GIC67KFRqkM9ex5Ea9ZU8JpVGEeLK4z0c8XqPTypPxiAupOUD/nTpBTn2DDbZN0gZ1iWPGd58GLPxQPwkOxCuzXIt8siQF13vLynW60a5Ny+Ju/F5UJWGSkuEbJ00NxqDkAqfyZtbbQyiBLx8ErfcPxQ/L8tKTh81PY3+wTnZn2R/VyoOwBU5Q+6T46b7JAJD/mPNGN/O7sGOV/SIZWPMq3OquuiMP+p1Y1VwBpFPtxOtufzpXylbz7u7RnkzLshH5/lHufNkyS+Zlmw3efh4N4iVGAhuzhRqq5JUNYQlgxybl/zcKvtZXAuP8rlK/cqn8y5NajAYopWQ9W5esxvP86qCNhaMMiZNh0SVZ/0oPhYtzdSWQA9bI+NQ+hUP8GepAhYfJAzazok7y+KjeElaWOhJtBTsD8WNcbp2qglQvkIXHaQU9V0qNk3AiKOrOikAu7ZhV8UP3/Jr99VG5cb5BSaDnW7qOg6XA60JIHJ5TOpk1fVgbj7mZ3DjQ5yapoOrbfeYs+WGRqAd4rLeGXpvsAgp7bpAMCovMmgjoCD2UHOzqYDAJOCzywCFh/kfKjpAMCk7VkXAc+GBjl7NB0AmLN501X8RgY5aToAWp9qJg6YaNlBTpoOQIdETXPv9umUg5yqA3TeQc6tdoAVwNOy8bDcIGfZdGBNFSBasLi4KwY5VdMQg5kGOfOmQ0zTAbBZxyDnSTfCMUxxyWLH/WcAyIpBTmWPcOpBTpoOgFP0g5w/JhzkpOkAOMfQICdNB8BBJgY5aToAjtrNPMhJ0wFwWH7p/zbDICdNB0AWbqIv+9Dm6+pykFN1gh8zyEnTARBsr5UbJV4OFt9feZ5BTpoOgKB18+jkbPEFtn6QMxowyEnTARAEymc02Hz3k45BzqTfICdNB0CyUz2g4cbiWy1POchJ0wGQ7CoXDIcoik7lY+6Wf6ClbKpBzmeaDoCkSIdjcbGwjVzIh0kGOfM+J00HoC1QdhqKB2FaXF90DnJq71VZ/wU0HQCF7Bi6Nn8eZvlg90l13CBncSMJmg6AwlUsIrKiw9A9oQZ7ftMd4rpBTpoOgFagaTFk+WD9ZXcRAaomQzHC0RzkpOkAdEhbDEfdxrPZPRpgwCAnTQegU9r7Fy6ug9iB7sNdEQHKQc6X1iAnTQeg00Z38fD0tL9vPpjco6H6DHLSdAAekE6mFicGpJ2J2OQeDVZEQNcgJ00H4CGXjsP/5Ep1cVNEgPKiIB/hyEKEpgOgF+hri7y6sHrqZNVjg5w0HYAHpFOflO281M6d5kMqjwDlTOogLyvUHUwAFemcKN1VtiNDmyXNIGfZdKAjCXSKOuPh3py4GNuhKeSDnO/1S4RipsPED9sDPJUOXOjece58h4XyxdxvlZnU+3ymgzONFGBZ3Qe/k/GgGuS8XD5oOgA9+BoPikHOS/J+oekAPM7feCinRmZDmLdXEz2gF1iFk8fx0BjkJB6AftKRC90V9z0e3JhV3VbcsfoYEA9AT90Dm87Ne6grBzmJB6CfdNakZqhv69qsyZZ8kPODeAB66VxzkS74bt2H0iXFICfxAPQSd7QW0uLd8WmGxWRq4gHooeN+D2nrwdXOZCkb5CQegB52+urCobtFdYiIB6Av/d0kYx9qixQjF0Bfe93IpSt3qn4E8QD0ll4gKFcqufKci4cQD0Bv6dCl5ilZflw8EA/AAOm6i/b1gxvP2HwY8QD0lz3rRnpCty93TyEegAF2+aTCYzFEsc3DQXebWrcQD8AQRT58XUIcoig6xYl36UA8AMMEl0TNl8riiXgABotU4aB8Gp2riAdgqO2xFQ5+zHfIEQ/AcMH1XGbD5eDTlcMN8QCME26iL/vQwxs6Ew8ABMQDAAHxAEBAPAAQvBEPANRi4gGAGvEAQHCLh83SOwE47cdtTtTSOzEH4gEYi3gAICAeAAiIBwAC4gGAgHgAICAeAAiIBwAC4gGAgHgAICAeAAiIBwAC4gGAgHgAICAeAAgi4gGA2ifxAECNeAAgIB4ACIgHAALiAYCAeAAgIB4ACIgHAAJv4+GDeABG8jYeEuIBGOkWD+eld2IOt3h4XnonAKfd4uG09E7M4RYPu6V3AnAa8QBAQDwAEBAPAATEAwAB8QBAQDwAEBAPAATEAwAB8QBAQDwAEBAPAATEAwAB8QBAQDwAEBAPAATEAwAB8QBAQDwAEBAPAASvxAMAtRPxAECNeAAgIB4ACIgHAAJf42FHPABj3eLhc+mdmAHxAIzmdTwES+8F4DSv42HpnQDcRjwAEBAPAATEAwAB8QBAQDwAEBAPAATEAwAB8QBAQDwAEBAPAATEAwAB8QBAQDwAEBAPAATEAwAB8QBAQDwAEBAPAATEAwAB8QBAQDwAEBAPAATEAwDBz6+jKFp6J2ZAPACjXb6Ooh9L78QMNsQDMBbxAEDgczy8L70TgNt8jod46Z0AnBYlxAMAhc1bQjwAaNudk4R4ANASHD8S4gFAW/SeRsMH8QCgKms6JO8RIxcAKvKmw8cxYGATQKloOpx3T8x7AFDKmw5vm/tL4gFAqmw6ZD+4JO9vtyLDN3viAeil2nTI/LzcSo33lyV3a3pfBdTbG/EAPKzedMjss1rj8rzcjk0uLaAub0vvB+CKRtMhF3xmofG6XWjHplYUUNel9wRwQ6vpUNrmJcdhgf2anKKAAqChP2aCfPFFvDe+ZxNTFlAARB3HTFQsvkiSn24fVUIBBUCgP2b2cbn4wvFrck0BBUAhP/zVx8zuZ5YKn0F4yd7o6CAnTQegn+LwVzcdXrOa4nwftXhxeJCTpgPQT3n4a5sORRy4O8hJ0wHoJz/89U2HWjHh5iAnTQegn4ebDvUNm9i1QU6aDkA/vZoOdflFhxuDnDQdgH76Nh3U/98unI5pOgD9DGg61LkyyEnTAehnYNOhzoVBTpoOQD8jmg71d9o+yEnTAehnXNOhbmf1ICdNB6Cf0U2HOnsHOWk6AP082HToU6nbOchJ0wHo59GmQ78D3cJBzqIrQtMBeMiDTYcBlbptg5wvNB2AXh5sOgyr1ItBznDUPk7i+TLqowCrM0PTocaaQc4tTQegl3maDo1/Iz8ulzxp03QA+pmv6VC3/CAnTQegn1mbDup/aplzN00HoJ+5mw51Cw5y0nQA+jHRdKhbaJCTpgPQj6mmQ90Sg5w0HYB+DDYdaoqFkqYGOWk6AP2YbTo0frvJQU6aDkA/5psOdXtTg5w0HYB+lmk6qP+ReQ9bmg5AP0s1Heq28w9y0nQA+lmy6VA38yAnTQegn6WbDnUzDnLSdAD6saHpUN+huQY5aToA/djRdKibZZCTpgPQk/bmqyabDnWTD3LSdAB6e9U0HRZ95MOkg5w0HQBZuIm+7MNWDATvYtNh4Up9wkFOmg6AYHvNqu77eMChkQWR+pix4ZEPEw1y0nQABNtj0nDuHjG05ZEPEwxy0nQABMGhGQ73gNCPGFr0nMmxg5w0HQDJ7qJKhy+6InzppkPdqEFOmg6AZFe5YDhEUXSKi9figKENTYe6wYOcNB0AUZEOx+LkuY30+WBL06HuMKRCoOkAyAJlpyHIA0JxvW1R06Gu/yAnTQdAJzt7Xps/D7N8aDX77Go61D33G+Sk6QDoXMUiIis6TvWf2td0qOsxyEnTAdAKNC2GLB+qx5mdTYeaRwc5aToAHdIWw1G38Vz+4IcTlXqxRExzVUDTAeiUjgYK588gbnQfQkcq9c5BTpoOQKeN7uLh6zC7bz6UP3h1pVLXDnLSdAAekE6mFq+v085EXP5g++5KpS4PctJ0AB5yaRz+Tafm2KZDR5R6kJOmA/CYQF9b5NXF3A+cmYtikJOmA/CgtNWoqcB3zeaDW5qDnDQdgIddWxMbmppDm66pDnLSdAB6iDrj4X66vRjboRkUg5y2rhQB7JQOXOjece58h/2yQc43mg5AD90Hvw/xkA1yvtF0AHpYSTzcepIfl/iNpgPwuNXEQzp7/MfSOwE45EQ8AFBLRy50V9znjmmVziAegH66BzZdn/dQIB6AfsKuOdNbt2dNVhAPQD+day7SBd+t+1A6iHgAeoo7Wgvpo/V8mGZIPAA9ddzvIW09+NCZJB6Avnb66qJ1tyh3EQ9AX827Saq2+lBbEA9Ab3vdyGXrTtUOIx6A3tILBOVKJcVzLtxFPAC9pUOXmqdk+XHxQDwAA6TrLtrXD+IzNt1EPAD9Zc+6kZ7Q7eptaJtun5I7wQA9ZUVEkhyLIYptHg6629S6hXgAhijy4esS4hBF0SlOvEsH4gEYJrgkar5UFk/EAzBYpAqHsyddyTviARhqe2yFgx/zHXLEAzBccD2X2XA5+HTlcEM8AOOEm+jLPvTwhs7EAwAB8QBAQDwAEBAPAATEAwAB8QBA8E48AFBLiAcAasQDAAHxAEBAPAAQEA8ABMQDAAHxAEBAPAAQEA8ABMQDAAHxAEBAPAAQEA8ABLd4eF56JwDY6BYPu+63AVgf4gGAgHgAICAeAAiIBwAC4gGAgHgAICAeAAiIBwAC4gGAgHgAICAeAAiIBwBqAfEAQG1HPABQIx4ACIgHAALiAYCAeAAgIB4ACIgHAALiAYCAeAAgIB4ACIgHAALiAYCAeAAguMdDsPReALDQPR6W3ok5nJLkx9L7ALiNeAAgIB4ACIgHAALiAYCAeAAgIB4ACIgHAALiAYCAeAAg8Cwezpfce5LExYvXpfcLcJFn8RAnSpel9wtwEfEAQPDsVzw8b3I/k+RYvAiX3i/ARRu/4qFEaxIYi3gAICAeAAiIBwAC4gGAgHgAICAeAAiIBwAC4gGAwNt4ePn8ZK4kMIq38QBgLOIBgIB4AAAAAAAAAAAAAAAAC/vrvzd/PbDp3/I7nzSbrPfr280/lNsam+4vv8nvVG8CXPXX/92o46G+6T/3l/8LVG+Vf4n9vv1984dy2x+3Td/rLzXvVG8CXNU3Hv7vP6q3uh8PlRCoIB6war3jQfleD+Lhb1VlQDxg1frHw/8Ub/UhHlTHNvGAVesfD6rywod4+Pu39jbiAas2IB4U7/YiHv5uj14QD1i1IfHw39Zb/YiH9tFNPGDVhsRDu7zwIx7a5QXxgFXrGQ//U5cXnsRDq7wgHrBqPePhv/9Rlhfux8N3ZXlBPGDV+sbD039V5YX78fDrT1V5QTxg1XrHw1+q8sL9eMhrjHp5QTxg1XrHw5OqvPAgHp5U5QXxgFXrHw+q8sKHeFCVF8QDVm1APCjKCx/iQVVeEA9YtQHxoCgvvIgHRXlBPGDV0gz4r5IUD+3ywo94aJcXynj4pkI8wENZpSBTxUOrvPAjHtrlhSoeNIgH+GVQPLTKC0/ioVVeEA9YtWHx0CwvfImHZnlBPGDVBsZDo7zwJR6a5QXxgFVLj/N//6Xwb008NMoLb+KhUV4o4+EPFeIBHhoysHmXlhf/Tl/4Ew9ZefHP9BUDm1i1wfGQlRf/ur/wJx7y8uLX/cWYePjHb79/XVX8/pv6CRqAAwbHQ6288CgesvLi9/v/Hh4P38o+xR88HQeOGh4P1fLCp3iolheD4+F7rWWpuMkt4IAR8VApL3yKh2p5MTQe6ulAPsBRI+KhUl54FQ9PvxflxcB4SH/ln9+/ffv2Pb0WWVl9EX1+Kh+2CMeMiYfgf3l54U487M67xk/a8fDr77y8GBgPf1SvGL6XrYzViJOk+Z8ZLhoTD2V54Uo8BK9Jcm78rB0PT//My4th8fCPej3xvRwJWQviwROj4qEoLxyJh+gj+bKv/1ARD0V5MSwefmu868/VVRfEgyfGxUNeXjgRD5u35O5n/ceqeMjLi2Hx8L3RjPxe+yVrQDx4Ylw81JZs2B0Pu3MaDh/HRtNMFQ95eTEsHr59/6N2tUA8wFEj46H67KzaL9lvp9/XEYLjR5oOrc6kOh6y8uLvgQObT7+qvYbvfxeztFeCePDE2HjIyovmL9m+fxwsGtp6eU/D4W3T3qaOh1/j4qHm1ntY19Rq4sETY+OhUl5Uf8nr17EY71tvXsbzJQ2H90i1VR0PeXkxQTzcOpV/DtlvdxEPnhgdD2V5UfklYdYEtOFvZJs1HZJX9eWMEA9leTEyHu6TtFc2bZJ48MT4eCjKi8ovKQ7JZh/QuODw0RFVUjz8migefl/LxUOwKXzVci/FC7u6UOhjfDwU5UXtlzy/6S7ojXmJ093QFDpSPBTlxbh4uF+ErGLWwyZR+7H0jmGwCeIhLy8avyTK2oGX5yn3t5cwazp8HDRvEuMhLy9GxcP9d6yjtCAe/DNFPGTlRfOX3GYwp4OJy1xeFv/+q/bfl+Ph1+h4+HVPh5UsuAgvha+CrnxhS4ca/QX320oqOwSNTf+6v1T+kn8Jv2T3Mz97L9CCiLKmwyVUbn3N/9e3+70ilb/in/dNldUTt5fqCU7KTb/+WFE6VNGaxCMeqP3nsc/+4fcXaasyNSb17c/6xcd6EA94SPfIwRyKyxblbQfSrZe5dyJtba6j79BAPOBB5gc5g6Ou6VHMr565ZZreMWpdk6lzxAMepp+1ODn9kEm+9W3mdLg3Jf9cxYhmG/GAHgwOcubLtt+V42kbU9Mx7unwx7puAlMiHtCH/np/Oltp2fYDW6e0pgFNBeIB/ZgY5Aw+xWXbnVsn9dtqm5Ip4gF97ece5MyXbceKZduVrfOPsX5beToQD+hv3kHOvAH6oWwr6LdO7I+VTncoEA8YYL7if1vMoFY2HbRbp3YvLRpP8F7ztQTwoGKQc9KFOvrrkmLrxcwprXIjOsU9ZQCIZhjkLKZuK2dQ67fOQJEOxAPwkGKQ8zTNIOeuWLYtz6A2uSzsG/EADDflIatftv3gou5J/fqmsK5b0QJjTDbI2bFsO9+63C1pAPQ1zSCnftn2RrsVgLXGD3IWD75SL9vWbgVgtXGDnOWDr7TLthe6kx2AkUYMckaaB191bQXggOIk33OQU38LCcM3mAAwjyGDnLYs20Zmf75R373zvqnoP+/qL6s0m7BefQc5i4XZ6hnU2q2YRZR+gco4vm8qkiOsv6zSbMKK9Rvk1C/MNrhsG4U0HhLl04aIB4y0PT1aD4Tahdn6rZhLFg/KY5t4wGiPDXLatGwbpTweYsU24gET+NE5yFkuzFb9Dem3Yk55PCSKqzbiAVPoGuTcaxdm67diVkU8KG4SRTxgGrpBTv0A6KJP80QZD+1njxEPmIo0yKl/2vfSzwJfvTIe2uUF8YDJqAc59QuzWba9tHs8xOrygnjAhNqDnMWjrdTLtrVbYcI9Hs6RsrwgHjCp+iDnTjtHWr8VZqTx8HRRlRfEAyZWDnKWC7OVM6i1W2FKFg87VXlBPGBqxXGf/R/1wuwXlm3bIYuHJ1V5QTxgevlQ5b3KWP7BV9DJ40FVXhAPmEM+yJmcdcu2mUFtgSIeFOUF8YB5yCs5531cJ3oq4kFRXhAPmEm+yKo5LvEy98O+0UsZD+3yQhUPl7PChXhAT8UgZ2VWQ7FsW3l/AZhXiYdWeaGKBw3iAX2kwxOXn/nr7QIPvoJeJR5a5QXxgDkFx4+39+LvTf9YLCyiGg/N8oJ4wLx+FKcj/WOxsJBaPDTKC+IB88rjoVi2zYOv7FKLh6y8yF+q4uEaKlyJBwyRxkNwzE4wLNu2TT0esvLimr5QxcPjA5u7MOTbhtY9HkY8UQsza8RDVl6kx/WIeAizxbtHLikgu8VD1pEc9jxOzKsRD7XyYnA8BPm82C8nqklIfuR/JSzbtlMzHqrlxdB4CC7VjuWFLx6CPB5Ytm2pVjxUyouh8ZBdO5zP6WDVab69h9s+738gMcu2bdWKh6dDUV4MjIf9/Su/v0pnydJ/gNo9Hli2ba92PARxXl4MjIdLpaK41xlcPkDtFg/tO6TDGu14yOc/bQfGw7b2tnutMsuew33Eg+UU8VCUF8PiIax/5cQDRJ9cW9pNFQ95eTG0NRlG13Ib8QAR8WA5VTzUlleMvB1MkKgf7wsQD9ZTxkNWXkwRDxGtaYiIB8up4yGIp4mH4P7rmRcFNeLBcup4qJQXI5ZkbdKLEGbEQUA8WE6Ih7K8GBwP2dzJC+kACfFgOSkeivJibDwcWNUNCfFgOSkeivJicDwU5cmB3gPUiAfLifGQlxeD4+F4DTeH+zUIazahRjxYTo6HrLwYObB5n1vFYwugdCIe7La93StS3T28bwqLM39Qf1ml2ZSu36T/ABXiYfVuLcpr99uwQsTD6u35E4DgFg/HpXcChgXVOiOUmhtYvVs8fC69EzApPFyS6vOViQdIiIfVadaTVy4gISAeVufaGKqIaU1CQDyszv1mcuXlw4GBTUiIB7fsNpvN2DVU98UW2WNN0scnUltAiXhwyxSzXO+XD0l8CPMV3dzwAWrEg1smmQS/T+pY0g014sEt06yRqeVDTDpAQDy4ZaIldLvyGbwRlQUkZ+LBKZOtsN1ej+fzOdoQDpBdiAensAAfBhEPbiEeYNAtHnjMgTuIBxh0i4cfS+8EHkY8wCDiwS3EAwwiHtxCPMAg4sEtxAMMIh7cQjzAIOLBLcQDDCIe3EI8wCDiwS3EAwwiHtxCPMAg4sEtxAMMeiMenEI8wKCYeHAK8QCDbvHwsvRO4GHEAwy6xcNm6Z3Aw4gHGEQ8uIV4gEHEg1uIBxhEPLiFeIBBxINbiAcYRDy4hXiAQcSDW4gHGEQ8uIV4gEHEg1uIBxhEPLiFeIBBxINbiAcY9EE8OIV4gEEJ8eAU4gEG3eJht/RO4GHEAwwiHtxCPMAg4sEtxAMMIh7cQjzAIOLBLcQDDCIe3EI8wCDiwS3EAwwiHtxCPMAg4sEtxAMMIh7cQjzAIOLBLcQDDCIe3EI8wJwt8eAW4gHm7G7xECy9F3gY8QBz7vGw9E7gccQDzCEeHEM8wBziwTHEA8whHhxDPMAc4sExxAPMIR4cQzzAHOLBMcQDzCEeHEM8wBziwTHEA8whHhxDPMAc4sExxAPMIR4cQzzAnOevv7aPpXcCjyMeYM7m668tXnon8DjiAeYQD45ZVTxEn0o/lt6v1SAeHLOqeIgTpcvS+7UaxINjiAfiwRziwTGrigeKi4URD45ZVTwA6IN4ACAgHgAIiAcAAuIBgIB4ACAgHgAIvIyH8Bqdv5yi/XbpXfHS/vZf9/zIpvRlqHzrfRMP3LSaf/EQHqszIuMDCTG5KBHv29DYlL6MlY/VvG9SJwcs4Vs8hOfWnOkjATGxvvGQHFRvJR7s51c8BCfloopo6f3yTO94UKYA8WA/r+JhJ6y5Ss48NH5K/eNBtdCCeLCfT/GwK+LgEu3DMNwfLsUPyIcJ9Y8H1QUc8WA/j+KhSIeobDZsj+TD9AbEQ9IeoiAe7OdPPARZZXGqB8E2u4JQj8NhiCHx0L6pBvFgP3/iIetK7lsbjuLlLYYZEg/t//7Eg/28iYeNlA5FPjC+OZWe8RCrywviwX7exEMspsPTUzoX4mh4j/zVMx7OkbK8IB7s50s87HUNhi2XD5PqGw9PF1V5QTzYz5d4OGsDIKL7MKXe8bBTlRfEg/08iYet7uLh6Sm4b+YmqBPpHQ9PqvKCeLCfJ/Gw13Qebk7K5hiG6R8PqvKCeLCfJ/GQDk7IU5/S+Lga3COfDYgHRXlBPNjPk3iIVa3xirS68OCDWmFAPCjKC+LBfp7EQ+fRH9N8mE56qJ9VYike2uWFV/Gw8+WD1PkRD2HnyMRZPuGhr8pcSLX6O9N4aJUXHsVDcPxIXn0cN/cpHnSthfQv2sdvcAGD4qFVXvgTD9H77aN8HHxb9rd9TS7x5eOn6y39feefWuTPH+PyhsVDs7zw5Rt5Lm4bEMtDZw4KDh+3OL99sFe3g6/74CceJjQwHhrlhR/fyLZ290LnT7SlfdpGSrPvw+kphcSDUdl/TJWjJh7ylmb2yodvJPj8yHIhTwnHT7S53c/043wc3tP/8bZZepeGIx6MGjKweZeesqkSQQAACmhJREFUirIekQffyMt7WVXkNYbbJ9pU8FqGXZGA7j50gN6DUYPjISsv0g6x899I2AiEFw9OtHdRfkmUBkJeP30cHb0ySkcudI2hw/0djn482wyOh1p54Xg8bCtn2IwHJ9ovm7i8JMrkV0bvLwvu13DpWYl5D4YMj4dqeeF0PKRt/S+X2ifYuX6iLT9BfZg2yq6MLs9L7dgY913Xzd9Imn+nGG5EPFTKC5fjYZ+fYVun082byyfa2/yu9JKoOUWo2HJ2cPJQ18VBuuCb+0VNY0Q8ZFXe7UfuxkPZ1lddIzh8oi12XfW1FNcVn85dGaV/dHLFd71v92rWyoLGxEN2Q/Gru/FQtPWl82jnGyzV2WGQr5ksl16zKh/leJd+cOdSz1Jj4iFrI3+VF47GQ97W110c6C8v7LR95OIgUnZc7Bdrj//0T9L9tSWWGBUPRXnhZDw82lpw7URbDrror3jKGRFOXRnp7yZ5praY0rh4yMsLB+OhT/nt1In25fF+SXFl5NL0r/R+L0L3If1L5G4PUxkXD3l54Vw8lM37h6Y1bJ050ebzu94fO+Jf2hMj7BSUO5j+XcaqVM8G02z/MO4YGQ9ZedGOh8jq2UT9J0U2p1XaKY+xx+dqFJM+7F6B9vL+UQRzdsmqeNRulg6aW82hn7HxkD8OtREPoc2ziZ77nWEz9p9oi0O910xPxZRR29yzufzTyy5Z4+anzJ6ux22qpzM2HirlRTUeLr2PPmO2Qxdklks67fz7G5xfw+LSmDy/yr+v/C4EUfUb3GYP2KS0mNDoeCjLi0o8vGRXefbNJhp1MV0ki4VXRqPajBavQCunvFe+sDwJkkP2Rxdsyh8ts59+Gh8PRXlRiYdHx9aMG1sh2HqiDUZWCNauQHtRjypXWl5xcdfkO55wMaXx8VCUF7XW5EMzc0ybor9o5Yk2Gl/2WLnUW56Ttk/UbPpWPDBBPORR3hjYtG7l8ESjkz3HRA2YaN6WdSvQikuik+IL254U4WBTtHlhinjIyovWvIcfulVBxk03t8muBU3Csu0h7FqB1jXlPWwGxNGyStYD2/ttJR/ZdH+pPmGm72z/dcprio2bdma0PSfaaf8TW7TUO//CdP+Jt9ciIeLj3oasRi8TntpG7UZew052vn9kNZcBk5/vLVmB1uMCTT5rwX6K+5mZFuSDXlOeE7WFsSHPc1zEWLACzaKLGMxtgrb6uH9/pop66RPtbINDS69Ai2wcHMJcxg7KjzJnm2DJE+2cU0sW/cJsnVqC2Sy2cnjm+8kKd7E1YObpF4utQLNy+gXmVsx+M3nBaGAu4DILmnou2x5ikRVoti9rwVyGLSccxcwER/Mn2v7LtodYYKl39UllWBkzf9UFc0/CM/tXbe6wNbwCzY1bamA2BrtOxZxbExf9Jq+JjV70m/zC7L/tBOZWXO/PO5vI+IWxqY6a8R6voRVoy/V4YRMjS72XaKsVU5RmPHCXGHA0sgLNgqlYsMPsS72LGtbwdKXZZ/MsNF1p9hVoS88vg1VmXdC04NMb5p0LvOAZ1swXtuDsdFhF+wDIcb950Rp2vhPtwmfY+ZZ6W7K2DTaZaan3I6uA5zXPHiy/Rmmmc/xm8S8MVprhdDj9su0hZrh+seI2LXN8YVbdVwdWmbiYXv4Mm+/IxN0Pa+494+sXBjtNudQ7MjOj4iG7CcdOrFqjNOXsBJZto8NkA/kmZh30MdXMC9tuMD/Z3EaWbeMBk0y0t+oMm5pm3qaFd82f9Avj1tLoMPpEa9sZNjP+RGvpGXa6L4xl2+g0cqm3vauAx60ZtXeN0sjD294vDFYaURzYvQq4OBJ6FwcL3G2hB2+/MFhp4HW0vWfYzNDCZ5F7NfXh6xcGOw1Y6q18eLNthpxoy4HRGXdsrB/926Ys28ZQvWfJuLIKuJjW9OOx9y+4qKwXb78wWKnXHFuXVgH3mhS99FMmevD2C4OVHp4/7MoZNvP4idaxM2z/L4wZ1BjusXOne6uAH1suZseisl4e+yrc+8JgpQeuC9xcBdy91NvNNUqPfGG2LCqD+zqKVHdXAXdcGVmxbHsIb78wWElTgLt5hs3oTrR9xzes8tAXZvHoM5wizhkcMNhulVCY0WDhorJexCkorn9hsJJyep2la5R6Uc2HtHRRWS/efmGwUmtyvutn2Ez7ysjCZdtDiF8Yy7Yxg9rSPo9WAReHzf1Ea+5ZoLPz9QuDlSoX3X6tAi4jwa81SkFWOX1FQv6FJa9L7xS8lZ9o37w5w2aKgsKvM2wWe8Xn+uLiSAxckd5F8s2fM2wmG/B78+eS6OYWD+/lF/ZOPGBmt+lCt782B9Yo9XKfLvTm1xqlWzz8KL+wC/GAuX2daN9cWaPUy+bt6zByY1HZg9I8KL4w4gEG7F49OsNWRSe/LonyPMi+MOIBQK6RB8QDgBzxAEBAPAAQEA8ABMQDAAHxAEBAPAAQEA8ABMQDAAHxAEBAPAAQEA8ABMQDAAHxAEBAPAAQEA8ABMQDAAHxAEBAPAAQEA8ABMQDAAHxAEBAPAAQEA8ABMQDAAHxAEBAPAAQEA8ABMQDAAHxAEBAPAAQEA8ABMQDAAHxAEBAPAAQEA8ABMQDAAHxAEBAPAAQEA8ABMQDAAHxAEBAPAAQEA8ABMQDAAHxAEBAPAAQEA8ABMQDAAHxAEBAPAAQEA8ABMQDAAHxAEBAPAAQEA8ABMQDAAHxAEBAPAAQEA8ABMQDAAHxAEBAPAAQEA8ABMQDAAHxAEBAPAAQEA8ABMQDAAHxAEBAPAAQEA8ABMQDAAHxAEBAPAAQEA8ABMQDAAHxAEBAPAAQEA8ABMQDAAHxAEBAPAAQEA8ABMQDAAHxAEBAPAAQEA8ABMQDAAHxAEBAPAAQEA8ABMQDAMHr5XLZiy8BAAAAAAAAAAAAAABsF4RftkvvBQDL7A7nJHM5bJbeGwDW2MdJXRQsvUsAbLBphsM9IJbeKwCLC46KcLjVGHQhgJULLpVEOJ/PlYDYLb1vAJZUpEN8yNJguz+TDwDSWzvc1NZvh2fyAVi9QxoDp+ZARZRVGwxgAGsVpilwbG/ZM34BrFsspUORDwxfAOuURsBZvfEkRwcA7110/cdtevlA9wFYo13alpQ2p+3Jq8k9AmCJ9PgX11+llw8Xk3sEwBLp7AZ5+4XqAlgrfW3x9HTVX10A8FbYNbOh8w0APLXvvDjQjXsC8FjamQw174iJB2Cdos7OY1fvEoCnug9+4gFYKeIBgIB4ACAgHgAIIuIBgFr3wCbzHoCV2nRNiwq44wOwUumKzIP8BiZVA6vVtWD70Fl9APDUseNukjGdSWCtNvriIaT1AKyX/m6SZ273AKxXpGtOptcWsdk9AmCJdORSfYGQbdurtgHwX/asPMWt7LNH83LxAKxW9gTe1uBlIG0AsBbpoy5awxfZszd1c6YA+C57lGYSV5oM4Tn7oeYu1gD8l+fDVxhEmzAMr8c4/8GZR1wA6xYmAiZEAau3PSvTgflQAJ6eNnErHCIKCwB3m1M1Gy57wgFAKYwO5y/HaEM2AAAAAAAAAAAAAAAAAIAp/w9gySb3uSmI0wAAAABJRU5ErkJggg==;" parent="mMBgnrupJotZcHhOcbj2-13" vertex="1">
          <mxGeometry x="39.33999999999992" y="46.309999999999945" width="240" height="187.38" as="geometry" />
        </mxCell>
        <mxCell id="mMBgnrupJotZcHhOcbj2-14" value="" style="group" vertex="1" connectable="0" parent="1">
          <mxGeometry x="580" y="2200" width="280" height="240" as="geometry" />
        </mxCell>
        <mxCell id="380feVYEUsmyo0d7AHBr-58" value="&lt;font style=&quot;font-size: 18px&quot;&gt;Arginine&lt;br&gt;&lt;br&gt;&lt;/font&gt;" style="rounded=1;whiteSpace=wrap;html=1;verticalAlign=top;" parent="mMBgnrupJotZcHhOcbj2-14" vertex="1">
          <mxGeometry width="280" height="240" as="geometry" />
        </mxCell>
        <mxCell id="380feVYEUsmyo0d7AHBr-60" value="" style="shape=image;imageAspect=0;aspect=fixed;verticalLabelPosition=bottom;verticalAlign=top;image=data:image/png,iVBORw0KGgoAAAANSUhEUgAAA4cAAAHWCAMAAADzfgzfAAADAFBMVEX///+AAAAAgACAgAAAAICAAIAAgIDAwMDA3MCmyvD/8NT/4rH/1I7/xmv/uEj/qiX/qgDckgC5egCWYgBzSgBQMgD/49T/x7H/q47/j2v/c0j/VyX/VQDcSQC5PQCWMQBzJQBQGQD/1NT/sbH/jo7/a2v/SEj/JSX+AADcAAC5AACWAABzAABQAAD/1OP/scf/jqv/a4//SHP/JVf/AFXcAEm5AD2WADFzACVQABn/1PD/seL/jtT/a8b/SLj/Jar/AKrcAJK5AHqWAGJzAEpQADL/1P//sf//jv//a///SP//Jf/+AP7cANy5ALmWAJZzAHNQAFDw1P/isf/Ujv/Ga/+4SP+qJf+qAP+SANx6ALliAJZKAHMyAFDj1P/Hsf+rjv+Pa/9zSP9XJf9VAP9JANw9ALkxAJYlAHMZAFDU1P+xsf+Ojv9ra/9ISP8lJf8AAP4AANwAALkAAJYAAHMAAFDU4/+xx/+Oq/9rj/9Ic/8lV/8AVf8ASdwAPbkAMZYAJXMAGVDU8P+x4v+O1P9rxv9IuP8lqv8Aqv8AktwAerkAYpYASnMAMlDU//+x//+O//9r//9I//8l//8A/v4A3NwAubkAlpYAc3MAUFDU//Cx/+KO/9Rr/8ZI/7gl/6oA/6oA3JIAuXoAlmIAc0oAUDLU/+Ox/8eO/6tr/49I/3Ml/1cA/1UA3EkAuT0AljEAcyUAUBnU/9Sx/7GO/45r/2tI/0gl/yUA/gAA3AAAuQAAlgAAcwAAUADj/9TH/7Gr/46P/2tz/0hX/yVV/wBJ3AA9uQAxlgAlcwAZUADw/9Ti/7HU/47G/2u4/0iq/yWq/wCS3AB6uQBilgBKcwAyUAD//9T//7H//47//2v//0j//yX+/gDc3AC5uQCWlgBzcwBQUADy8vLm5uba2trOzs7CwsK2traqqqqenp6SkpKGhoZ6enpubm5iYmJWVlZKSko+Pj4yMjImJiYaGhoODg7/+/CgoKSAgID/AAAA/wD//wAAAP//AP8A//8AAABYWvgoAAAAAXRSTlMAQObYZgAAAAFiS0dEAIgFHUgAAAAJcEhZcwAADsQAAA7EAZUrDhsAABocSURBVHic7d3ZctpIG8ZxzriDb849TnJXmfMszj0LCA5gE4y3VKWKD9Ta1RJaWnq7W//fyQxuyiNGfuhXvUizGQAAAAAAAAAAAACgh8fT6Zf0MQBTRw4BeeQQkEcOAXnkEJBHDgF55BCQRw4BeeQQkEcOASn7Q+z5dDomLx6kjwuYkuNJ6yB9XMCUkENA3s957PfptEterKSPC5gmxmkAeeQQkEcOAXnkEJBHDgF55BCQRw4BeeQQkEcOAXn37++sogEAAAAAAAAAAAAAAACAwX27O/vWtinr6+Vtd1+0bTVN1nu9ufiftq3QFL68qX6nvglI3P09u2vblPXt8ra/PwJdW9jkaA5v/lx81LZ9vDTd5l/WvFPfBCRM5fCvtuN0P4eZtGWQQ5hlLIfauHmQwz+6opIcwixzOfyhafMhh7oQkUOYZS6HusrUhxz++bfcRg5hlsEcagLnRQ7/lMdMySHMMpnD8nv9yGE5RuQQZpnMYbky9SOH5cqUHMIsQzn8oa9MPclhqTIlhzDLUA7vvmkrU/dzeKutTMkhzDKVQ/XuYmXqfg5fP+kqU3IIs4zl8IuuMnU/h3F5mq9MySHMMpbDma4y9SCHM11lSg5hlrkc6ipTH3Koq0zJIcwymENNZepDDnWVKTmEWQZzqKlMvcihpjIlhzBLFZN3OhVrZIrSHJYrUz9yWK5MtTm80SGHaOLub71WOSxVpn7ksFyZ6nJYgxziCqM5LFWmnuSwVJmSQ5hlNofFytSXHBYrU3IIswznsFCZ+pLDYmVKDmGWGhT9otN6vDR5lbz0JoeFylSbw4865BBNtJy3CC4Bzf8on8Oog/2qXviTw6gy/Ue9Yt4CZrXJ4edv0fam718zPy3kMKpMP4cv/MlhXJm+hi/65PB//34495Mf/tXfGRXT1DyHQWbD79/MzYELOcxVph7lMKpMP4T/3j2HN+m15EduL4xY4xwGhRGdJF3FHGYrU59ymK1MO+fwNjd+o7kDFaapcQ6/Rx3hXZzHz1FDKYeZytSnHGYr0645zMeQICLWNIcqXN/Cu+fnR1JLOcxUpl7lcPYhqUw75lD9yk+3Nzc3t6p3nVhpunl/1z5/AU1z+D2XqO+ZDrGcw+BHXJm6k8Plfln4STmHr3/iyrRjDj9m+8Db9HJzMo6nU/F/M0INcxjkAxUmLRo0LecwrUxdyWHwcDrtCz8r53D2T1yZdsvh//Kl6G06/joV5LBKwxxekpW9cf7X8+vv6l81OUwqU0dyuHk5na3zP9TkMKlMu+Xw38K7Pk2uMCWHVRrm8L+/+Z32X9ImXQ7jytSJHM6fTqHf+R/rchhXpt1yeFsYmbnN/ZIpIIdVGo+XfvmWnbz/Ut8fxpWpAzlc7lUKX3aFEQRdDuPKtFsOb24/5vo/cohYx/34X9P+UZvD7F2+bc5hsHtRMSwN0+hzGFWmfzrOW8xes9eDt3+ShXITQQ6rdMzhjzRf+hxGlWk5h/ttvwM26v5ZpfBpXm7T5/C1Xw5zLteH01rdRg6rdMvh18ywjT6Hmco0l8P70+m4Lr1Zxs+DSuHzRteqz2FcmRrI4WXY5lOX43YXOazSKYef/6bTFlU5TCvTbA6DsAP6bcPJWEQXhqcH/dRyRQ7TyrRnDsN1chNbUEMOq3TJYbjUNL/jUPO2pDLN5vC+YlBkdME2ujCs/E6oyuGroRx+mEp3GMwT52/h++TFQvrAbNIhh2rFd/U679gXTQ5nq7gWvO933D3dH9Vh1NTIVTlMKtN+OQy71UnMHs5Per+kD8wm7XOoYvhf8royh3FlWhgvjcdGDj97HHY/8ZfBS92YUWUO48q0Vw7D3zGNqpQcNtA6h19+ZC8OZ3U5jCrT4rxFMlfwIFOZXBaxNfjvV+fwtXcOX8MYTmRx6eqQOJ/49IUtw3VWULeiad6kis3slP7n6t+gmsqXgsncucQcxib6FjistK0P8b/dhPeX0f6Kf8KmzErRy0v9jLy26fXjhGKYxTiNIaZWqq2vX58NI/4P669PL63aeBp18ynfnU4HOTTju7kFMptr45VDWP6OOmLtNjjVehj6INQ4zzSuDQvIoQlqhObO0JTD4mHsOYxgF10Y7nUXhsll68DjR2pP/rTWs8XIoQEqht/NpWbkOYxN7UBt3Po0cAzDEZpPk5iwKCOH/akYfrv+xhZGnMOIdzc9a4fLk1btEjeDwhh+nNbu3xQ57O+uOFBqwlhzGIuq3U0NWk2a0nyFBjns7dtAW5jGmMMI3it3N11tNerfyY7QKOSwry/D7SQcfA4jrn6Pmt1Nmdbhp1BuJh5DctjbZWnM98KDaIz98kHnMOLdTS/aS7/6VsM+TnTaMEEOe/rvb9n1R0E1NtwcxiJZxKa9MKxtNS2sSgvPg5py74jWvg+bw6HmMOp3NyWth3G+pDP31NBsJgau+jF0DgeZw0h2N2nDXd86AE0MySHauNMwO5Vofg5jmexuql7EVtU6hBtyCCeYnMOo393UcO+TUa83GtO6TxQcYWwO48ruprhVbi8yYDMjcxj1u5vmta0ATMxhJOWtfndTbSsApd8cRnqL7trdTdpWAKkecxibmlt0X2sFkNV1DqP+Ft31rQCKusxh2LK7CZH1/kJ/x5+wKRmMW+ZfZtU0YQRt5zCS/Uv6RWy1rRjERp1A7fde2JREdJV/mVXThFG0msOo37804u4mJFQOT9qShhy6o/kcxqp2/1J9K4YS5VAbInLokmZzGDbtbkIqzuFR00YO3XJ9DiPdv6Q7WfWtGFKcw5OmDiGHjrk2h7Gu3b9U34pBJTnUbMMnh85J9yjVtdmxuwkZaQ7Ld0knhw6qmsNI9i/pF7HVtmJwaQ7LlSk5dJL2Dhf1+5fY3SQtzOFRX5mSQzeV5zCSm3DrdzfVtmIMYQ73G21lSg5d9TM3h7GsXaZW34pxqBzODrrKlBy6K53DSPcvaRex1bZiLFEOl7rKlBw6LAlY9A/9/qV7djfZIcrhTFeZkkOnxTMRYYEqf4tu1IlzqKtMyaHj4jmM075udxOL2CyQ5FBTmZJD51Xfpbv+Bt4YWZJDTWVKDt1XtQ/jfuhHR6GVNIflylSXw8Ne40AO7fVTsw8j2d004KMU0UYmh6XKVJfDGuTQUmpQ9PA7fr0QuEU36mVyWKpMyaEngt3L03NyYutv4A0R2RwWK1Ny6I1fyRds/Q28ISSXw0JlSg69Eecw2d3ELbrtksthVJnGL3U5fFtpvJFDy6kcBrvoK5PdTbbJ5zCqTN/UC10Om89bLFcrzrYtwhxuzD+/FIYUchhVpipAPXK4elS/aEcnaYVLDqPhmedf0geDskIOc5Vp5xwG8Yqps0cuRCzwKz4d7G6yUzGH2cq0aw6DQ3b45sCJlxfnkN1NlirlMFOZds1h1Bvu92qI/HG4o0dD7+GZOLK7yValHM62SWXaMYfr8JSHr9T6Ka4RxYU5ZHeTvco5DI5xZdoxh4dMMRqWqHSI4i45LN+QD9Yo5zCesF90zOEi97awzB3kyNECObScJodJZdoth6v8KSeHNninLLGbLodxZdp1nGa1eUvbyKENyKHldDnMLSXtuQ84OOmfYYNRkUPLaXMYVaYmcrhhnM4G5NBy+hwGRzM5DMJfz0S+OHJoOX0OM5Vpj3Xec9WtsoRDHjm0XEUO08q0cw6jVTUHYmgBcmi5qhwmlWnfHG7Z/GQBcmi5qhwmlWnnHCaVLQ+2lEcOLVeZw7gy7ZzD3dv5AjHsVdlxIY4cWq46h1Fl2nPeIlwMwF0ypT2SQ7stLveX0Q+lhE2rpC8L8i+zaprU7guuEYWRw8m7jNe8XX8bhkQOJ2/Nn4C8Sw530geBkQXZEnVVdQGK8Vxy+C59EBjTans4ZR8iRA4tQA4np3gp8kZJJI8cTs5bYYD0yDiNPHI4OeF9MdIOccu8hQXIoVuW8/m878LscGFpdLta9UQFylJp5NAtJtY/hR3i6bhdxRuf2IAojhy6xcg6xPUpj51P4sihW8ysB84F8UgM5ZFDtxhal79MHzSzoSi1wJ4cOsXY/pjF226/32/mpNAKB3LoFPap+YkcuoUc+umSQ25f6Q5y6KdLDnkOsDvIoZ/IoVvIoZ/IoVvIoZ/IoVvIoZ/IoVvIoZ/IoVvIoZ/IoVvIoZ/IoVvIoZ/IoVvIoZ/IoVvIoZ+eyKFTyKGfjuTQKeTQT5cc3ksfBBojh3665HAufRBojBz6iRy6hRz6iRy6hRz6iRy6hRz6iRy6hRz6iRy6hRz6iRy6hRz6iRy6hRz6iRy6hRz6iRy6hRz6iRy6hRz66YUcOoUc+ulEDp1CDv3EYyjdQg79RA7dQg79RA7dQg79RA7dQg79RA7dQg79RA7dQg79RA7dQg79RA7dQg79RA7dQg79RA7dQg79RA7dQg79RA7dQg69tCCHbiGHXlpechhIHwUaI4deCnMofRBojhx6iRw6hhx6iRw6hhx6iRw6hhx6iRw6hhx6iRw6hhx6iRw6hhx6iRw6hhx6iRw6hhx6iRw6hhx6iRw6hhx6iRw6hhx66ef5tL5IHwSaI4demp9P61H6INAcOfQSOXTMpHK4edf6JX1c5pFDx0wqh5eHc2ocpI/LPHLoGHJIDiFvUjmkLoWlJpVDwFLkEJBHDgF55BCQRw4BeeQQkEcOAXle5nD1ttmfPW7WC+lD6Wd9+Rj7Jk3q5Ur71rCJh11Yzb8crnbZtTLHrctR3Jwq9xEWmtTLo/aRFmGTPqKwhG85XO1Ly9Z27iaxbQ5PW91byaH9/Mph8KhdQLqRPq6uWudQGzdyaD+vcrisWMh92jv6CLL2OdQtKiWH9vMph8skd4fNerVarbeH5AduBrF9DnV9Pzm0n0c5TGK4SS8IFzung9ghh5qnAJND+/mTwyAqSh/ziVtEfaJ+9N9yXXJY3k1JDu3nTw6jIZp1qWFXWbBZr0sOyx+UHNrPmxzOq2KYBNHB6YuWOTzqK1NyaD9vcnisjOFspuYUdyMfkQEtc7jfaCtTcmg/X3K4rrsIXLjaIbbN4eygq0zJof18yeG+NmkbR68QW+dwqatMyaH9PMnhoq47nM2CsNm9Gye1zuFMV5mSQ/t5ksN1zdXhxaN2AMN67XOoq0zJof08yaEaEq2eq1c5fRvxiIzokENNZUoO7edJDo+6ccIMVZg690E75FBTmZJD+3mSw6sxOzp5gagytdc5VuWwXJl6lcOlLx8kz48crq6Oh+6rexaLZVbJ6OXfqXJYqkw9ymGwezk9uDf/dJ1POay7/FN/0a6dwU45LFWm/uRw83z5KC9bJxft11g8nA7Hw8tv5wYSC9ZX/9Q2Tv4xdsthsTJ18qNr/Ey2sR2rR8YdFGxfLt+blw/24PY3zPWUTSqHhcrUyY9essjd8cT5riO1Vpf66kvmxb3FJhl+53Cls6vJYTy+E71y8qMXBO8vUQDjODredcSWv9XHedk+q395mksfUnd+57BJUz6HUWUaXTA7+dHz7p/TgjQuT93uOpTgIf1WSb5q3L3Hpd/Xh02aCjmMKlM1LuXkR89aFZJ370HXEdrEnbxKXlx6v+wc7evVeGndxfs2fIdrH69zDnOVqeM5XGT6jIgHXcfZ/Jh28pG4r3++Fzyu7tTXv6/zh02aijnMVqZO51ANJp4dcp9g6XrXkX6C/CzMJurrDz+lDqyP8NDr5kFPxb9TJ/TIYaYydTmH67jPKHUQ8yeXu47LggTVyRfntJOWvWuz3bPr3Z3aF+XcjvweOYwq8cuP3M1hOpio6/Uc7jqSQ9edlqSnfHeur1d/dNUXC29hu3Ozv31yGN2/7s3dHCaDiVU9w9U3WOrqVWB1FWA5VYVpn+4QUh/cua+XPjmMBq/OlamjOYwHE+u6u/oO006LJt3dRntVbL9jbdDUn6R762h75TCpTJ3MYdPLP9e6jnSot74PT2cWnerr6+9As3ezLO2Zw7gydTCHbS6RnOo67ptf0yZ9vUvrFdRG34orRPWX6Nzuw745jCtT53KYDhk2mh5cONN1xAsSnptF6748wWinID3AmgdxRkP4tn8YjZ45jCrTcg43Vk9/t18uU1xwY6f4+6L5nGcyeWr3svb755fkGzAqwjTPk4liWHPXDGv1zWGQPogum8OVzdPfP9v1GRH7u44kU63WAGkWE9km/BJM//SiIuxY/JTRDffdu1nbrH8OM5VpNoeH1n/mo1l03U6Rbsiw80R3/qLo9r00mviLIv37ijfrbbJnMHnwmrXfk3V65zCtTDM5vI8KBPumv3vVYUmELezre425WLysPV11mDlhceRO2+iPLpinP5I5zp765zCpTDM5bDp0Prq+xaWtXUfQs7i0dln7vX7SKDMscUxuaRZy7s6lSv8cJpVpbpym0VTy2EwMtljZdWz6V8xW7oiqXkSxPunZdFbaMJDD+MupMG9h3QYbQ5MPLac8RmBooYF1y9qTTv5Rc8IWj5oU2vQd0o6JHEaVaWn+8FfdUuPRmZuMt2uVdMXupi7sWtZ+bdXhqpjEnWUXQW0swlvRNGkKX+q7APXO8p9B9dab0ZldnGZP12H2f7FFO6LiE1b3v3jxlkTxuFvb8KVoK4Nf1r0OI77OMNaDNVkiPgLjPZgly9pblBzV3QMyNLdmGFsQj2mb/JavvXgZyc8humULlrVb1C17xMBgXr///kBXPdJdx2BD0tLL2jc2Dkl7oO/kVi9DXspJdh1DTtGKnjBbp2h9ILbBZuCbPVXcYmoEA09jii1rt3Ia0yPJuogxa40RVonIrJJuubupC5Fl7bYv4fVAt80AvYyz9GX8rqP97qYuBHZEZe+pjqGM8+eTGO/m+OP++YyXj5GXtbuxxdMHI16CJ8uexqgXxyynRq0Xxzxh9m+D9EhSKg47/T16TTXW8MLoA14jLWuXG/CaqFF2REmMMSRz6gMmRGI+YZRl7RasHZicwXdEJdcZI8+vDz79LDS/PviydukFEVM16CppwbtyDrscS7DPGOeECS4QnKrahy/0+82i1xnDdR3CfcZwO6IsWTA/UQPtiGqyWWZYwxyB/MLngXqtufgJm7oBvuDN727qYoAe2Yr9uUOcMKs2VE+V4Qse+T4jPhDDV6jWbDr29YRNnskdUZtxZiYbWRocsbVq4bPJWT52N9nD2ITYGLN3bZiawbTtfobGVr2wu8kuRhYVWtVnKGZW9Fh4k0ajJ8zhG6x5p3fXYVufEenfdVjaZ5g7YexusknPHVH2bpbpt+PD3oXPPXNk7wmbuh51pd2bZZI/udZ1pd3PQ/P2hE1dxxLM3j4j0rVmtv4hb76esMnrsCNK+ygg23TpOtJ5jwEPrK9f7ceQ2N3kgNbTuq5slknm4X81e7/gSvVWvD1hU9dqmZNLm2VarUuTvntoC96esKlrvITLlT4j0rzrcKzPaH/CWMTmhGa9gXubZZqtQbdjpXorzU6Feyds6hr0dG5ulrm+I8rNhc9NTpgtK9XRwpULCXc3y1zp663Y3dSFtyds6mouktzsMyJ1XUfbUVWrNDphFk8uQa9yNUmHSSurrCpmBi1cqd5K5VSu6yds6rQLLyxd+NyKbqWMpSvVW/H2hE1daSGi631GpNzXW7i7qYvKE8buJrflFuZ7tFkm+fsMu47xnsMxOF9P2NRl6jW/Nsuk2fNr4XMQFd3n7MUn7PQgfVDoL+46nrzpMyJJLepXnxF9vySf68zF8V+UqDvPPPnTZ0Si8fwnfzr5i0sOn9MT9kwO/XGZ376cVgcWPrcSzm8/+bXw+ZLDX+kJO5BDj5y7jidXFj63Mn86/726sVK9IRW85ISRQ78sHzzqM7I2j3518nHwohNGDgEBheCRQ0AAOQTkkUNAHjkE5JFDQB45BOSRQ0AeOQTkkUNAHjkE5JFDQB45BOSRQ0AeOQTkkUNAHjkE5JFDQB45BOSRQ0AeOQTkkUNAHjkE5JFDQB45BOSRQ0AeOQTkkUNAHjkE5JFDQB45BOSRQ0AeOQTkkUNAHjkE5JFDQB45BOSRQ0AeOQTkkUNAHjkE5JFDQB45BOSRQ0AeOQTkkUNAHjkE5JFDQB45BOSRQ0AeOQTkkUNAHjkE5JFDQB45BOSRQ0AeOQTkkUNAHjkE5JFDQB45BOSRQ0AeOQTkkUNAHjkE5JFDQB45BOSRQ0AeOQTkkUNAHjkE5JFDQB45BOSRQ0AeOQTkkUNAHjkE5JFDQB45BOSRQ0AeOQTkkUNAHjkE5JFDQB45BOSRQ0AeOQTkkUNAHjkE5JFDQB45BOSRQ0AeOQTkkUNA3sPhcFhXvgQAAAAAAAAAAAAwPcHqbCF9FMB0Lbf7U+SwnUsfDTBF6+MpbxNIHxIwMfNiCsMkSh8VMCXBTpPCS3nKlSIwluCQid5+v88kcSl9bMBEJDE8bqPYLdZ7ggiMKo5hbpvTak8QgfFsVd4ei8Ojm6hQZdgUGNxKxW1XblkzagqM5FgVwySIDJoCA1NZ2+sbH6szCsCcQ91gzEJ1iFwhAoNaqjGaqmY1VvM25hEB06OCVrmoW3WIhzGPCJgeNUtY3X6gMAUGV1+WzmZv9f0lgP5W12YIr74BQF/rq91d3bQGABPUMM2q5h1HcggMbHN1GObaQA6Avq6njBwCQyOHgDxyCMgjh4C8DTkExF2ft2D+EBja/No8fsAORGBoaj/FtvoNrGsDhndtX9P2auEKoK/dlTvQHBmmAQY3r687V1weAiOovwPNnu2HwAg2dSM1qrc8jntEwPSoiQl9lxe1rXVtAAyKbp+vuXNi9PwZukNgeNFjZkpzE0FVAwDj1C1MS4Om0XMv6ib5ARgTPcbidMxcCCaPXau5lxsAg+IgnlO3ma9Wq7fdMf7BnluXAiNZnSowgw+MZ7HXxpAJfGBU82MphRtqUmBs88dsCA9rUgiIWG22+7PdZk4IAQAAAAAAAAAAAABAA/8Hpbz5i5vhh6UAAAAASUVORK5CYII=;" parent="mMBgnrupJotZcHhOcbj2-14" vertex="1">
          <mxGeometry x="4.720000000000027" y="60" width="270.55" height="141" as="geometry" />
        </mxCell>
        <mxCell id="mMBgnrupJotZcHhOcbj2-15" value="" style="group" vertex="1" connectable="0" parent="1">
          <mxGeometry x="320" y="1990" width="200" height="160" as="geometry" />
        </mxCell>
        <mxCell id="380feVYEUsmyo0d7AHBr-61" value="&lt;font style=&quot;font-size: 18px&quot;&gt;Urea&lt;br&gt;&lt;/font&gt;" style="rounded=1;whiteSpace=wrap;html=1;verticalAlign=top;" parent="mMBgnrupJotZcHhOcbj2-15" vertex="1">
          <mxGeometry width="200" height="160" as="geometry" />
        </mxCell>
        <mxCell id="380feVYEUsmyo0d7AHBr-62" value="" style="shape=image;imageAspect=0;aspect=fixed;verticalLabelPosition=bottom;verticalAlign=top;image=data:image/png,iVBORw0KGgoAAAANSUhEUgAAAZgAAAD+CAMAAAAwP+OUAAADAFBMVEX///+AAAAAgACAgAAAAICAAIAAgIDAwMDA3MCmyvD/8NT/4rH/1I7/xmv/uEj/qiX/qgDckgC5egCWYgBzSgBQMgD/49T/x7H/q47/j2v/c0j/VyX/VQDcSQC5PQCWMQBzJQBQGQD/1NT/sbH/jo7/a2v/SEj/JSX+AADcAAC5AACWAABzAABQAAD/1OP/scf/jqv/a4//SHP/JVf/AFXcAEm5AD2WADFzACVQABn/1PD/seL/jtT/a8b/SLj/Jar/AKrcAJK5AHqWAGJzAEpQADL/1P//sf//jv//a///SP//Jf/+AP7cANy5ALmWAJZzAHNQAFDw1P/isf/Ujv/Ga/+4SP+qJf+qAP+SANx6ALliAJZKAHMyAFDj1P/Hsf+rjv+Pa/9zSP9XJf9VAP9JANw9ALkxAJYlAHMZAFDU1P+xsf+Ojv9ra/9ISP8lJf8AAP4AANwAALkAAJYAAHMAAFDU4/+xx/+Oq/9rj/9Ic/8lV/8AVf8ASdwAPbkAMZYAJXMAGVDU8P+x4v+O1P9rxv9IuP8lqv8Aqv8AktwAerkAYpYASnMAMlDU//+x//+O//9r//9I//8l//8A/v4A3NwAubkAlpYAc3MAUFDU//Cx/+KO/9Rr/8ZI/7gl/6oA/6oA3JIAuXoAlmIAc0oAUDLU/+Ox/8eO/6tr/49I/3Ml/1cA/1UA3EkAuT0AljEAcyUAUBnU/9Sx/7GO/45r/2tI/0gl/yUA/gAA3AAAuQAAlgAAcwAAUADj/9TH/7Gr/46P/2tz/0hX/yVV/wBJ3AA9uQAxlgAlcwAZUADw/9Ti/7HU/47G/2u4/0iq/yWq/wCS3AB6uQBilgBKcwAyUAD//9T//7H//47//2v//0j//yX+/gDc3AC5uQCWlgBzcwBQUADy8vLm5uba2trOzs7CwsK2traqqqqenp6SkpKGhoZ6enpubm5iYmJWVlZKSko+Pj4yMjImJiYaGhoODg7/+/CgoKSAgID/AAAA/wD//wAAAP//AP8A//8AAABYWvgoAAAAAXRSTlMAQObYZgAAAAFiS0dEAIgFHUgAAAAJcEhZcwAADsQAAA7EAZUrDhsAAAmDSURBVHic7Z3RVuI6FIa54w1m7hHxrTz3KPjOBUQBQQZFXMu1emjThqTdaUspyW78v6sJ6XBy+pmdnd3U6XQAAAAAAAAAAAAAAAAAgIt4HB95PLdL5SG6bDwk+wq62LPvRfwh+zJdcbNnvpLuKmb8c2R8bpfKY3TZz1NA9cVdLRXT+44YkH2DqKuvNwuupLuKaUrMDzm12i9Guf0KbRJD3n8PxHxTcahVYp6IPh/EUHe1VWKoYOaDmO+bfF+7xBAGvBDznc/MWiYmf60fYvL3tWVi8sHMDzH5YNYeMU90MPNETC6YtUfM+JEMZu0X0yeDWYvEiKuzwaz9YvZ3VDBrk5ghFczaLyaNaHowa5OYDhXMPBDToYJZq8RQwcwHMVQwa5cYIpj5IIYKZu0SQwQzL8QQwcyWmJ8xhWE3n+UkJh/M/BCTD2akmB7FhWLMnCUmF8z8EJMPZpSYApyLyQUzT8TkglnrxGSDmS9issGsfWIywcwXMdlgZkvMeEhxdlYmW7LpjZhMMCPFDCguFFO5K4iM6R/pYpIp+CAa/ohJgtlf0WK2j7l/TKr7owfl04yYJJjdxw1/xKTBbB83LhHz5+b2OJNub+gTa5LqYgLlidiPcoovI0YLZh6JSYLZbfzn+mJ6p/VoUHgOsLKYIJMmyNudFaMGM5/EqMGstpi+lhQQxzwklcWMkqkyTgXdJx05MUow80mMGszqitG9FJqpKkbc7cf4IKyer+XEKMHMKzGdWxnMaooRX3nX7/V6fTH/zNGsqpiRdotHypTJiwme0mDml5j9dxrMaooZqLOkf1qyKCqKCfQ7HN/6JDXLizkFM7/EdP6mwayemD969OqfsjyCimKiW62egX04tkfij4QYGcw8EyODWT0xN5mr7opiWUUx//3ozyaHpy5KTBrMfBOTBrN6YvqZ5b6vfUmGylnZ8FHdVQ6LZ0wazHwTkwazemJ6/YE2Q5oRo/NwmkGkGPV8pk9ikmD2XTNd7uzVNaX/LWs8eWqKeTrdcFpMEszyYjZL8t0zFszUBi1mf5kYjWiNMRZm6ol5UHIBWowSzDQxL2G4m5sG45bnbaiaocWkwawBMVEucGccTS0x9z+nbNkk5hTMVDHBR3jkfWocjzMmm2hgygcGMadgdqGYuMRj3vrXEROXzfQnMMRlMpipYl7CmM8Vs3gWLD/jgb2cPjKJ2Tck5rZwwtQRI8qZ5iJmypAQ05lthZqPV/OY7POyE6PadU+fmcTIYHaZmHjiFdSXzxcjvPwn20YxaTDLZGUvH+ImbJ/No7JL+sPyqeUlRjFpMLtITPwdjVSXU4ZP6gLTKRKTBLNsuhysRNgI15OCgVkjeBOjCd/04ZjF7C8Ws4+9mAtlR8Tj/epdIj6pe8178zeIrvxyMt1QP6JuWCQ/JdtZpqMXP7Mn/87fuEupekVNeqtIdu0HpV7OpakiyzwN6o5T53QcHy/l1zZG706fcA0wam4rn/6kukydp+/JzD3YnLkieShaX85FLPvjhv4nJm+OU2e51m2srnXiKaaxFFMD4WXU3G10mzov3GSH8bJ/V+f3MZkQXsp/TdY5uEudu/+SH4qF3f9u7GVgfDxWh3E2HWsCR6nzZOMojJanyWfzeKUKvoPUOTiki4vtxOOm6WU/2b9c58mK7dQ5jZ9q/cUOvea9xA9gRplT5419uc3U+Tmtv1heXCIGTW9fxDP/LOUvAlTGWuo8kfUXBzl6HMgybwNcOn9G1xVjKXVOi/uOdrXKY2niaVs9nq4txkbqLIv7NusvCoSXi8VQbzU3u6W5euo8JYv7FuldQ4wdrpg6m4r7FtlTr5uXvCXDhmulzsbiPqjKNVJnJ8V972g8dZYB0mpx30caTZ0dFfc9pbnUOS3u/7Nef/GThlLnZ0fFfZ9pIHV2Vtz3nAtTZ1nc53ggt+VckjrL4j7TI+ztpnbqPHNY3P8d1EqdnRb3fw1np86yuI/6y3U5M3WeOy7u/ybOSJ3l4UoGx6J/AxVTZ1nc5/Eiwa+gSuosi/tsXr35DZSmzvJwJRYXyxSmzijuu8SYOp+K+6i/OMGQOr+guO8cInVOD1eiuO+WTOqcFvdDFPedswhl6iyL+/+wuDAgWVKOqXMye8IQqwsHpI5tCDGciMSsPlIxbx8Qw4RITDdKnbdxcX8HMUxITEw327i4DzFckLFrFmhN4JjMao/FnwsQwxSIYQrEMAVimAIxTIEYpkQmpsYmcAbEMAVimAIxTIEYpkAMUyCGJxPdxARimDDVTUwhhgkQwxSIYQrEMAVimAIxTIlNBKYmcEZswtgEzoAYpkAMUyCGKRDDFIhhykw3MYMYJnR1E12IYQLEMAVimAIxTIEYpkAMUyITn8YmcEZkYmdsAmdADFMghikQwxSIYQrEMAVimPKqm3iFGCZADFMghikQwxSIYQrEMAVimBKZ2BqbwBkQwxSIYQrEMAVimAIxTIEYpix1EwuIYcJBN3GAGCZADFMghikQwxSIYQrEMCUysdGb7+5GAySRibWxCZwBMUyBGKZADFMghikQw5SVbmIFMUxY6ybWEMMEiGEKxDAFYpgCMUyBGKZADFMiEwdjEzgDYpgCMUyBGKZADFMghikQw5StbuIdYpiQEbOFGCZADFMghikQwxSIYQrEMGXW7XaVf5D09XA4dN2NBgAAAAAAAAAqMekuVpsjy8XM9VCAJPiKNvuS9dz1gEBEsAiz7KDGPd2clojttPxvgmuyJL0cwaRxykqKWC1mRxZrmOFA6mWjVJPnO5hxzVeioEt/jMzZEdNkoQ8MHWGuA1hha/AizSztjwkcFxOjl05nJsxMbI8JHNkVLSQiLVjZHRGImBXe+gCrjCtWxZnXEimzI+JIZv6XlcT6j5dkrTMpy7vEEmRvQEAwp7aWKiKWoZhpm0XZfZ9jkXHCpixSiaxtYW1AQFAqpoOdjBPitX1TdEVYegW4AuW3HWKcADFMgRimYI1hyqa4IpOWMfFIxjZr7GN4Urrz/8JzfyeICfFlvmCFZ5hOCMrK+mHZIgSuw7r4EWUXa78j5sWL+wZVf0cUP9WfIZI5Y1GwygQ7PI1xRjJlyMRshQnjkOSMMjEtksPm+MUljhALfC71CpJ3MXBExhVJMAu32v4+fQ+DPjwLbJAe6w8382SLP/1KX4/Bpt8lU6nhKOfIqbWFF6cEiguVNeKYa+aElh3yMQYEi52uZYt9JRe6S/m7MTYL1Md4MYleJ8fKAgAAAAAAAADu+B/S2WsWBGBzLwAAAABJRU5ErkJggg==;" parent="mMBgnrupJotZcHhOcbj2-15" vertex="1">
          <mxGeometry x="20" y="40" width="167.06" height="104" as="geometry" />
        </mxCell>
        <mxCell id="mMBgnrupJotZcHhOcbj2-16" value="" style="group" vertex="1" connectable="0" parent="1">
          <mxGeometry x="860.74" y="1800" width="240" height="160" as="geometry" />
        </mxCell>
        <mxCell id="380feVYEUsmyo0d7AHBr-46" value="&lt;font style=&quot;font-size: 18px&quot;&gt;Ornithine&lt;br&gt;&lt;br&gt;&lt;/font&gt;" style="rounded=1;whiteSpace=wrap;html=1;verticalAlign=top;fillColor=#ffe6cc;strokeColor=#d79b00;" parent="mMBgnrupJotZcHhOcbj2-16" vertex="1">
          <mxGeometry width="240" height="160" as="geometry" />
        </mxCell>
        <mxCell id="380feVYEUsmyo0d7AHBr-49" value="" style="shape=image;imageAspect=0;aspect=fixed;verticalLabelPosition=bottom;verticalAlign=top;image=data:image/png,iVBORw0KGgoAAAANSUhEUgAAAxwAAAGXCAMAAAAOMaYIAAADAFBMVEX///+AAAAAgACAgAAAAICAAIAAgIDAwMDA3MCmyvD/8NT/4rH/1I7/xmv/uEj/qiX/qgDckgC5egCWYgBzSgBQMgD/49T/x7H/q47/j2v/c0j/VyX/VQDcSQC5PQCWMQBzJQBQGQD/1NT/sbH/jo7/a2v/SEj/JSX+AADcAAC5AACWAABzAABQAAD/1OP/scf/jqv/a4//SHP/JVf/AFXcAEm5AD2WADFzACVQABn/1PD/seL/jtT/a8b/SLj/Jar/AKrcAJK5AHqWAGJzAEpQADL/1P//sf//jv//a///SP//Jf/+AP7cANy5ALmWAJZzAHNQAFDw1P/isf/Ujv/Ga/+4SP+qJf+qAP+SANx6ALliAJZKAHMyAFDj1P/Hsf+rjv+Pa/9zSP9XJf9VAP9JANw9ALkxAJYlAHMZAFDU1P+xsf+Ojv9ra/9ISP8lJf8AAP4AANwAALkAAJYAAHMAAFDU4/+xx/+Oq/9rj/9Ic/8lV/8AVf8ASdwAPbkAMZYAJXMAGVDU8P+x4v+O1P9rxv9IuP8lqv8Aqv8AktwAerkAYpYASnMAMlDU//+x//+O//9r//9I//8l//8A/v4A3NwAubkAlpYAc3MAUFDU//Cx/+KO/9Rr/8ZI/7gl/6oA/6oA3JIAuXoAlmIAc0oAUDLU/+Ox/8eO/6tr/49I/3Ml/1cA/1UA3EkAuT0AljEAcyUAUBnU/9Sx/7GO/45r/2tI/0gl/yUA/gAA3AAAuQAAlgAAcwAAUADj/9TH/7Gr/46P/2tz/0hX/yVV/wBJ3AA9uQAxlgAlcwAZUADw/9Ti/7HU/47G/2u4/0iq/yWq/wCS3AB6uQBilgBKcwAyUAD//9T//7H//47//2v//0j//yX+/gDc3AC5uQCWlgBzcwBQUADy8vLm5uba2trOzs7CwsK2traqqqqenp6SkpKGhoZ6enpubm5iYmJWVlZKSko+Pj4yMjImJiYaGhoODg7/+/CgoKSAgID/AAAA/wD//wAAAP//AP8A//8AAABYWvgoAAAAAXRSTlMAQObYZgAAAAFiS0dEAIgFHUgAAAAJcEhZcwAADsQAAA7EAZUrDhsAABIlSURBVHic7d3ZcqNKFoVh3en9XxHEkY0o0Vh2yHe0xTzkRszshP+L6I6jQqXChpUDuUGnEwAAAAAAAAAAsMjn7+9l630AVIri+Lz1PgAqEQ5AQDgAAeEABIQDEBAOQEA4AAHhAASEA6hyzoWvOPaLF6yV4/Ausdnv1jsGbI1wAAI3KvzE8Vfx4nPrHQMUYUIOCAgHICAcgIBwAALCAQgIByAgHICAcAACwgEICAcAAAAAAAAAAAAAAAAAnE7X8MUzbks2Xeovr/I7zZsAW/nJA6oejmlbssmrv/SNn9KxCbBVGo74ZtpGOHBoWThi08CKcODQ8nA8DNsIBw4tD4fp1CYcOLQiHHH7+wYIBw6tDEfU2kY4cGhlONonN+HAoSXheJgHVoQDh5aEI/SNAyvCgUNLw/F6Ik/79CYcOLQsHBfTwIpw4NCycJxMAyvCgUPLw2EaWBEOHFoRDsPAinDg0IpwGAZWhAOHVoajPbAyheMRmhAO7FAlHK2BlSkcHQgH9qUSjtbAinDg0KrhaA6sCAcOrRaOxsCKcODQauHIBlb5S1M4As+EcGCH6uHIBlbP9IUpHP0v5V48z519d4H1NMKRDazSs3pCOLx7nHU0i+w1sIJGOGoDq9HhcMJyJnI3PhIL0K8ZjurAamw4nKg6T49IB+zUCkdlYDU2HFm/EYbpHYb3pfYdWFQrHKdbMbAaGY7r68Uj+XteVP8IwCLtcDiPfGA1MhxRZSyVjLDoOmCldjhOXj6wGhcOt/a3klHaAvsNLM4QjmJgNS4cr2xF9U1z7zSwBlM48oHV2Am55z/rm+bdZWAdpnDkA6ux4ahyYvNDqgH1jOHIBlZzhMMX/w6gnDkc2cBqcjic5ONZBYSVzOGoDKwmFB6e0w6o/fh2wAZCOMqB1ehwZOvkEdmApaRwFAOrqeG4UbcOS0nhKAZWo8NRDMxuzDlgJTEc+cBqdDiC59+kI+l/qMuFleRwZAOriZdyk5VE4xc5A8q5r1vAzXPmZJNXtvrJS/MMomNTUqPLvAMweE3Mn+/fBhzPq+ugaB1IOdUZuCdNaoCj8W5RfK2+JhxA6t4YRr2uVwWb7Q2gyLNxeerBhBxIJbfJll3HjUu52Af3fD5PfVhIUlQVpHNyJ4gZVWEfPuPmV8oOl3Qd8ePm5TXr3NCBPZgjHOmieAVF69iDWcJRT8eDbGAX5gnH6VI+SdpnTIV9mCkcfxOPZxCGoX8mGtiL2cIB7A3hAASEAxAQDkBAOAAB4QAEhAMQEA5AQDgAAeEABIQDEBAOQEA4AAHhAASEAxAQDkBAOAAB4QAEhAMQEA5AQDgAAeEABIQDEBAOQEA4AAHhAASEAxAQDkBAOAAB4QAEhAMQEA5AQDgAAeEABIQDEBAOQEA4AAHhAASEAxAQDkBAOAAB4QAEhAMQEA5AQDgAAeEABIRDjSiOz1vvA6oIhxqEQxvCoQbh0IZwqEE4tCEcahAObQiHGoRDG8KhBuHQhnCoQTi0IRxqEA5tCIcahEMbwrGxqPATx1/Fi9vW+4WDhePz18jfcp9is/uW+4TUocIRmU/Ex5b7RDj0Ihwbh+Nc+Ipjv3hx2XKfkDpUODQOq0pMyLU5VDh0IxzaEA41CIc2hEMNwqEN4VCDcGhDONQgHNoQDjUIhzaEQw3Coc0uw3G5+vfwj/+cspZ2e32EucapY1PV9fW20DNuSzbVdo9waLO/cLi3R3X5OzCfmz2Er78eDt1U5acL8I5pW7Kptm+fv7+si6uyt3C4Qas6RGi635orHLGxi2mHA9rsLBy+uYrP2Ha/M1s4jBkgHPrtKhxOaK4sjB9jxivzhcNU2Ug49NtTOJyi6vZxe3qed/bLsIxIx3zhiA2ljYRDvx2Fo8hGUCbB8cenY8ZwGP51wqHfjsJxT8/DqH4iOvkMffC8Y85wtH/FhEO//YTjmXUbrQ3XdMP7c7lhznC0B1aEQ7/dhMOVslGkY+gK20zheJgHVoRDv92EIxCzUSzGDfzEmcIR+saBFeHQby/hcDsnFmnrfR32kXOFI7t1vTGwIhz67SUcfufp742ZdcwWjotpYEU49NtLOB7dV6TSxtsd9JGzheNkGlgRDv12Eg63Y8bxkl7Keg76zPnCYRpYEQ79dhKO65vrUWl4hj0pbcZwGAZWhEO/nYQj6B5V5W33oM+cMRyGgRXh0G8n4QjfnfvB8ElH+pmhSc/5fRmO9sBqV+Fw9/KD1O0kHG/PVn/4ySiV+OYGhaM1sNpROJzbz3e4x/u09hSOrilFejF30ErHrOFoDaz2E46PRxx/xz/BqJtmFHOCn69H9BP9t/WOTOQ2By0t3tt3tMwbjubAai/huPzv9YN8v/73sfW+zMp//UzJQQuHLQFo8/7U3z4cjYHVPsLh/Et/qu+0X7S9kS3995X+RMn//9xs7hWXC0fkmUQjwpENrPKXuwiH/5NmI/qXNxh2N7I5N2sYf36zstGHxb3icuHofynX+QtN4231cGQDq2wlcgfhuGZnzms8lY6uXqeTzY1syvn9KaNe5N/aY7XcnKNnOBw/PVGiZ/XcaIQjG1iljav14bgUrWv6I1930MgmPr7j6iAxHznG/2ztFZO9l6tHTqdz8o5Bt3QMCEd2x0jz32iEozawsjwcTlBpXTP2N7J/vKjsDjNFr6jkW46GihunYcvYdY5e4ahmo3q9uBmO6sDK7nD4Wev6VWtuXOsb2fwnaFyY/sh7xYF3PejwdoX8/u4Nwmf2CYeXNZjZynm50tcKR2VgZXM4/stb11ZTmre7djayzi3vDptLmsWW/1m42OnXz8q2JPrD7gXsHY7ks5OrfY7h+lTtE25FF2dvOIpLOcZlP4sb2XzXv0yj77JXtO6Kw7kcrxilTXbXpKStbzjO1bHUtRrSdjicR76jtoajuJQjtaFv36DU25mF3F9qlw5sxM1piz3sEQt9wxHU3navhLQdjnwI5toajvxSTlfHkHctsUUVJU6fjuHDONPSL+g82Zz0hxr2kX3DEdZi9wqEX/nv5ifkAysrw9F3SmFdI+v36+3KFRCresXuu8T9EaOq/nMO91ppIt+FIx9YWRiOIcNuqxrZa/95kttY3bFDutPmWUdt9W3YJw6+2enVM+S/Y1M48oGVdeEoLtj0W8YoF0K0N7LFZKNfBdX5K+sV1S92ljuYnXOmI5E9RHdgxzEuHMkALv8lG8ORDawM4VDdFg1fAG8uoetUhLj/2oxfX0JX6u+AlafXXUpH/oDpoQtTY8KRDMqLgbY5HE75zVNe/c/1rp0NbF0zFjSyxYk+pBM3lQcokxyw8gJVNulu3dB0ybIx7NEjpzGFh8+w3kOZw1EZWNWOiK+2NtoZXXRbVJTobGRHp3dcY7GaPL2tgVV8rx7B4jsIhg6qBocj/+crF2iEcJQDq2o43OTn0bh2NuUML3J119fITppca66zLIp7KgesKHEKztlP6xWn4YhbgceFI6qc3VI4ioFVNRxXpWtnU8dGWhvZWmH6GFrrLIsDVr+OXi0ADMMwKl+NWY4aGI7i+wYeXu2PjFMTQzhObjZrUlWgMMesWmUj+zF9Vt1r4XBtcnHPpfYty6VRa1EDw3H1z94zPb87L+UmboZwlGtnasr2ZroeO/Aq8ApmWqVUV2fZWbtTfs1ZtRMZd2RHXcp1k19X1lHL4cgGVq1zpajOULF2Nt9Knq6yPaEwfQxddZbvintaX0R+H9taXV53i5tz1bEpuXCczf5d+W3JJq99bBQVKMxbA6KnkZUL0yd92vZzxT4DD+caFKOr+3P1iyTJfGLC3++uCF9NUT04W1vfp2ZxBbO39UrqLAd0zknbvsY+tb1++ZNaEeFyw5oWaQ81FLNflujAFNRZltO6zTuwplr3FJomE8NsXaCw1Eh6615xsetLW9dZfmi8IPjHed7rtxjOEI5tCxSWnB5s2sj2LEwfY/KqyRRal5Kykt/mN29M/w1t9iCopZ+SYH42wwoWXm7ZrM5S9bODkrlY+TJZiZzjc6vPTFvP8uu+2/SKK7Su29RZ6i5fC2pdh9vIyhTrFyiss5i9fiM7ojB9jPXnitu0oP2ltSBe9cVcR2DlHnO9odzKx3S1k3blOksLbplJa0Hu17xmfVy1ilkxOV5+ruXky6erDHdW7BVXHe6sODm24LaS8m6q3EyDqsxaBQprDwnW6hVXv+t7rTrLza5sDFNPx23uT1+jQGGLyeRlhV5xk0usa9RZ/rf9SnFfZb1juMAvZPFi9stGi3OLr11ttDi3eJ3l1qupA539MAyD50KN+6LF7BsWOy7bK2644rhonaWGOhxVlitm37b0YblGNu9vN2pdl5srKqng1GSh9n37G6yW2YPtS8kXat/11P6rssBAU8etuQv0iipuQlrigKm6a0yVmYvZt29d8x2ZuVdU07rOPOtRXJiuwZyrESpa18ycjayqBx98zjij01qYrsZsy6JrrDIMUfSKnxM/SNkjc+Y7YGoL0xWZpQJKY53zLL2iwucAzVIBpfnpeKpML9tT1rpmpjeySlvX6fUHugvTdZl2cuutc57WKyquxJt2cp/VHjCVJgyLNrvHsJcJwd36zvtOUw6Y/sJ0bUYWsytuXTMje0X133cwcsin/4CpNOZSrOkB3NqMaWStqMQbc7HAksJ0fQYv4tlS51z2iv3er+g5kZ2GH7Dtn4hlr0HlH1a0rplBveLWT40aYFD5h00HTKXeZXu2tK6Z/o2sZa1r79IWCtNn0K9sz746535P69VROjlIv0Nh3wFTqUefoKYSb5D3vaKa0slBdnvAVHozOLW3zvnNbEJT6eQguz1gKnUUs1td59z13VJDr2mp0nHhUN8XYVlPWh9WWIk3iPTwB42lk4NIS062HzCVjEupSivxBjGufessnRxktwdMpVbVlPWta6bVK+6kdW1VTVGYvqB62d5+6pyLkyZpZHWXTg6y1wOmUznc2FedcznccPdViZeNGSsHTPgKY0yXN7Lfu2ldM3kjG+2rdc0XMfMD9ud3633asfQS5/eOWtdMeokz/emm3mmuxiscj/KAfROOhb0Wx16/ZQsq8QZJFseifVXivcLxWx6wO+FYmnP7+balEm+Qv14xsqR0sqc0DcUBIxwrcP/tqHWt+rjvqzvM05AdMMIB5BppIBxAjnAAAsIBCAgHICAcgIBwAALCAQgIByAgHICAcAACwgEICAcgIByAgHAAAsIBCAgHICAcgIBwAALCAQgIByAgHICAcAACwgEICAcgIByAgHAAAsIBCAgHICAcgIBwAALCAQgIByAgHICAcAACwgEICAcgIByAgHAAAsIBCAgHICAcgIBwAALCAQgIByAgHICAcAACwgEICAcgIByAgHAAAsIBCAgHICAcgIBwAALCAQgIByAgHICAcAACwgEICAcgIByAgHAAAsIBCAgHICAcgIBwAALCAQgIByAgHICAcAACwgEICAcgIByAgHAAAsIBCAgHICAcgIBwAALCAQgIByAgHICAcAACwgEICAcgIByAgHAAAsIBCAgHICAcgIBwAALCAQgIByAgHIDgFkXRp/gSAAAAAAAAAABAPe/PZeudAJRxn2GceQRXZ+vdAbTwimRkAnfrXQI0uDSjkcSD3gN4GqLx4m29Y8DGgjIOjzAMH+XL69a7BmyqyEZwTv/AOQekAzidblkO/OoUww1IBw7vnIYgaq5uZH8es+qBo3KybLSvTF3SLeEGOwVoEEjZKNLBwArH5KYBMK9opFd4HyvvEqBDOht/ClujZOt51T0ClEg7Dmmrl2y9r7lDgBLp2X8Ttz86Bl3ArvlvrtbeGFfhqMLOUVV+wUruWYDderuSwVIHDsp92zG861qAnUrn437HOwLCgWPy3s63fe7rwDG9P/UJBw6KcAACwgEICAcg8HqGgxuecDjvL+XeuZSLY3LeLgJG3NGBg0qqbqOON1A+gqO6vylJP78ddwE7dX1zl3jAfBxH5XQPmxxuIsdx3Tsv5vrczoHjSi/mClPy7NEkfBcBjins6BzSbcHKewQokXYdxjl5QMeBY8ueI91+dFWWDa7j4rCc9Mlt8b2+2uFmf9y1QgjsXPZI3Np3EBTfQPDgmVU4siIdcehfPc+73qL8Dx6s/+HY3CIMDcaHrwNH4tyM2WAuDhi/a5kvIgdSl6CajIdPNIDS5emHf+7+lWQAAAAAAAAAAAAAWMv/AbAkK2RLemZFAAAAAElFTkSuQmCC;" parent="mMBgnrupJotZcHhOcbj2-16" vertex="1">
          <mxGeometry x="21.519999999999982" y="50" width="195.48" height="100" as="geometry" />
        </mxCell>
        <mxCell id="mMBgnrupJotZcHhOcbj2-17" value="" style="group" vertex="1" connectable="0" parent="1">
          <mxGeometry x="1040" y="1500" width="200" height="160" as="geometry" />
        </mxCell>
        <mxCell id="380feVYEUsmyo0d7AHBr-42" value="&lt;font style=&quot;font-size: 18px&quot;&gt;Carbamoyl phosphate&lt;/font&gt;" style="rounded=1;whiteSpace=wrap;html=1;verticalAlign=top;fillColor=#ffe6cc;strokeColor=#d79b00;" parent="mMBgnrupJotZcHhOcbj2-17" vertex="1">
          <mxGeometry width="200" height="160" as="geometry" />
        </mxCell>
        <mxCell id="380feVYEUsmyo0d7AHBr-44" value="" style="shape=image;imageAspect=0;aspect=fixed;verticalLabelPosition=bottom;verticalAlign=top;image=data:image/png,iVBORw0KGgoAAAANSUhEUgAAAjAAAAEzCAMAAAAYU8luAAADAFBMVEX///+AAAAAgACAgAAAAICAAIAAgIDAwMDA3MCmyvD/8NT/4rH/1I7/xmv/uEj/qiX/qgDckgC5egCWYgBzSgBQMgD/49T/x7H/q47/j2v/c0j/VyX/VQDcSQC5PQCWMQBzJQBQGQD/1NT/sbH/jo7/a2v/SEj/JSX+AADcAAC5AACWAABzAABQAAD/1OP/scf/jqv/a4//SHP/JVf/AFXcAEm5AD2WADFzACVQABn/1PD/seL/jtT/a8b/SLj/Jar/AKrcAJK5AHqWAGJzAEpQADL/1P//sf//jv//a///SP//Jf/+AP7cANy5ALmWAJZzAHNQAFDw1P/isf/Ujv/Ga/+4SP+qJf+qAP+SANx6ALliAJZKAHMyAFDj1P/Hsf+rjv+Pa/9zSP9XJf9VAP9JANw9ALkxAJYlAHMZAFDU1P+xsf+Ojv9ra/9ISP8lJf8AAP4AANwAALkAAJYAAHMAAFDU4/+xx/+Oq/9rj/9Ic/8lV/8AVf8ASdwAPbkAMZYAJXMAGVDU8P+x4v+O1P9rxv9IuP8lqv8Aqv8AktwAerkAYpYASnMAMlDU//+x//+O//9r//9I//8l//8A/v4A3NwAubkAlpYAc3MAUFDU//Cx/+KO/9Rr/8ZI/7gl/6oA/6oA3JIAuXoAlmIAc0oAUDLU/+Ox/8eO/6tr/49I/3Ml/1cA/1UA3EkAuT0AljEAcyUAUBnU/9Sx/7GO/45r/2tI/0gl/yUA/gAA3AAAuQAAlgAAcwAAUADj/9TH/7Gr/46P/2tz/0hX/yVV/wBJ3AA9uQAxlgAlcwAZUADw/9Ti/7HU/47G/2u4/0iq/yWq/wCS3AB6uQBilgBKcwAyUAD//9T//7H//47//2v//0j//yX+/gDc3AC5uQCWlgBzcwBQUADy8vLm5uba2trOzs7CwsK2traqqqqenp6SkpKGhoZ6enpubm5iYmJWVlZKSko+Pj4yMjImJiYaGhoODg7/+/CgoKSAgID/AAAA/wD//wAAAP//AP8A//8AAABYWvgoAAAAAXRSTlMAQObYZgAAAAFiS0dEAIgFHUgAAAAJcEhZcwAADsQAAA7EAZUrDhsAABKJSURBVHic7Z3bYtq6Eoa54w3a+7RJ3/+VfKhT4+BFSUpyxcKSfNYBsC3N4P+72gnZqVf4kGak0WizAQAAAAAAAAAAAAAArI2tniT0cwGinPXsQz8XIAqEATdx0LML/VwAAAAAAAAAAAAAbEnS/MIpjUM/CKBPlO3bRdxjsQ39PIA0UT5c+D9moZ8J0OWk2ys6pqEfC9Ak2ut8uZCHfjJAkejQGFIWl6C3aL8uQj8boEfjS5lF9beyI4wBBkptxJIpY1DDAPqo9KiIBt+P1cCD/Bp0SYxTj5qqjkOTwKopzaFKdESqBAakchSxvXjGEAMaCqGEaYVOrs9gyRfURLYB5hL4ipcPPp8IkGYrjDgZX5dxLzavgWLnEOKEOQl0OVhnpHpOwnIvUMgtAdcPIIgBksS50CKXabw9EKBN6hRmh5UY0LK1rsJU5M6fACvCrQOEAR0gDLgJCANu4gRhwC2kzhKpHHsDoMWdVmMdBnRxrvwfsdILOrj2kmT5A7ofAkXhCFEyR/kDWBmuepg9Yl7QAxV34CYKa4VUgRkJ9IltBwNwagCMKMw1VDiXBMaoIcZ88hEDDOihegntcbYaXIfqJmTo3oACcDCg7Q/TDCZtfxhbgThYKZYOVKOJCoBNnSqNQTchoGd71OiCLprACPr0glvpdwLH6ALc4K4BAADYRGm+Ky8U+RaJPzGiT3LJddZrdX84cXfmpeJZ+9KP6qWf/S9fzD+pf8krr+/nD1ohTTZeAsh5K/Ml+KF76Wf1ykv/yy/tL7G85JOU2v5AchjpUsF6i1QK8/VN8xI7YTZv1dvxO/RTNGRaXZgvSithdPMJP2Hi98u78Tf0U9S0vuzzbZqmp6KZnxhvqythdJMSP2HkYVkiVXe1L8esDVrSkr0xtTBf/0YvMRQm+nt5M95JRJVJHeP2v53qv82HRphxpsRQGPmxfgv9FJumxvicjF5QgTDX7YxGmK/vw5c4CiMO5H+M3iX/7Ay+NMZwPUDVCjOalFgKk3yQSK1joy/1GXCuHajFW/1LOymxFEam1q+hn6KwBSoyHLa0FaCMnI20kxJPYSKRWgeOex33aJSMoxjxVj99101KPIXZ/CGQhGT2TGjLOLWWwmyeNZMSU2E2VWodeEvJ1ZlERjEeH2g+lDD/NJMSV2F+h0+tXb2wCnNITB0lzEYzKXEVRoYIISOE2LVj5Gp1Q5haGM2kxFaY+CPwOkfq8oHxTT2NMONJia0wm8/AqbW7YbD4gfDLRXfQCDOelLTCvOj4RUwYkVoH3FLKnSFKyXYlphVmNClphbHg/dnNvDpiiIUpnEkQ35bCHWGGkxJjYUSL1nCptVuHhxBmOClxFiZsteZahBlMSpyFCVutuRph1KSkvtQK86TjmZ4wIrUOVa25khhmU09Kv+SkNC2t/leZtMADX4vIVP4E/LetLaYPbEti+sKoSUkeRpogzLefMtP+etYeYPGBKHkLlFq7r3Z6hHUYQXdSuluYf91w5yXUMPMabkvJudLrvlKZLANhupPSvcL8e+kHw6GMCVitKXyw3Ksiyx9Y1tyN3tJ2UrpXmGc1tLzU4uhOyXkgDVeteXDEtIzv0RgJ860ZFu4U5kkaJwLnp5f+7/DLW7CPsQxijEdiZUEey5h3LMzmRz0p3SnMc+83PgccYsJVa8b2oDbnW92gEWbzoial+4T5N4iiq3QpVKoU7iCktWpXHRtgOSPphKknpfuEqWakX53XqgFL307EA+IgZIg3RuZJR/3otudbDaMVpp6U7hPm+1e9jiN5ChjEyMo2f6l10uZkpTlRyoYDzBun/Fqb+Hby4juypKef3SnoKeQI47VaM3rrRC3qaLVmGFG+7Lrf+MunZYxWmG+ThOnzYzDi+CXxV62Zf/RyMtVLuBzOSur77WwlT2GXZCOapOytZWmFUZPSLML80v1+f4h9QA/Vmtu/woPOdmfd2aOX1zf9Pto34VV+4+OTRNOJIZdhs5/t6YVpJ6WpwvwYxMC+Eam1Ificj0R58FG0/1JzjcbxpOyIs1qX3hJN3QfvPfgB3zFi2Ox94AzCfJtJGPF7gm1AVnio1oyKDzX/9AbvqNHjMiuWZeerQVQV7dT//0Cn3ZpADZu9Od0gTDMpTRNGbCsFbq+5+EHI13f5Zx1HrruzlsNogyt+Uy+9EQplkqZdVneANglTT0qThJHbkCGrYjZqScSyETiR32rm+dDlxqmujaY2ia5/8mNHJJRphs3/+nobhfk2XRjpy6hRkW/240lgNuL6U/hmeJ+zgTJHY5veeqA6kghlmqcZ7sUZhVGT0gRhnn4FD2AEy1VrRp/6T2GPJG+il8POtt5y1W/zg2XYFDW544aIzUutS9+ejEWX2pfkrnV4X1QosUC15uvR8CkcEaUX3OGJc7zyQ5jH+GEeu3yzTLXmIlGHNSLyQ5uzee1n8EzHF5Vaz7vZt1hek5uCB080w6bXUEqGuy/6qS4A4iDknJHBgp9Cw6qOHwIla9KXZzK+zH0QcuG1Wd26sReaYdPzzpb0JdyOo4Y5qzWT/9T7udzuT31x7rvXUCYPteD8QiU9apkvtY78fAr9v3nhtrR+Egp3G+aq1vT2RnoSs8bDsGniiaIv6tqKqX/7ejfOy1Th8T2MitrOAIF2tb77PDit7/8pRsxwbYX3YNTXLJEbt0898P1rDIHrIGVB05TCmBDprpdFNK/D5phnqsIkH+cpI4NxN25ZFi980BcxeOQXVWE2fyaMDAGX7Nu1tAV+OYENT12XTVJLMncQeFNwucEt0LD54DSfwnGlnO8nmHccILDT+YiE2Y0bsMAYF++DDpuPCpnSyd/z5jKBihgenSZH2RMozp5ztYTEsPl4EDv+MdtKEJlhkzzpGPPfnuABs1nWmj3vUrHmrKXMNdYE3I2zMd3iYEUMHNELUzkzCP0IfwqnveEEh03KGIUZnKat3xSSbTgmyEx02KSLRZhOkXgUdjfOTfO+3xa0Bq0W5on4cx3LLu3JxLZJoQwtQ+3GXcM9aXHQIgamiD/YcNxI6uqhZoSvCjrDHz+0cvPC28wLfytBK0zTRaydlHIGu3Ft4cMVI2EcuoiBKQZhVCPmtnU3j7/q1ZuHBIoYmGISxt5Xly7XlSegiOFujMJkxldoc8XYkaKI4X6MWvC9eTy27xbcFOmAIeZxRK5P+H6eWbAUcaOIYSIPKUxnhWWwW5ChiGEiRmHkfRHhrkafSLuG29ktuHM9GHQwCrNlGvQ2jHaJCG+fMsKoRcEzre7S34dGEcMsmIRRV0n4f6BZUcHvJcKt24WwjcqoYBAmPrDNqrvUxwDO7/X/OH+Gfibm6IVRW0lMr0hrqYQ5tsK8Q5jJyIGkW9K7zZvPJeOQV1L9l3xWhQ/irsvtHsJM5myB/3QvDYl2H+9iEQ/CTMfiy4H/YkVtSPwmtgkgzHTMvrCfjzYjQyDMdAy2HHPu8a4AwsyO1KNX07vLtw9hywbCLMDDzD5aIMzsQBhgJipGe0MQBhh5fR9fWA1hgAFZUT8sHIIwQEtd6HocfB/CAA1NKf2odgjCgDH1ueNhhesGwoAx9TEc7RlikzDxnv9OEoS5h/oYjuGUjl6Y6jDGI/xlIcytNMdwTOcA9cJUkn08wP4AhLmRzHmPtF6YpNKMfzkMhLmN5qCFJag1xDBiHuPfZgfC3EB01RligzCRqGlc7uE8AWGuJ7/uDLEpS5rrRsiwQJhrqY+j688QZ+3xEeM6jLgRkntqDWGuo2mPrT1DXIU2jUeiZEoXEv8Ws9lyz+gFCHMN2nPo7asitPnrHjsq6T6YN/SCMFfwR53y058hrkObP87fEz9Aag1hnNRtAfWN0JtOO9e0R/msfpJ3HxUI48DerevGmz9kas067oUwVtoiBl3ocXub9Ff2qTWEsfFqbYRuf1XPgfuWEoQxY+8let91qSn31BrCmLD3Er37BlbRx4FxFyoIo8dexOAscTAjUuvRSQM+QBgt9iKGV2eJg4Wcd2oNYTTYe4lOvC41qmzju6UEYUa0RQzmfQDTq9cgUmu23XohzBB7EcOVJQ5W/uOcWkOYPlvrhajzXJcqUmuuW0oQpkuz0q+9EHW261LFrMa0GTKEaXEUMVhfvYmYcbUmhGkwXddxzau3/lPVb3KXQ1AEwtSo7Ed/Ierc16XyrdaEMDUiFNWXKTguJLsD0Rec5ZbS2oRJsnxf1dzmp9Gi/ptpH2CJ61LZVmuuSph4V1/AIRh0G4v/6vcBFrkule1ByBUJExfnIaVz+W2x61JFyMTwyt71CJOPdKmwt+BY8LpUrgch1yJMVGp9ucw05kBi2etS/1S/mV+15kqEiQ6NILuTuJCmFchkzNLXpYrUmt2W0jqEaXwpWjui3GrM8tel8jwIuQ5h1P1Wh74aUR0Fj5Xwcl2qGOS4VWuuQpiTGl5GL6h79UbprZ/rUkW15n9L/gsLsAZhYpMvjTH9cyI3HWacAseDkGsQpjD6Uifb3d7MNx5mnIJIrY+8tpRWIExsClQEMhVqV9CSWw8zToHhQcgVCJMPlOiTDqMYMcDccphxCvwOQq5AmKNtgJHvWfc66csQM/s+gBGh697XvzYHjy9MbIlgKmQKdWq/8Tb/PoCZN26p9eMLk2nyoC5SqFCfcpFac9pSenxhCvuMVM9J/h6oD7eDkI8vTOnyoRgEMX7hdhDy8YXRr+V2kFlUsDji1R5iUWMlwthClNSadi9PySq1fnhhZExry5NT508sS8qqWvPhhXHrEFoYXtdWQJjwwrCq1oQw4YVhdW3FwwtDP4bZsDoI+fDCbBw7A5vN1rEU7AHxCDyqNVciDOF1GIFIrVlsKT2+MM6V3n3QrQEJn4OQjy+MHEAs5VCi/OFoft0LBZctpccXRoYoJ+PriTPI8QGbas3HF0YGMeZWyrvwMW8Fl2rNFQhTWIPa6EwghKn4y2NLaQXCjKp2e+QkZqQNm2srViCMypP0UYyMYIJVw3ThcW3FGoSRQ4w2UVKHrgkMMFyurViDMPXR6rEx9SF9CgOMCr/dqfVBj6dm9KsQRgW2oyKpRPlizrm9cmW15lmPpzL2VQhTT0rnfXcoafp9kJiQKkRq7fzzQxgPZPWftdiqT3C6q79FKGy46iDkVo+nlpwrEaY15kJZlof2q+XP3F8Pg2sr1iLMJul1XG2htbj65u9Y952sRphOi7LuYEOst3J8pCXwmPUIo2nUuye/TEaPNQlzGWWyopmZ9icaqy/MWJcwgiS9EPoh2LJCYcAUIAxVknwvd03LIiM0eUIYkkR5fxXgQOYaCwhDEN0KwLy379wPhKGHYY2xJLEkDWHIkWl1qaCwyghhqNH4ctylVbAbb9t75AgYA2GIUfvSuyyuvomHgDEQhhaqxnhU06WKMcKfXIIwtDiYRhI18gQv9todDoc/xi+BZ3LzzKOMwaYGaIlskYqclWiXVwG/yDb2hvp/q01gldjv0choRDGADK5GEnKI8fhAgDZyRjLX9NrbCoDV4eqFJVvdUK/6Bd5wpkF08qSqahHhd2AiZ1Ab9qYeRXwqm+2uIgu+9Lxi3A2DCfRvTBtbFAWhcsCV4b5WxdngcWmSoS5CGYwyYTg5k6DQLYVPGl2QuAXDrUNgYToHAY9lWXYKA4nUj64M6sI0vhRqqSjaFjAmIMSFqfuj5N2QpTl+DGP8syUtjHy682EYcqvvY1PUPzJLsvVPkx9nbw/URe2VH8YZkSoSJLGeuC7cVzs5L9pYjsLkS2MMJiXvOD+p4T7KUmZD5YXMtkPf77FCXAOI/Ch76q/aZ2edLuWWBe3WWY+Iq7wh4D0aZ6vLMvry1McTNMhx37z7eAwWwqSOsc1eKgiWQg7tpt28gCWark0sIncIrY7MNrRHx3CrMISjq3VztCSoIY+ZEM7f1k1mXjUNeZAtdg4gAVeI1k1pMkb5EiYTcZd2BVyDXjdqgcx0GD9QIpI6Y9rQlTrrpd7LI9Xug/g++rppGgod8lFDoVDbNRCGMvUYMyZYBQGEIU1y0OpShivPhzDE0RRbB227ml4pDIqoQhGd+q1Xy7DFJixOTK2d5ESndbwst7Mt3IlZFBUxQCHGO9vlmFJtb88DiCNnHPOqIfpKgB6ZYxmoQMwLukT2KUe+jBAGNOytiXXuDIrBypCJtSHsVTumoXM5QInSMojI19DeE3SQQ4w27i0wwIAxqiJnfDRJ+YKcGvSI1Jbovr8aE6tv21b1wCqpb+bp9vtoun2Ev5cHkKMx5lzmWZqm2a6pwzhizQ6MifWFOoamDgBEO60viHeBCU3fVTTqBTaSomvLMYcuwEVyyssL+zx4ZRcAAAAAAAAAAAAAAOCR+R8WLQCc+m9AEAAAAABJRU5ErkJggg==;" parent="mMBgnrupJotZcHhOcbj2-17" vertex="1">
          <mxGeometry x="13.329999999999927" y="45" width="173.33" height="95" as="geometry" />
        </mxCell>
        <mxCell id="mMBgnrupJotZcHhOcbj2-18" value="" style="group" vertex="1" connectable="0" parent="1">
          <mxGeometry x="1420.58" y="1800" width="240" height="160" as="geometry" />
        </mxCell>
        <mxCell id="380feVYEUsmyo0d7AHBr-48" value="&lt;font style=&quot;font-size: 18px&quot;&gt;Citrulline&lt;br&gt;&lt;br&gt;&lt;/font&gt;" style="rounded=1;whiteSpace=wrap;html=1;verticalAlign=top;fillColor=#ffe6cc;strokeColor=#d79b00;" parent="mMBgnrupJotZcHhOcbj2-18" vertex="1">
          <mxGeometry width="240" height="160" as="geometry" />
        </mxCell>
        <mxCell id="380feVYEUsmyo0d7AHBr-47" value="" style="shape=image;imageAspect=0;aspect=fixed;verticalLabelPosition=bottom;verticalAlign=top;image=data:image/png,iVBORw0KGgoAAAANSUhEUgAAA0YAAAG6CAMAAAAbNaZhAAADAFBMVEX///+AAAAAgACAgAAAAICAAIAAgIDAwMDA3MCmyvD/8NT/4rH/1I7/xmv/uEj/qiX/qgDckgC5egCWYgBzSgBQMgD/49T/x7H/q47/j2v/c0j/VyX/VQDcSQC5PQCWMQBzJQBQGQD/1NT/sbH/jo7/a2v/SEj/JSX+AADcAAC5AACWAABzAABQAAD/1OP/scf/jqv/a4//SHP/JVf/AFXcAEm5AD2WADFzACVQABn/1PD/seL/jtT/a8b/SLj/Jar/AKrcAJK5AHqWAGJzAEpQADL/1P//sf//jv//a///SP//Jf/+AP7cANy5ALmWAJZzAHNQAFDw1P/isf/Ujv/Ga/+4SP+qJf+qAP+SANx6ALliAJZKAHMyAFDj1P/Hsf+rjv+Pa/9zSP9XJf9VAP9JANw9ALkxAJYlAHMZAFDU1P+xsf+Ojv9ra/9ISP8lJf8AAP4AANwAALkAAJYAAHMAAFDU4/+xx/+Oq/9rj/9Ic/8lV/8AVf8ASdwAPbkAMZYAJXMAGVDU8P+x4v+O1P9rxv9IuP8lqv8Aqv8AktwAerkAYpYASnMAMlDU//+x//+O//9r//9I//8l//8A/v4A3NwAubkAlpYAc3MAUFDU//Cx/+KO/9Rr/8ZI/7gl/6oA/6oA3JIAuXoAlmIAc0oAUDLU/+Ox/8eO/6tr/49I/3Ml/1cA/1UA3EkAuT0AljEAcyUAUBnU/9Sx/7GO/45r/2tI/0gl/yUA/gAA3AAAuQAAlgAAcwAAUADj/9TH/7Gr/46P/2tz/0hX/yVV/wBJ3AA9uQAxlgAlcwAZUADw/9Ti/7HU/47G/2u4/0iq/yWq/wCS3AB6uQBilgBKcwAyUAD//9T//7H//47//2v//0j//yX+/gDc3AC5uQCWlgBzcwBQUADy8vLm5uba2trOzs7CwsK2traqqqqenp6SkpKGhoZ6enpubm5iYmJWVlZKSko+Pj4yMjImJiYaGhoODg7/+/CgoKSAgID/AAAA/wD//wAAAP//AP8A//8AAABYWvgoAAAAAXRSTlMAQObYZgAAAAFiS0dEAIgFHUgAAAAJcEhZcwAADsQAAA7EAZUrDhsAABgxSURBVHic7Z3JYtu4EgB90x+8uXsyyf//kiRGNqVYkeUlOelZ3BdwbRJokFWnkalxIFMFNBoN8OEBAAAAAAAAAAAAAAAAAAAAAAAAAABgXrZBeDx/cQo3W9dtAfCSw8utwOXTc5M+Hu/8z3itcil6+dj8TvMlgBqH661K6LVIj3/vfDde+36/9K38suWd5ksAFfaXmkR3Nq7bJSDWqCBLATSCGTgYJfri6Lpl40k0+muKyNAIpie36CXcBEHwecoivJPrto0m1cjkABrB5KQWXQ/5ZCg4++5RqtHff+vX0AimZp9mFMo/Dsw/9oZMo7/1bB0awcRskwBuX7uQpB0CF62Sk2tUtwCNYGKODRZlHl3st2kKco3qYR0awbTsGi368ii+drDdpkkoaFQL69AIpuXUNgGKkw9Xuy2aiFijb8awDo1gUrbtopz9nR3FGn38MIV1aASTcmjPxm38TXrHGqWxXTmsQyOYlDim2zVej2dHFhs0GYlGD6awDo1gUq4dubhTcwJCOalGprAOjWBKdl2Vc3FU92mvRZORamQK69AIpiTosmTn7eQo08gQ1qERTEnYmYmL3nC21qDpyDWqh3VGjR5NoBF0E3ZOfc6+rhzlGtXDOpNGLaARtHLqTMSdfU3VFTSqhXVoBFPSLckiNKqGdWgEU7ISjaphHRrBlKxFo0pYZ9Touwk0gm5WMjfKwrp/4lckvGFKwo5aoIeHi69bjsoapWHdR/RCotH//v3va5T671/zCXiwRj7XsG4UE4d1/0X/PV6jx3we9Z1TICGms4phX6sA9+UMyKpGxbButEbfSqkHw2EpsEoiS16arx+q+1/377/8EKmqUTGsG6tR2SI8goRLRwbhpTp5+n27vXlxWFBNo4f/srBupEbxr/zx7fHx8Vs8tq0srgv//PGjD7VNPDlqPGR4Wz3U5Cn6wetPG22TUdfo428a1o3U6HtxBPqWT7VWw9XPPTPzs2tPIYTVuVP4Hm/kO7dl91RQ1+jhnzSsG6fR/8px3Lc887cW0KiJ1tMWkqOBisrskuNU34/Kh3eDRllYN06jfyvv+rG6qA6NmohzdVezEy+m3Uab11ik65OF5o3HpFEa1o3T6FslqfCt9EvWABo1cm5O1h3qg1FEGtn91vw3NWmUhnXjNHr89r00+qARZCRHeBs2uCYWGbaYb3/Fl26Kk99GjZKw7u/IhPfDR3Eu9O1vVl20EtComTBJGlSNSH5ujvfS54qpSn6XZnhmjT5kGpW4z43WVRKERi2kz2ApHTKcPZml6e/2lByhryb5/fNSypSYNUrDugk0umccfoha7B1o1EL66Ijb9TP5I+0OqUQtz63c/tGU/I4yiL8LP2jQKA/rhBpFxUUrK2NAoza2mTS32+V8LrxqP3dYT/J7e4yVLiQPmzT6mEij/9YyGG03GW9ff+HshYbOUxnHm5FLoe/ZmVRRkvxOA8xrYexs0igL62QaRYPaKlaNNubvxu3ZdcMUEpgeRV5KH/y+Gh/QoiD5nba9PCg2apSGdSKNot+xjpAOjYZwqIh0DUvDz1OTKq6T3/m/X44ymjX6EGv0EVm0koK64JLx1WXmL/x87NX87MNsVnQ5VlIL8aMt308mVZwmv9PR8FKdxT1GZykY/59/okuF6rj7S/NCqvHSx/cVWVSEFENPtsEXhsnjPpkEvRmHcmfJ70PyD7/ZnJs9/igPZusBjcRk3b5JFTfJ7/3vZFJkdRdMnKJYx7yoAhrJySYhLyZV7Ce/t6ebA3WTHbDrKgJKQaMp2BtTYimWk9/hW8voOB9RcuHHKjLdddBoGrIFGtfJ79RZ22mNyKLv69qsl4NGE5FNgpwmv7MI0pg5nJE1JboNoNFktH+FbSS/83yG7Xv672qTCzFoNCEbt8nvp2RSdG2ump2Jx5VbhEbT4jD5/TNNczhY6/2+0uWiDDSaFlfJ753LyqMopKs8cWLNYxPIcZH8TrdDOKqDLWxAN+z9AxiD9eR39g862pVhsAiNQIrd5Hf78GeBRzSCWbCX/G7aDmGRj0cD6zrSBGbCUvK7NTUI4D0Wkt9OtkMA2GTu5Pc+/Q08FASWzJzJ7+1J0zFeADMyW/I73Q7xar3yB8A68yS/fzraDgHgiOmT3862Q0DC4XzHfORndCnrM/fll0VaLoGBaZPf7eMb2CB+GoL5YQjRpcywoPyySMslMDJh8jvbDsFxaO5IHipieDQPGs3JVMnvwOF2CMhINDI6gEZzMkXy2+l2CMhJNboarqHRvEiT39l2iNpBqGCZVKObIShAo5mRJb8PjrdDQE6mkWHTKxrNzvjkd3YQqvNHJkFRo0vtGhpZYFzyOxupqPxRQa5RPaxDIyuMSH6zHUIZkUZXc1iHRnYYmvzOBjAmRVqINDqHxrAOjWwxJPnNdgiFxBo9XExhHRrZo2/yO98OQeWPIhKN9qawDo0s0jP5nbyJ7RC6SDR6MIV1aGSVfsnvaFJE5Y8yUo1MYR0aWaY9+f2cjERU/ugj08gQ1qGRdZoz2WyH0EymkSGsQyP7NCW/21MQ4Jhco3pYZ9LocjZwQaPpMCW/d9nPHDYMmiloVAvrTBq1gEYTUR95nl+jH7k7CBXaKWhUC+vQyBG1edDz1215ZzuEXooaVcM6NHJGJfn9fDOVDoMaShpVwjo0ckgp+Y1GyilplIR16UuTRp+BgU80moFC8huNlFPWKAnrPuMXJo36J7z3QcCMWESe/A7RSDcVjZKwLv7+CzQKXuJfdGKIkpAlv9FINxWNSmHdaI2253zG9ELlioQ0+Y1GqqlqVAzrxmq0LVRRft1+PJKQJb/RSDE1jQph3ViNkrHofI570pf5Wr8KkuQ3f0bF1DR6OGZh3UiNDvcX1+hVfKYn8yMhmzc00k1do+01DetGanQpRHJRfMcXQMof/oq6qWuUrrPuRmq0K70tihFnafmaQCPlGDTKwrpxGgXl6TAaTQAaKcekURrWjU0xBOFnfg2NJgCNlGPSqFQ+J9y2t72Zj9mHIaCRcowaJWHdFBrdfz8HcEhBI+WYNdpep9FoG/161l+loJFyzBoVwjpBaeomHtQ4gkMMGimnQaM8rButUVLLcMEiOWiknCaNsrBOqtGR3RJy0Eg5TRplYd1ojbKwkOdYiXlBI900apSGdaM1On1+TY6iMY0abylopJxmjZKwTpjwjtZwOV1NyF2jP64bAc3s7mcpmLMA0aUgG0m25ZdFWi7F9d7Mj2Sg0eq5pxo+u98GLaDR6jkQ14tBozWyLcZ3QdPkC3qDRqsjOF5uxcceoJEcNFod1eTsPVd3ctaaZYBGq+Ozkpq7kmIQg0arI9pEng9HRxLectDIL/abzUZaSxoV0yWPAd6ebsR0ctDIL6aogYyGo9v1GKQ7JdhwJAWN/GKSUuLDrQxbJaSgkV9MU5Ff8uiKRWJ+o5FXTLSxZZ+fhR8S0cm5UN/rFZPtD9t9ns7nc7hBoim4a/TsuhHQG7ZZqgSN/AKNVIJGfoFGKkEjv0AjlaCRX6CRStDIL9BIJWjkF2ikEjTyCzRSCRr5BRqpBI38Ao1UgkZ+gUYqQSO/QCOVvKKRV6CRSu7nWTy5bgT0Bo1Uctdo47oR0Bs0Ugka+QUaqQSN/AKNVIJGfoFGKkEjv0AjlaCRX6CRStDIL9BIJWjkF2ikEjTyCzRSCRr5BRqpBI38Ao1UgkZ+gUYqeUcjr0AjldwPQw9cNwJ6g0Yq4fE2foFGKkEjv0AjlaCRX6CRStDIL9BIJWjkF2ikEjTyCzRSCRr5BRqpBI38Ao1UgkZ+gUYqQSO/QCOVoJFfoJFK0Mgv0EgjWzTyCzTSyP6u0dZ1K6A3aKSRSCPXjYD+oJFG0Mgz0EgjaOQZaKQRNPIMNNIIGnkGGmkEjTwDjTSCRp6BRhpBI89AI42gkWegkUbQyDPQSCNo5BlopBE08gw00ggaeQYaaWTzdVfeXDcC+oNGGrlrdHXdCOgPGmkEjTxjVRqFf4w8u25XDTTyjFVpdH+GnYGL63bVQCPPQCM0AjGr0oigDuZhVRoBzAMaAYhBIwAxaAQgBo0AxKARgBg0AhCzSI2Cz/D8xUt42Dltx+HeinOfS/HLwPjW6BLn4qtmeRoFp2KFwvXo0KTw1rhvqHIpfnk1nn4fXTIbBkpYmkbBuVbrc3Im0lCNbkfTW9FIP8vSaPtiLJoLHTVnsEZGW9BIP4vSaN9Qe3o7u3lW0HCNTIV0aKSfJWm0z7S5hIcgCA7HS/YDJx4N18g0cKKRfhakUWZRmE+GdieXHo3QyPCoSjTSz3I02iYR3UtZmF0yIpnzzvMyRqP65ic00s9yNEqyC4fahVNjuDQ3YzSqtxON9LMYjTZNFmUe2c97D9Toag7r0Eg/i9Ho2mjRw0O8lnSy3KLBGp1DY1iHRvpZikaHtgnQztFwNFSjh4sprEMj/SxFo3OrKKGb2dFgjfamsA6N9LMQjXZtg9HDwza6bP2QkMEaPZjCOjTSz0I0OrTMjO68GCfvczNcI1NYh0b6WYhGcTKueYk11uzTYovujNDIENahkX4WotHVlOIqEEd1tj/oCI0MYR0a6WchGnVacnUxOYqVOJu4NmlUD+sWpdF+KR+kzDI0CjozcefmgWE+CrUJZsrvjDWqhXUL0mh7er/9crsjeR6WpFHb1Cf+Rlu+g6M0qoV1y9EofLt/lPejm20r87H7dbtcL++/fd/pf+j8qoUuvozjNKqGdUvR6Ge2beXanFL1kO3x/d7t3T/YL787iG5JfNKoEtYtQ6NdaXe/9x13ziGe5sZ9xLurjdaToFqjwMSpRaM0NZG8WoJG2z/viT+pTZ533Cn73/HHeT++xf/xunHdpPGo1qjPpbJGSViXzPUWoNHTWx7NpbGd3x13zPZX3ilkPYW/h6Gpnhv1uVTRKAnr4oyI9xoFFXGeFtBxR4TpEBuLk8at7ydPR9o4U9c2cT1G77D88UZrVArrPNdoV+ixExbQcX+xueZDbEI60r49OWzXeOLeW+m6UZ9LVY2KYZ3XGsVprC8upU+w973jzj9BOX0fJiPt5aerhkmImt62/nWrfk9tINCoENb5rNEh7bFr3fPm1eeO+76OHA+x1aXI7MrZw2XmrsEm3khhe/+rQKMkCr3/yF+N8jSWaczxuOPOmm66Ldk49ce7kTb+0jVH2p/RddurfhKNkoOOPv3VKEtjNfXLnW9QSucMqHkMVk4cAxmPwI6IP7jt3kGiUZI2+QrrPNUoTWO1DTbtw5VOdn0Gm9A4I9TPtdWT+CtpvXZQpFEW1nmpUd+pj28dd55kbB9B8xUlr0ba9tMWzk5iOqFGaVjnoUZDpgdeddxP/edz2Ujr0zJzvC+vYXYUfxOtH8Ug1CgN67zTKE9W9VoW2nnTcafryG/9zHiqLyzpZJs3sOVBW0ny2P6HEWqUhHV1jULVq5bDixSqZQ46SXXvv9aVLZrprsR9envPOrAkBDIceZ9Y1LLFfC6kGm3zB80UNQo0r1r+HNZjJ+jvuDMlBlVeGEo4tBH1YflXLwmBrtVPmZxKbP1YoAe5RoWwrqjRZfC31Bq7sQXceQm4zo57tOfjuhVrpJ7n3690d09YvIPZk1lcdHNijfKwrqDRUzK66lu1FAUxmYEKR1pRukBxJW5eqlW4Ydmzk4/Jl267yX/kopVyjbKwrqBR35yrdaSRmdaOeyuMzNRW4j6ZVxsKU/JrdvpOhO0T6mLkGmVhXSnF0GsF0DZT5AlUdtyhPNxUuYWiee37cDPj6K5MoFHaNVQS3uoq8ifKWg/MlVtgovVhdZW42RD7YrhhO9OjyJ11AVNolIR1tXWj57bqSOtMt4aqq7CzYTvEGHRV4naVagVVkU7uZhC76NiFPpeil+YOOH5n/S421+pbZ9qKHj0d97R/YkVbKNIb1vYn3n1mJl1PBw192kxM2FWKmpHG2JONH32qWi0w+fihpBJ3wIDf3LsvCcM+Ztts02TolH1sa+BuiZ9zDIoKKnEVDYp6mCCNJPv3Z4r4XXfcsyVDXVfihhqToe6RLmqImHMa47LjnnNpzukN07o0pwBnFfkzn0vScBqKBWZevnJWiaty+UoP2Wq0zYHawtq8m8LOgdshxuCkEld72aJ7xpUfi7BTcGC/4x6+HWIMDrZQFE+uhQbs3P0MeycI27379r7elitx/djSpQCLs8esVsRGsGUzFrEabNm8Yfq3Pekhi7PmXbW0HpDYmhlbz9VYqsR1l6vxEytbKFxMj7Ol0Bm/4C4S0VYqcRUs+frG7Fsoshjb8rLo7KuGjpZFZ6/Edb2O7SmzFnY6PH1t3hoWhz22nRvmsKrKU1oPmJb9Zqcx9nwdt+Mee74tFEpqfP1kpi0Ufarr52WeFriv1ZxpzNg4v2GeM0P3Ov12iDHMMB6q2E43xw1Ttf/RUyYO9t332GlDJp6dqdkjuNQb5jtTbqEI7axI9WI/Ya5QVa3mlKs7bIeYjMkWQmys2gxhqpUrbQdfTVZrwHaISZmkkEpVjx0zTR2FwtO8Jr1hGs/N9BRxx62tx06Qd9xKe+zpbhjbISZEuIVCb3W9rMZcb62mUAO9N8xzBEGZ7ur67BszOCjT/cCUxd4wzxkZv+jtsRPGBpzqnwKz1BvmOyO2UBgfNqCNMR13njCfsWFSnoenP9gOMT+DV+N8qa7Plk+f+73fl0cbL/aGec6g2hCfqusHFfO4PiVuAIu9YZ7Tu+7Flx47oX/H7VmPPfyGUfljg359sX/V9f3KZnUU1w6i363w74Z5To9xxs/q+u4tFH7Wava5YVqKa9dERxDtb3V9x0irYjvEGBZ7wzynZYLgZ4+d0NZxD83nqaLXDVO8KrFQGtfwRyxWqCJoWBFSWFw7iMYlPN9vmOcYl7uV1moOwlSfoLS4dhCLvWGeUyu+8r3HTqiPtAq3Q4yh8YaxHcIppVLgBVXXZ1+vqOO2d9b47Cz1hnlOIdhZVnV9rs6yajWTZ9Lf1Ulv2O2X60ZB1nG/LqbHTsgCuWX12En3kH2uL3zMPC6P+JSF1+X02AlJIvh1OUPsnbtGb/kNe0MjNdyXJe93xYNazUFEy5Kvy6rVvGv0nN+wCxrp4avjfvWlVnMQm9evr5sfxbU9ib3JbhgaqWL/a0E9dpHwZVlDbOpNcsPQCGA4FW/QCGA4aAQgBo0AxKARgBg0AhCDRgBi0AhADBoBiEEjADFoBCAGjQDEoBGAGDQCEINGAGLQCEAMGgGIQSMAMWgEIAaNAMSgEYAYNAIQg0YAYtAIQAwaAYhBIwAxaAQgBo0AxKARgBg0AhCDRgBi0AhADBoBiEEjADFoBCAGjQDEoBGAGDQCEINGAGLQCEAMGgGIQSMAMWgEIAaNAMSgEYAYNAIQg0YAYtAIQAwaAYhBIwAxaAQgBo0AxKARgBg0AhCDRgBi0AhADBoBiEEjADFoBCAGjQDEoBGAGDQCEINGAGLQCEAMGgGIQSMAMWgEIAaNAMSgEYAYNAIQg0YAYtAIQAwaAYhBIwAxaAQgBo0AxKARgBg0AhCDRgBi0AhADBoBiEEjADFoBCAGjQDEoBGAGDQCEINGAGLQCEAMGgGIQSMAMWgEIAaNAMSgEYAYNAIQ8+tyuRwaXwIAAAAAAAAAAAAAAMC62AZf7Fy3AsBb9sfzLeFy3LhuDYCHHK63MuHWdZMA/GJTlSgSyXWrADxiezJIdI/tmCUB9GR7KZhzPp8LIu1dtw3ADzKLrsfEmt3hjEcAQ0gtKu2LCM54BNCbY6zLSzUxFyZRHgk7gC6C2JZT/cqBfB1AP65NFmUeka4DaCdW5Wy++NKsGABkXNryCLt4OGJ2BNDGPk4vNF2O0wyfNlsE4B2xJ411qPFwdLHZIgDviFeHmq9fiOoAumiP6R4ePttHKwBIFo1aVoY63wCweg6dg01bPhwAHtIMQ9DyjisaAbQTdmYQunIQAKunWxI0AugAjQDEoBGAGDQCEBOiEYCU7oQ360YAHWy6ll+37DgC6CCu4D42v4FiIIBOujZCHDujPoDVc+o4beFKhgGgi0170BYwNQLopv20hTPbjQC6CduSDPFYdbXbIgDviDPa5gEnuXYwXQOAnOSMYcMRW8kR+QxGAJ0kJ+HXktrbpgsAUCU+qq6WrkvO9m5bmwWAlOSo7tu1MAnKnsvScmoQAOSkHn1JE26CIPg8ZU+CPXNEHUA/glsDLLwC9GZ3NlrEuivAEDbXmkQhAR3AQDYvRYcuByQCGEMQHs9fnMINDgEAAAAAAAAAAAAAAAAALJ3/A5Wgw8kL/vJwAAAAAElFTkSuQmCC;" parent="mMBgnrupJotZcHhOcbj2-18" vertex="1">
          <mxGeometry x="21.309999999999945" y="46" width="197.37" height="104" as="geometry" />
        </mxCell>
        <mxCell id="mMBgnrupJotZcHhOcbj2-21" value="" style="group" vertex="1" connectable="0" parent="1">
          <mxGeometry x="1619.84" y="2200" width="280" height="240" as="geometry" />
        </mxCell>
        <mxCell id="380feVYEUsmyo0d7AHBr-53" value="&lt;font style=&quot;font-size: 18px&quot;&gt;Citrullyl-AMP&lt;br&gt;intermediate&lt;br&gt;&lt;br&gt;&lt;/font&gt;" style="rounded=1;whiteSpace=wrap;html=1;verticalAlign=top;" parent="mMBgnrupJotZcHhOcbj2-21" vertex="1">
          <mxGeometry width="280" height="240" as="geometry" />
        </mxCell>
        <mxCell id="380feVYEUsmyo0d7AHBr-55" value="" style="shape=image;imageAspect=0;aspect=fixed;verticalLabelPosition=bottom;verticalAlign=top;image=data:image/png,iVBORw0KGgoAAAANSUhEUgAABSwAAALXCAMAAACwx/6CAAADAFBMVEX///+AAAAAgACAgAAAAICAAIAAgIDAwMDA3MCmyvD/8NT/4rH/1I7/xmv/uEj/qiX/qgDckgC5egCWYgBzSgBQMgD/49T/x7H/q47/j2v/c0j/VyX/VQDcSQC5PQCWMQBzJQBQGQD/1NT/sbH/jo7/a2v/SEj/JSX+AADcAAC5AACWAABzAABQAAD/1OP/scf/jqv/a4//SHP/JVf/AFXcAEm5AD2WADFzACVQABn/1PD/seL/jtT/a8b/SLj/Jar/AKrcAJK5AHqWAGJzAEpQADL/1P//sf//jv//a///SP//Jf/+AP7cANy5ALmWAJZzAHNQAFDw1P/isf/Ujv/Ga/+4SP+qJf+qAP+SANx6ALliAJZKAHMyAFDj1P/Hsf+rjv+Pa/9zSP9XJf9VAP9JANw9ALkxAJYlAHMZAFDU1P+xsf+Ojv9ra/9ISP8lJf8AAP4AANwAALkAAJYAAHMAAFDU4/+xx/+Oq/9rj/9Ic/8lV/8AVf8ASdwAPbkAMZYAJXMAGVDU8P+x4v+O1P9rxv9IuP8lqv8Aqv8AktwAerkAYpYASnMAMlDU//+x//+O//9r//9I//8l//8A/v4A3NwAubkAlpYAc3MAUFDU//Cx/+KO/9Rr/8ZI/7gl/6oA/6oA3JIAuXoAlmIAc0oAUDLU/+Ox/8eO/6tr/49I/3Ml/1cA/1UA3EkAuT0AljEAcyUAUBnU/9Sx/7GO/45r/2tI/0gl/yUA/gAA3AAAuQAAlgAAcwAAUADj/9TH/7Gr/46P/2tz/0hX/yVV/wBJ3AA9uQAxlgAlcwAZUADw/9Ti/7HU/47G/2u4/0iq/yWq/wCS3AB6uQBilgBKcwAyUAD//9T//7H//47//2v//0j//yX+/gDc3AC5uQCWlgBzcwBQUADy8vLm5uba2trOzs7CwsK2traqqqqenp6SkpKGhoZ6enpubm5iYmJWVlZKSko+Pj4yMjImJiYaGhoODg7/+/CgoKSAgID/AAAA/wD//wAAAP//AP8A//8AAABYWvgoAAAAAXRSTlMAQObYZgAAAAFiS0dEAIgFHUgAAAAJcEhZcwAADsQAAA7EAZUrDhsAACAASURBVHic7d3bWttIooBR7niD2fd9mvd/JYND2hDcQGiYK3ZsHSzbkl3yQapSrXUx3wBO2sTmp0oqlW5uAAAAAAAAAACAvC0+w83HfrIAp+lRus/71r/h7Svc3wN/dwAX0qN0X7ctf37x+S6WwPT1ieVzy9iyz7hSLIFk9Wpdy9hyFcsfjlkCUxd+xPKtM5btxzIBsvQilgDHiSVAALEECCCWAAHEEiCAWAIEEEuAAGIJEEAsAQKIJUAAsQQIIJYAAcQSIIBYAgQQS4AAYgkQQCwBAoglQACxBAgglgABxBIggFgCBBBLgABiCRBALAECiCVAALEECCCWAAHEEiCAWAIEEEuAAGIJEEAsAQKIJUAAsQQIIJYAAcQSIIBYAgQQS4AAYgkQQCwBAoglQACxBAgglgABxBIggFgCBBBLgABiCRBALAECiCVAALEECCCWAAHEEiCAWAIEEEuAAGIJEEAsAQKIJUAAsQQIIJYAAcQSIIBYAgQQS4AAYgkQQCwBAoglQACxBAgglgABxBIggFgCBBBLgABiCRBALAECiCVAALEECCCWAAHEEiCAWAIEEEuAAGIJEEAsAQKIJUAAsQQIIJYAAcQSIIBYAgQQS4AAYgkQQCwBAoglQACxBAgglgABxBIggFgCBBBLgABiCRBALAECiCVAALEECCCWAAHEEiCAWAIEEEuAAGIJEEAsAQKIJUAAsQQIIJYAAcQSIIBYAgQQS4AAYgkQQCwBAoglQACxBAgglgABxBIggFgCBBBLgABiCRBALAECiCVAALEECCCWAAHEEiCAWAIEEEuAAGIJEEAsAQKIJUAAsQQIIJYAAcQSIIBYAgQQS4AAYgkQQCwBAoglQACxBAgglgABxBIggFgCBBBLgABiCRBALAECiCVAALEECCCWAAHEEiCAWAIEEEuAAGIJEEAsAQKIJUAAsQQIIJYAAcQSIIBYAgQQS4AAYgkQQCwBAoglQACxBAgglgABxBIggFgCBBBLgABiCRBALAECiCVAALEECCCWAAHEEiCAWAIEEEuAAGIJEEAsAQKIJUAAsQQIIJYAAcQSIIBYAgQQS4AAYjmO+4fF8/KXxYd/Z0iCWI7g7nH1D1x7mo/9hM7021rrl/7d/lLx4b/dj2z9EsRALAd39/S1a5l2Lv/638r/tX3pt/WXdj5s7eqBL0EMxHJoi71UrjzPxn5eZyhi+b+2UaFYMhliOazZsrWVX19vCf97l7H8s+VLYslkiOWgZi91HB8/5vP57WITz3T/wctYtk3ExZLJEMsh1a182vzrzhbJ17KK5X/3J+JiyWSI5ZCeiyq+bP/bzqozPqket6xi+b8/9r4klkyGWA7ooxxW7n3hoTwpPsJzuoQ6lvutE0smQyyHc9fVyrqW+69EEjax3JuIiyWTIZbDeepsZbWg6G3gZ3Qhm1juTcTFkskQy8HcHTwwWVzT8zDsU7qQdSz/bJ2IiyWTIZaDWRzM4Tzho5brWP7xe9tEXCyZDLEczNvhM97FqqK7IZ/RpRSxLGfj2xNxsWQyxHIodweOWK4Up8o/BnxGF1PG8j8tE3GxZDLEcigPR853FzF9HvAZXUwZy5uWibhYMhliOZSnY+vOi3n4cE/ocqpYtkzExZLJEMuhLI+18CnZg5Z1LPcn4mLJZIjlUI6e7S7Olqe4s2Udy/2JeGssf/+txe9iSdzEcihHD0nOk11puYnl3kS8NZYHiCXREsuBFOdvFgceMT/6iFg1Yrk7ERdLJkMsB3I8hZOI5e5EXCyZDLEcSC6x3JmIiyWTIZYDySaW2xPx1lj+1UosiZtYDiSTY5Y31UT8r+IDS4eYDLEcypGrHW9ubo9c4hOv7VhuTcTPiuX//bEacf7Reo9dGJpYDiWLdZZrzYn46bH894/Nkcz921XA4MRyKEev4HlO/3LHUmMifnIsf/tv87zPX233JIdBieVQioHjgX/V9RZuSe6VvhvLxkT81Fj+Z+csuVoyOrEcyu2RLdjujx7UjNZeLDcT8VNjWeT2z99/++33Ygv2P6/4/CM0//z8PvZzYIdYDmYdw5fOLz8me35nP5Y3f1QT8RNjuf7gr/+UH/yV33nyvxPdrW/SxHIwTwdP4My+kj1k2RLLeiJ+Yiz/3Jp5/5vfSR6xjJBYDubwXXYW6c7C22JZXqrz24mxXP3fxoqh3/9XL9zMhFhGSCyHszxw1LI4Ypnkbpatsawm4qfF8t+tP7T/8fSJZYTE8to2x+mLoWXrP+zsZWdgOX86sKd6bNpiWU7E/zotlr//uT2SFEvGJ5bX9fDWOEr53FXLspWNgeXL1890zoa2xrK5Z8bOJ4MWpf+n8bV/TcMZn1he0/1y6wR4eRJnb4Pf+7KVmxn69/WZ83iv5rnbOl7QGsubP86LZdPv2a0dEssIieX1zJ7e1w3cm4h/PTdbM1uUn22c3SnuMf71I85jmLPP963zVO2xLCfil4jl6mqe3896yqkRywiJ5dUsfhbFe/22+dzDVxXG2/KY5Pyx+lRzCeb9P8Xn3mPchOj76htrfFNdsfztUrFcDSz/e+aTToxYRkgsr+RbObX+uZ27uparVUTL5cvmo50zOt/LweVbbDflmRfP+bXxqY5Ybibi9WdOiuX6K1kMLOe3laevr3/qD74d/5MMQCyv4m5Zjgz3Tmrfv3212htCzh7fy6bG9Erc/Sif74/GN9YVy3oiXn/ilFgWV/Oc+8ST8NL+3khyw4AJEssrmH2Wnfun5R+xPkTZ1BrE7uKOpQ749rmnzlj+doFYrj//3zz20RDLqInl5X3/eXgGffe088Pw3HXa+9tr8YBIlhE9VIcGdp5OZyyriXj9cf9YZrWB+o+Xyq9/6Z/1B4d2QWU4Ynlp5TG9g+dmZg9P9Wz8+ePQKe/qLFEEy4jqk06PuwPd9Ybm7QcV/1zfXqf+8Lf1h+2xbP3S7zm1ssEJngiJ5WW1HtNrdz//5ehfOKv/wnGXEdXP43nI57Eemf43v1aKZYzE8qLaj+mdJ4plRIvqGxvyzOy/660ss9z3VywjJJYX1HVM71yjLyO6HeXYabGP5Z85tlIsYySWF9N9TO9s9en1UZYR3Vdn5T8HPStfnNrJaxvLmlhGSCwvpD6mt7zKMb3xlhFVF20OHeqilVmsRW8hlhESy8uoz1pf7ZjeOFPhm7+rizYHvuFFVkuG9ollhMTyEoYJ2eIKZ4+O6Lho8/r+Xe2d8dd/jj9wosQyQmJ5vvuhpsiz8HVJF1HN/XevWx/An7meBi+JZYTE8lyDnny5D1jxfikHL9q8sv9bzcEzbqVYxkgsz/R94GN69TKia//3Rl2vtJqE//evbSM8DWgQy7N8G3CkVxpmJBty0eb1NG9Jsb8pJoxCLM9w9zzsMcTqP3v1dY93I19j+YdYEh+xPFm9X9nwx/SufPb9Ghdt9vKXWBIfsTzVuNcgXnEZ0bUu2uzhtzajPRtYE8vT1KelL39tY5hrLSOqL9oc9tpGiJ5YniKKfdOucQ7myhdtQsJijuV9uVH004HH1LtJv/w4/Jd9rx/YmLg+vLT68fn5+f22OxcjXErTqt6S/VLLiK5/0SYkK+ZYVndfeD8wyvnaODwW+qd+XOPb/fvrkLcfrUftqmN6Edzr4bLLiEa6+hzSEHMsf1bVOjDPbLTt4Gz0bvO44Fh+tZ3kGGm/si6XW0Y02EWbkKaIY7m5xfaBu9s1wvZy6C9r3FKxTyy/vl63/h02+5VFc0zvMuPBsTZig2REHMvlpljdq3OaXTvUr8ZNRvvF8uut8Q8xG2m/ssMucAh16Is22bVcaT86/7D60mP94eP2h00HvsT54o3l3fsmWN33Am1m7cA8vDEL7xvLrVquTxYPvl/ZMecuIxrhok12FK/AR9uXFts/Asvun4gDX+J88caymDiXw8vOQWOzagfm4Y8HY/n22fRc3re57e/9VfAoj+mds4yo3oht2Is22fLV/UYXy0jEG8viUNy8mB9+dj1qawzYPQ9vzMJbYtla2YfNn2kUaDHCfmVBTl1GNOJFmzSUb7W20ollJKKN5bdipFRMfL9+dg16ygHV+27Utt03kxoYy5ub2+pAwKG1S9E4bRnR6DeOpFC9O1teB7GMRLSx/FH+or0t3kNdp3rLH/V/DkXv5uazeFTPWN7Mq1qmcSyv/6qm+dgXbVKpf5fvvxJiGYlYYzmrx4rF//mn43FlLMvqdY0A15l8e+4by5vvX0ceEJnbXuvlo7hok0Idy/0N0sUyErHGsszUfTXE7Ho6ZSxnB+fhxSz8qX8sywOnx64OikiPZUSxXLTJSh3L/R9HsYxErLEs5oer1ejlPLzj0u8yluWizI7qFbPw+QmxrIaW6VwAGLqMKKKLNrnZOlO5+8KJZSQijWV5RuapejJfX+/tP/tVLL8fGgEWs/CbE2JZHgRI5KBlIWQZkY3YYlO8j9f/uzsRF8tIRBrLYiz4td78ptxP4+/WB1axPDQPL06sf54Uy7dGtZNxbBlRhBdtZq94a+69Q1fEMhKRxrL4af+5/v/lKPO19YFVLA/Nw4va3p8Uy/IEc2K3JT28jMhGbBFavyLzspbbw32xjEScsSz30PixeTard1LbI+tYHpiH/yyDmE8sDy0jqjfeSOnQwvSVb/HnlrebWEYizlgut/L4uJXObXUsu+fhxW/rx9Ni+fPAfztu7Wdw6i3dYrxoM2flG3629x4Vy2hEGctyD41q4l3ugtF6iqeOZfc8vDg9fH9SLMv3bvflljHbXxs0zD3HOUE1OmiZiItlJKKMZbn5ZD1KXO583LCJZdc8fFbNwk+JZfnWTWjpUNPdzjKi+sSPaxujU8WyZSIulpGIMpavO90rO9h2imcTy655+EP96RNiWf6RlmvQ0tBcRmQjtpjVsdyfiItlJGKM5bx4u2yucKz23G1ZCbOJZRm2vfA91+E9/XLH9jPxSahHk1e6dS6XUcdyfyLeFsuvZZsvsbymGGNZ/lh/3/tMy9ugEcuHnfFooRhwrsPbO5Z3aW2k0a5aVFlE88XByjhtYrk3EW+NZTexvJYIY1nOp5vnc8qxZstWaY1Yts/Di8HhekV731jeV1eGd24Ql4ZiGdEqlvv3XyMSjVjuTsTFMhIRxrKc+26t1imztX97kUYs2+fhy014+8Xy/qm+r0XKA8u1h7efL2+vNmKLWCOWuxNxsYxEhLEsz0NsXV6yaEaxqfn5tnl4Mdws3j+dsXy93fHwuaxGlauWTqAx762vM9FoxnJnIi6WkYgvlvdtXayOHu5NI5sPbpuHf2/8sc5YHvY+hcN8O984sdmKZTkRLz9si+XLvM2LWF5TfLEs99DYmXEvO35rbpW1OA+0Nale765THv48LZbvk2iMWEZuK5blRPyteN+et3Ro9iuiV3i+OYovluVSl51zOdUint1TPFuxvN17TDHYLOczJ8XydQrjSrGM3nYsy/dqMWI4I5azRXHR68vHBA4ljS66WJYHHndvI1EttdzdK20rlmVoG/PwooblBSsnxPJ9KqsSxTJyO7FsTsRPj+VD463s1T9bdLEs59t7ByfLXS13V/Fsx3JvHt6chfeP5dtiIqkUy+jtxLI5ET85lg9b72bXuJ4rtlje7S+yLFR3s92p6HYsd+fhxRYc1SKkHrF8f1l+3k6mlDdiGb3dWDYm4qfGslyd/FJe2TP2/VrTF1ssF4fHentrIrdjuTsPX2zV8ZQt2qbCD0vk9mJZ7rU1Pz2W68OV67W1s0X3nyFYbLFsLG/ssH1qbyeWO/Pw9VKKn9VHYkm09t/bH8Vbe3ZqLNfTrGru/eANcL7IYjk/2sqdfXh3Yrk9D7/f/gNiSbRaBgLF7Pnx1Fg+bT1s9eb/uPizzktksay2xjlg+3DmTizLW1CU8/Bii/X6UiCxJFotsawm4ifGcrn1Xl98TeCy3ZHFFctZfTn2AVsv+W4sn5r1e9n+mlgSrZZYVhPxx9NieXP38LS9z5tYnieuWJZLz3++tCpLurW55G4si9veFvPwYha+WZkplkSrLZbNy8DP3fx3VVyLh84TVyz/Kd4Y+5sLrZUXQm69pXZj2ZyHF4/ffB9iSbRaY3l3sViuF7lPaS3cGKKKZbWWsu1+to0vN+9PshfLxjz8bedLYkm0WmNZTsTPj+V6iw2z8DNFFcvPI+0qB57NUzx7sSzn4fdVWxv3Zcw4lvdiGbn2WG4m4udspPGx/vzulcL0FVUsyztd/9319Wo3jcavyL1Yln/J4/4sXCzHfhZ064hlPRE/OZbVajzjyrPFFMuH/YHjtupkeaON+7Gs5+Fvux0US6LVEct6In5uLF+c3TlbTLHs2rNyo1qGuXnG+7Esj2ze31cjzJpYEq2uWO7/VPSMZX0B8ZttLc8UUSyrceOBX4HVlGLzftiPZXU+vJiFN88ViSXR6ozl3ZmxfFjczj+ej/1kESCiWJa/Ag/eSrG8dHxzm8eWWBaV/GdvFi6WYz8LunXGspyIn7l06O5ld+hAbxHFsgzhj0OPqeYU9TnullgW8++W+/HkHsuxnwQHrO+h0z5OWH9p8+N4v/1h04EvzVY/6U6InyWeWFZT7G+HHlTduKzeSaglltVJ9a/dG42LJfmaewucK55Y/mjr3p5q3Vm1B3DbH6qu9Nm9OYVYkrFR7289CdHEsjq983n4YQ87GWyLZXWlz+6KTbEkL1sTq9U4wwnxc0QTy2rB+bH/7M/tx7UOR6sdhHdWbIol+Zh9PG//XIjluaKJ5T+B3SpvXFadB2qN5WP5mJ3zgmJJPvYWQKw+djr8HLHEspo6H70oq3pgucKoNZYdNzcTSzKyeskbp78fvAXOFUssy5My78d/9b1slbA1luVjdq+bFEsy8rQ1tLzbaSf9xRJLrkosE3P7y5nbTxZr8ebND8zCzyKWWbgVy7TsHnA8RXHo/vmh2qPNxkNnEsssiGViLhHLWXXEqmQSfiaxzIJYJuYSsdypZcfNWggmllkQy8RcJJaN/dm+lpZYni2WWH7/jF3SB3xWsXwf+0kQ7kKx/PXKL5bL5dOHoc8FxBLL56/YHbloPW63qX8DuVm94wQuMmIZKunWiGViVu84sYyMWIZKujVimZjVO04sIyOWoZJujVgmZvWOE8vIxBJLJ3iuSiwTI5YRiiWWXJVYJkYsIySWWRDLxIhlhMQyC2KZGLGMkFhmQSwTI5YREsssiGVixDJCYpmFv8UyLWIZIbHMglgmRiwjJJZZEMvEiGWExDILq1i+jv0kCCeWERLLLKxiOf3bsk2IWEZILLMglokRywiJZRbEMjFiGSGxzIJYJkYsIySWWRDLxIhlhMQyC2KZGLGMkFhmQSwTI5YREsssiGVixDJCYpkFsUyMWEZILLMglokRywiJZRYWYpkWsYyQWGbhUyzTIpYREsssiGVixDJCYpmFVSyXYz8JwollhMQyC6tYPo/9JAgnlhESyyyIZWLEMkJimQWxTIxYRkgssyCWiRHLCIllFsQyMWIZIbHMglgmRiwjJJZZEMvEiGWExDILYpkYsYyQWGZBLBMjlhESyyyIZWLEMkJimQWxTIxYRkgss/AklmkRywiJZRaexTItYhkhsczCKpZPYz8JwollhMQyC6tYfo79JAgnlhESyyyIZWLEMkJimQWxTIxYRkgssyCWiRHLCIllFsQyMWIZIbHMglgmRiwjJJZZEMvEiGWExDILYpkYsYyQWGZBLBMjlhESyyyIZWLEMkJimQWxTIxYRkgssyCWiRHLCIllFpZimRaxjJBYZmH1Mi/GfhKEE8sIiWUWVi/z32M/CcKJZYTEMgtimZicYjn/bBfd9y+WWRDLxOQUy7+/2u13aWRimQWxTIxYiiXjEMvE5BRL03BiIpaJySmWyRBLiI9YRkgsIT5iGSGxhPiIZYTEEuIjlhESS4iPWEZILCE+YhkhsYT4TDGWd7eLp+Uvj4v52E/lNGKZktVbbfkQ8qX1h0+tj3xYv2Gv8vy4lMnFcvbx0rw657n9XRw3sUzJ+n3WvtXazpeKt+RH2yMXq68sr/MEuZCJxXK22LuY8S29XIplSvrG8uuu5ZFimYBpxfK29drvl9S+QbFMSe9YtjVRLBMwqVg+trbyl8QGl2KZkt6xbHs7imUCphTLpzqOT4v5L4vnRGsplinpH8uv2d4jxTIBE4pl1cplozMPbynWUixTckIsn/ceKZYJmE4sP8o34m37p1NaRSSWKTkhlvuvrlgmYDKxvC/ehS97M5z7zqlPtMQyJafEcu/dKJYJmEwsXzpaWdcyoRW/YpmSnrF8a52Ii2UCphLLh85W3tzMi1q2LW+Lk1impGcsb1sn4mKZgKnE8u3Qgcni1E/7dWYxEsuU9Izl/LZtIi6WCZhILOcHczhL7KilWKakbyxvnlsm4mKZgInE8unQwLJarZ7M8iGxTEnvWM5aJuJimYCJxHI9C3/r/PJ960H1aIllSnrH8qZlIi6WCZhGLO/Wb74D57uLQ5rDPaHziGVK+seyZSIulgmYRiwf9uc124p5eCrfqFim5IRY7k/ExTIBKTWk2+JYCx+SOmgplilZv7Xelm26Yrk/EZ9WLG+TOZfayzRiuTw2y54f+PUfH7FMydcRbbHcm4hPKZa3ry9v38d+Elcwe5/ET+DRWBbv01RWWoplSk6K5e5EfDqxvP/1w/jrDfyS0mYMQb6//Xx9fXtPZcTV6e3oW+0rpTejWKbkpFjuTsSnEsvZ52r4tb72+Mek5uLz+m41Cd56YcvxFIolV3JaLHcm4hOJ5fef6++qCEv6g7Da7EfzFf0n6R9DsWQ067fW07zNoViWE/Hyw0nE8ls5+np//DmNQVhl8V5Wcll+g08Jj5rFktHsFPHAl7ZiWU7E34ofuwnE8q4syWr+XczGkx+EFaodxFfpr34f/Ex31OyYJaM5NZblRLy4lCL5WM4et/N4N4VB2Mr9P19bBxXKIw1frweWdUdt/cJ0X+1YzXlS2dJSLFNyciybE/HUY/m9MfoqTWAQ9us1qm5WszldVY+al+ls+thU/I4+8ADrLLmWk2PZnIinHct5fbByaxi5SH0QVn8H2wuh7qtR82eKo+ajV/B87L5PoyaWKTk9lo2JeMqxrE8V/9gdas2ekh6E3b6Ww+W9JfbVV34muPi+GDh+dD+gGEyn8oqJZUrOiOVdPRFPOJbVqeLWZegJD8Lqp/7Y9tTrMee3wZ/YmYqjPwe2YCt+QQz3hM4jlik5I5bljOfXRDzZWFanijvHWEcfEKejRya7x9OxK+Yznb+8buvpThLEMiXnxLK8UPcx1VjWp4oPDRwPDj0j9T1g4Fh/861Dz3g9HHjH3lRvyWRKI5YpOSuW1UQ8yViGHpJMbhBWn8g/MhquV2AmNWo+fJedeVqzcLFMylmxrCbijwnGssdhu6QGYXc9jrMuUlx8X5wPbz9qOSv6n86lV2KZkvNieVNd95JaLOsTwmEL8r6nMgirV9cvg37Y7upRc+y/Br7Vw/pyaNl6QvwpsYGlWCblzFjedcTyPupVwf0v0Nm9xCdSVdTD14bWi0xjf8F+1B8U05m24WO5Bj+hhbFimZIzY1m9c3djuYx4LffmVHGfN2QCg7D5SVcdtVy+FJn1b6r3zVuv/FW3e8p7VpwoT+fWjjdimZZzY7mZiDdj+dC7RcP5fuqmQt/iHoSdXPPTfnkMp6z55v1VTsR3FihU56teov1l1kIsU3J2LOuJeCOWs+KIYIxruc+adtadjXDUfM7Jmpj3DdlcjLr53H39nnsoD2Xef7xVn0tkzUJBLFNydizriXhzZBm6emVo586lox2EPZw5l45135C79nVb93Uaf70U1b31inFlUq0Uy6ScH8tqIr59NjxkXfTQLnGWJspB2O5GbKeoN2+L6AXrviJg1uhj03NEr0oIsUzJBWJ51xbLCPcCu9D6n56rjq7vQqvm49s35OC1pg8tqYzx8MhhYpmSC8SynIjvrbO8O7iXw9AuuLI8rm0o2jdiO0Vc+4Ycuxh1tmjMxdf/ANGezu8mlilZ322nfSix86X1h+3v2/WXWl7d7l3ChnbZaxYjGoRd9p84ns3b6hfs0D/x7WN918rlIsm6iCW1yw17znsa1bGvS40Fg/bguL7LjwUj2TckfPB+1/07PAFiyUbLnQ0Gd3uNfdYi2LztKgPcGPYNqQe4f4/2FAYiljRd4lTtWf/9ax2JG3sQdq0FB2PvG3If44KDKxFLtp27CPAc1zy8OOog7JpLWUd9wWJdynoVYsmu0fYCu/JdxzrudXZ9V17uOd6+Icnfq7cfsWRPfSXGoFOrAa5LGWUbip4bsZ1inH1DIr/8/vLEkhanbYlzjmEuthlhENZ/I7ZTDL95W/WCRbyx06WJJa2G+Rmv1Me+rh6xgX/Gh4vYsPuGJLJl6GWJJe2GPHZ/8kZspxhw9jjo9HjQFyz6bTWvQSzpMtQ2FINPIYc6LzH0mbLBX7AoLo0djljSbYjN28Y4ObFZonTFd/kYS3q+DbBvSAwL4cchlhxy7c3b6mNfAy8Wv/pa6rEWi19935CxV/ePSCw56LrbUIx4N+yrbkMx4uhrmBds/M07RiCWHHF/tc3bRr5U73qDsHFHX9fbvC2SHUnGIpYcdZ3N24L29bqqKz2D8bdOu874r95mZfy97sYhlgS4wlDp4huxneIKY9s4NuW9xgsW1S7KYxBLQlz6INz4o6/ShY+aRrPT8NVesMlvxNZNLAlzyc3botrX65Ln42O6kdj9BVdDRvWCjUYsCXWphYODrHLs4WIrPWO7Re2lrrPJayO2bmJJsMtcEBzhvl4XuYYowvvuXvYFS+92jBcmlvRw/iAsttFX6exBWKSjr8u9YNlsxNZNLOnlvM3b4t3X68x9j+LdWeK82N09x/qCjUAs6en0aXTc+3rVIe8/jR5+N8k+pvqCDU4s6evUGWe8o6/SsWZcoAAACFlJREFUiYcIxtmnvIfJvmADE0v6O+VcxmZfrys+sXP9fcIgrF56FPFPzHkvWKS/AwYnlpyi76LyVPb16r2ofMStQHqZ6gs2JLHkNL2ufktoX69elyuOfdfuPqb6gg1HLDlR+CAsldFXKXgQltjoq/8LNvrFqHERS04WNq5KcF+vsE0+otgKpJewlyLBF2wYYskZjo8Z09zXqx4zPnc+62i2Aukl5AWLZCuQ+IglZzlycCvZfb2OjJrj2IjtFFN9wQYglpzn0IG7pPf1OjAIS3r0FfSCRbm6fmxiybm6rl+JcGeJXmZdKygj3Aqkl64lr6m/YNcmlpyv7VKPSHeW6KX12pxItwLpZaov2HWJJRewfxFx6qOv0t6oeSKjr+4XLPuN2LqJJRexvZ/QhPb1qiOyGoSduTdRTCb7gl2PWHIhm+nptPb1agRyWjtLLL6qQNYv2PsUXrCrEUsupp56T2X0VaoGYa/TGn3dflVeq//zNvZzippYcjnlkprX6Yy+St9eN02ZxHB5ZRXL980L9lMsjxBLLmm9WPs1jZ0lelkt1l41ZUI7S6xi+bZ5wR7E8gix5LJuX3/97KWxs0Qvv0bNr6lsBRLmtqhj9YLdiuURYsmlLZ6nM/pquv8xreFyXcfiBRPLY8QS8rRTR7E8RiwhT2LZk1hCnsSyJ7GEPIllT2IJeRLLnsQS8iSWPYkl5EksexJLyJNY9iSWkCex7EksIU9i2ZNYQp7EsiexhDyJZU9iCXkSy57EEvIklj2JJeRJLHsSS8iTWPYklpAnsexJLCFPYtmTWEKexLInsYQ8iWVPYgl5EsuexBLyJJY9iSXkSSx7EkvIk1j2JJaQJ7HsSSwhT2LZk1hCnsSyJ7GEPIllT2IJeRLLnsQS8iSWPYkl5EksexJLyJNY9iSWkCex7EksIU9i2ZNYQp7EsiexhDyJZU9iCXkSy57EEvIklj2JJeRJLHsSS8iTWPYklpAnsexJLCFPYtmTWEKexLInsYQ8iWVPYgl5EsuexBLyJJY9iSXkSSx7EkvIk1j2JJaQJ7HsSSwhT2LZk1hCnsSyJ7GEPIllT2IJeRLLnsQS8iSWPYkl5EksexJLyJNY9iSWkCex7EksIU9i2ZNYQp7EsiexhDyJZU9iCXkSy57EEvIklj2JJeRJLHsSS8iTWPYklpAnsexJLCFPYtmTWEKexLInsYQ8iWVPYgl5EsuexBLyJJY9iSXkSSx7EkvIk1j2JJaQJ7HsSSwhT2LZk1hCnsSyJ7GEPIllT2IJeRLLnsQS8iSWPYkl5EksexJLyJNY9iSWkCex7EksIU9i2ZNYQp7EsiexhDyJZU9iCXkSy57EEvIklj2JJeRJLHsSS8iTWPYklpAnsexJLCFPYtmTWEKexLInsYQ8iWVPYgl5EsuexBLyNH95eVl2fsgesQQIIJYAAcQSIIBYAgQQS4AAYgkQQCwBAoglZO1+/svYTyIJYgm5mj08r37U154/7sZ+OrETS8jT3dPXtqUB5kFiCTma7aZynUs/9QeIJWRo3pLKlY+xn1jExBLy89AcTi6XL5uPnsZ+avESS8hO3crnh1nxmfmjWh4jlpCb2yqVzRPgs4VaHiaWkJm7soq7P/j35Wz8YZRnFT+xhMwsiybu/4TPylrORnhSCRBLyMtDVyvrWpqItxJLyEtx0U77AvT7IqQu5mkjlpCV4uzOc8dXi5Pij4M+o1SIJWTluXMSvjIrhpaDPqNUiCVkZR3Dl84vP7WeKOdGLCEv8yNXNd6ah3cRS8jJ4uAs/OboyDNjYgk5WR47Jnn0AdkSS8jJ27GB4+LAyqK8iSXkZJ3C5YEHPIhlB7GEnBw9f1OcAVoM9oTSIZaQkeMpFMsuYgkZEcvTiSVkRCxPJ5aQEbE8nVhCTgJj6cZl+8QScnJ06dCHpUMdxBJy8nJsUfqjHS07iCXkpNhV6MCNI1zu2EUsIScfR7Zgmx2dp2dLLCEnxa0du++y8+D8ThexhKy8HJ6HLx2y7CKWkJWPg4uH5raz7CSWkJXyLjsdY8di3Pkw7FNKhFhCXhYHBo/F194GfkaJEEvISzm0bDvHU5zdMbBsJ5aQmduylnsnecpWWjfUTiwhN8XC9K+X7Z/xWflpp8I7iCXkZvZSZvFp08XZovycn/wuYgnZqWv59fL4MZ/PbxfL6hMOWHYSS8hPPeXe4+e+k1hCjj5aU/l8YIeN7IklZKllcLm0i+UhYgmZulu8NVP55Ef+MLGEfN09LJ6Xvyw+/LwfJZYAAcQSIIBYAgQQS4AAYgkQQCwBAoglQACxBAgglgABxBIggFgCBBBLgABiCRBALAECiCVAALEECCCWAAHEEiCAWAIEEEuAAGIJEEAsAQKIJUAAsQQIIJYAAcQSIIBYAgQQS4AAYgkQQCwBAoglQACxBAgglgABxBIggFgCBBBLgABiCRBALAECiCVAALEECCCWAAHEEiCAWAIEEEuAAGIJEEAsAQKIJUAAsQQIIJYAAcQSIIBYAgQQS4AAYgkQQCwBAoglQACxBAgglgABxBIggFgCBBBLgABiCRBALAECiCVAALEECCCWAAHEEiCAWAIEEEuAAGIJEEAsAQKIJUAAsQQIIJYAAcQSIIBYAgQQS4AAYgkQQCwBAoglQACxBAgglgABxBIggFgCBBBLgABiCRBALAECiCVAALEECCCWAAHEEiCAWAIEEEuAAGIJEEAsAQKIJUAAsQQIIJYAAbpj+f021N0IzxvgAoI7d/vaGctwf4/wHQJcQK/WtcRy+fIulsD09Unl68u85W/oM7YUSyBRfWK5P65cWb6Eexj4uwO4kB6lax1XAgAAAAAAAAAAAABAX/8PFxFJ0H6QpewAAAAASUVORK5CYII=;" parent="mMBgnrupJotZcHhOcbj2-21" vertex="1">
          <mxGeometry x="3.6399999999998727" y="70" width="272.73" height="150" as="geometry" />
        </mxCell>
        <mxCell id="mMBgnrupJotZcHhOcbj2-23" value="" style="group" vertex="1" connectable="0" parent="1">
          <mxGeometry x="1680" y="2920" width="200" height="160" as="geometry" />
        </mxCell>
        <mxCell id="380feVYEUsmyo0d7AHBr-71" value="&lt;font style=&quot;font-size: 18px&quot;&gt;Malate&lt;br&gt;&lt;br&gt;&lt;/font&gt;" style="rounded=1;whiteSpace=wrap;html=1;verticalAlign=top;" parent="mMBgnrupJotZcHhOcbj2-23" vertex="1">
          <mxGeometry width="200" height="160" as="geometry" />
        </mxCell>
        <mxCell id="380feVYEUsmyo0d7AHBr-72" value="" style="shape=image;imageAspect=0;aspect=fixed;verticalLabelPosition=bottom;verticalAlign=top;image=data:image/png,iVBORw0KGgoAAAANSUhEUgAAAoMAAAF7CAMAAACemXFVAAADAFBMVEX///+AAAAAgACAgAAAAICAAIAAgIDAwMDA3MCmyvD/8NT/4rH/1I7/xmv/uEj/qiX/qgDckgC5egCWYgBzSgBQMgD/49T/x7H/q47/j2v/c0j/VyX/VQDcSQC5PQCWMQBzJQBQGQD/1NT/sbH/jo7/a2v/SEj/JSX+AADcAAC5AACWAABzAABQAAD/1OP/scf/jqv/a4//SHP/JVf/AFXcAEm5AD2WADFzACVQABn/1PD/seL/jtT/a8b/SLj/Jar/AKrcAJK5AHqWAGJzAEpQADL/1P//sf//jv//a///SP//Jf/+AP7cANy5ALmWAJZzAHNQAFDw1P/isf/Ujv/Ga/+4SP+qJf+qAP+SANx6ALliAJZKAHMyAFDj1P/Hsf+rjv+Pa/9zSP9XJf9VAP9JANw9ALkxAJYlAHMZAFDU1P+xsf+Ojv9ra/9ISP8lJf8AAP4AANwAALkAAJYAAHMAAFDU4/+xx/+Oq/9rj/9Ic/8lV/8AVf8ASdwAPbkAMZYAJXMAGVDU8P+x4v+O1P9rxv9IuP8lqv8Aqv8AktwAerkAYpYASnMAMlDU//+x//+O//9r//9I//8l//8A/v4A3NwAubkAlpYAc3MAUFDU//Cx/+KO/9Rr/8ZI/7gl/6oA/6oA3JIAuXoAlmIAc0oAUDLU/+Ox/8eO/6tr/49I/3Ml/1cA/1UA3EkAuT0AljEAcyUAUBnU/9Sx/7GO/45r/2tI/0gl/yUA/gAA3AAAuQAAlgAAcwAAUADj/9TH/7Gr/46P/2tz/0hX/yVV/wBJ3AA9uQAxlgAlcwAZUADw/9Ti/7HU/47G/2u4/0iq/yWq/wCS3AB6uQBilgBKcwAyUAD//9T//7H//47//2v//0j//yX+/gDc3AC5uQCWlgBzcwBQUADy8vLm5uba2trOzs7CwsK2traqqqqenp6SkpKGhoZ6enpubm5iYmJWVlZKSko+Pj4yMjImJiYaGhoODg7/+/CgoKSAgID/AAAA/wD//wAAAP//AP8A//8AAABYWvgoAAAAAXRSTlMAQObYZgAAAAFiS0dEAIgFHUgAAAAJcEhZcwAADsQAAA7EAZUrDhsAABB8SURBVHic7d3bkpu6FoXh3Pn9X5FD6GACy013OXdetiVOtkA+AFOT/r+qvWul7aREMzyRhJB//QIAAAAAAAAAAAAAAEAnyfKyOsuPiXRTZhWl+f5yXEW+i6Tbggnxvj71FKl0g+aSlf3jOhwdMcwuCa3cf3v8JcwrLk63qk2kMKvvDiy/S2F+/bnz70+8hFnldyfqolR/5UoOzgPb3byNDIqLKueZOp1q5f3CbOS4Tvvh+8igtKgtFvX+mKbpLu8yqTqEXQTLfHc+sGPRXpiLwRvJoLA2gkUXuCjfQAibCNZZ16dIK1cIyaAwO2w8DNMWNYMUtX3CxB5APvxx6vgxGZR1dF2cLmwZ0TovEdUjhbyp+71hPxkUFY9FsA3h7SBSif1oX8KG8ND9hAyKKkYj2Pz+65VbNI94ojsbmdey9gdkUFI82emrb86VIoWrL9jIbj5cZFBSPpmyVG2PMJou4dWwR0gGJdXTY1/Tc4rXbNE8sqky+OvXbtgDIYOC4one4IUZNB9XbNFMCs+H5zSIFhkUlHlGviaj5Yotmkl9M/K9VQxGLGRQUDF9KW4uxus1aCbms7Mff8NuUODJoKDK9xv2XdMClfr6EMNOCBkU5B335sMBpBb+Zg+O3Ly9cqnJ4MK83T1TUNTNEOaD7p5L1Z+7cS+f7FmjzT+UuSKNzmD8ajI49Y4gFd7kDHohZFCOP2FKM+jt55LBUJBBgwzKIYOGHcK4+K/qeAv9QYO5GUHXX/D4rbpmLlfdEkKTnKlpzevk+2Hw9ol/afYGonX9BW9wfvDobfbgyMmgIG+/qdR5Crz3SZJBH4MMCvLO5V5vEyhcSX09ronJd7NYo5l7J4OCdp56kXg7jIHyrbUoBx1GMijp1O+a39vrHJI0HcLRhkfD4yaDkorJzrt9+GfVFs0jnh5t5cP6TwYlTT8xkmu9FN89MTJkP1vt3A0ZFFVN9AiTm1Oliflw1e7lueXNZ4sMirJbX7iGxvZZcJVlsPlwOYfG2e1niwzKKsdC2OyJobIMtkXc8QmyEeyt9CeDsmzf6G6darN9pMKH6gy7GKa6vRzbn/cv02RQWLMRVdkveO3mb0qvxBfNNm+DT1e7+Vu/8JNBae1WkUWzbX26b3408Xhk8NqNFevmewbirN3dczB1SAbF9bfMraqqt4dzoXb3wYv+HseH84H1DnM4aUMG5SX3m9dfqVs3eGvvPq6b/T7JYAi6vX/7JVHxPsCN1LUx/91HiwwG4e4LSkp1iwbdspsU1vdfT0IGQxFl3bb15VHprKBL0n3PwGHvXMYQXx8dcf7liZewjGSjv/Hoclwb+lwBAAAAAAAAs/pzGiySufmjfps7oA0ig5BGBiGNDEIaGYQ0MghpZBDSyCCkkUFII4OQRgYhjQxCGhmENDIIaWQQ0sggpJFBSCODkEYGIY0MQhoZhDQyCGlkENLIIKSRQUgjg5BGBiGNDEIaGYQ0MghpZBDSyCCkkUFII4OQRgYhjQxCGhmENDIIaWQQ0sggpJFBSCODkEYGIY0MQhoZhDQyCGlkENLIIKSRQUgjg5BGBiGNDEIaGYQ0MghpZBDSyCCkkUFII4OQRgYhjQxCGhmENDIIaWRwQ/78c8ql2+VBBjfkcHKqpdvlQQY3hAwGaXMHNIVrcZA2d0AbRAYhjQxCGhmENDIIaWQQ0sggpJFBhZIsL6uz/JhIN2UOZFCbeF/3b4IUqXSD3kYGdYmLu1txlfYUkkFVcucN4TKSbtdbyKAiUeVelHCqVfcLyaAeUbsupt4f0zTd5V0mNYeQDKrRRrDoAhflGwghGVSjNGE7DNMWNYMUvX1CMqjF0RbBuxcyOzwWaNM8yKAS8VgE2xDuVm/TTMigEsVoBJsZm9CX7I8igzrEk50+c+ckW7dJsyGDOuSTKUtV9wjJoA719NjXTNvEa7ZoPmRQhXiiN3hhBs3HFVs0IzKoQuYZ+ZqMliu2aEZkUIXCNw1tLsbrNWhOZFCFyhexQnGHsD1HcTr441Zs5IC8414zbta5ktCeo2j//VUlmzllnY0ckLe7lyqeITTn6OM89P86fRfRRk5ZIyq+P+vD9+G3dEPeZIYcU/vGpN53hOsSus//Lu3/uvzv76YymF+O6dpbr3T2lBr+hGnPoPHV/MdWMvj70xzO9f+/93rXNv2YDB7+biuDsV1j/P3PPoZWf0g36XWbzuDOVr+v8wlK/rMh/Ke5ZBjRv29zLJeLcG7/+6Bz2Phr0/3BpK0VJnXZBkrG1Yf9aNnBSNTU+L9au4XX1o/fqjsXk+s71C0hPA8au1ph6S8ZZ+mhK+5WU+O/FVaKC3OeJt6gc37wj60Vn4MPT6y+ZDRH8F0MuhQfTY1XOYfmvU9S+t4QoN9NrbgrDE0V0Vkyon1T3G8fNGtf+U/hI2imzE00/PoJU7WSuh00Fq7hh+KS0TT909Uz6mq8ukGX6e6Nr81KvB3GwLSDxrGK4H1DoLy9vvHqHzrTSx99ea9sSPJImWsK5clZKMMUPVLmPpy94PAVk2OO6KSqO/hod09dycgfq93dzKGqGj/9xEiu6VL8TJdIVcnIHu/DxjezojpUEz1C0xtUsnrwuem/bgIx9JLRdgQfuyu8+7Q1Pvi5+K6BphA6h8Z2IxoVZfD52yC3N1LC1H5WHp/TzIc3UgJ1PmFdsSjHQtjshaSgDD5ZKywFJaPN0zN3CVw3iQJzPWHdUNiOO+7WqSY2guE/VNduz/T077y9fodZMl7+kLz2mVxN8yG5uxqfyv4ZbDd/C/9K/M61p53zKMMrGW+NL0JeotGcsM/eCbN7G53ztrNHm+6bHwW/4O7dC2qoJWOwQusVoS7RaE/YcGKsDeHlkKuq93XFoU/jJpM35h4TZMn4eH9g8dC89trG76Qmg6+F6AQ+hzvTnGx7xz+YkjHTJHpwSzQmb5RGro35Q586m2+iOaw7/iMrtF4R1hKN5oSNtebuC0rKUIrCiN+zfsjDKRnjK7Te+tfkl2g8csKirGgvyeUxvHHiQFzOXbl8H9KVzF65Almi8cSlJknP1mjTWxb5dIewqitZohwHsESj63KLl+OZLNXLmV7+urzFRrLSSzQ+Qpx6eEdbKxaY0RMtGQ+u0HrF27ON7wh1CvZlSz/LmEuVjIWnKcWWaOh/+PTW8rP/Mnf8V6gVMks0Ar8l/7ymViz7a1y/ZLywQusV66/qWueErWi9bKz8q1stGysv0RC5/scHtz8z/NvrXiNXvOO/6jVyxfGB0DJGu/j/zr/3/+m1xwprdaVXfwJkrSUaUoO7xTIoMWey5BxQQ2TOZI0lGr/dK7RWEO3c3pzwkpo7XnxqVWjuePElGtKT/bMTvIe27B1/wQnxRZdohHDTc16yawmWKxnNqguhWrHcqq5AFn/MR35N1bxrxBrya6oWqlbyJ2xmYawtbT/Y8/XaglhbukCvLYwTNqdQ1tjPvY9LMLVi5h7p9lZohfSs0ZwlI6hnjdw71r5G2Qqty0rZ6c9KaAt+2rsZ797zCeyZy9nuZoR2wqbEx2Zx+akuspH2trUioO0qZrmrG1Jxt2a5qxvyZgG30jaAVuFqc5jb9rxfMgKtFe/fsVa0Qiu5TeA1hbfnI9y9iNoMvVQyAt6L6L0M7RSt0Do6Engx6BnNsXXCct5Y1RVmcbfeWKKhYxM9q/cEc11VVW9vh94sWRL63pQvjinCLe7Wi/2EgIu7QxvBws4DRLvCEcLrpyrkPXpfKRkqbuK/Ml4Se/zmJc1WXnn/LLS7O3QhPBdC8blbj3aOef/Y+7XsVf70DcQAnlx+xs5ewW6Pzv68tw/s3xDmbj2eutcm/XTvE56616aiuPfY3V4P9621616nvjQvQI+XDGW14uH7iPpWaBVjEWxDqG2lT7uPy2TJmH9fnMU9tvZK3wot80XJJ/d5MFM2qr4U78q/qkt+hdYrHui+BrPq4glmQDK2vbo5oPB7S3c8Pb0gVmi9wtPT07lCyzR57FWzK3u5ZoNmMvVVO8+OnoMy8UxSeNvWPsSEbPxc1BNX6sCN3dZRv82Ka/f8iwBXXTzE9zXJ2r4edMB5BySwFVqvcN4BCXTVxQN8XxefeOpk4O7uBGutFTfu7gRrWqF1y3yc3nlD2IbLHd9bXROU4RINRSu07sTeMucrlMHrrlGxqpv4Xrajce5UNCu0dNYKMySZmkoqtGewKxkHvbXCpZljP301/zHH7kHrS71DDjNo0dt/vzJzFtcMvv3USTAuGay7DH5pzaA/YZvIoJm7Pei5if+ISwb/XSbbL+n73JVkMHTp4ZzBwFdoPceELtp/f13nq8mgAh+l0mnOEU3o4r/X4k4Gsbqb0KnNYPpgBrd0DduKbWVwam6m1D83s1FbyWDknaO+TmjoW0H4A2wlg2ZdzGHiDXrn37duMxk0l9rxSbOd92INIZvJYHbN2Phq4oIhSag2k8Fo+lprXqY7GKLNZNBejMdmZ3LvmAVStpNBMzszMiqxD91tYqnT5mwng3aBoLvUmdeKlVuEh2wog6YQOoclBWUwYBvKYLPl0f0jxjaCTMyEaUsZjOz64nI4Sxg3y46FmgWPLWWw+07P3uZv7dZv9XYWfW7MpjLY+2LZKs/SNM32h+YHNdPTodpWBtvr7h3ndlwIwsYy+CvaOyPIcCRgW8ug88shnF9QglBsL4PnFBb9ANY5CQzbFjN4lhzz6qzMMwIYvI1mEIqQQUgjg5BGBiGNDEIaGYQ0MghpZBDSyCCkkUFII4OQRgYhjQxCGhmENDIIaWQQ0sggpJFBSCODkEYGIY0MQhoZhDQyCGlkENLIIKSRQUgjg5BGBiGNDEIaGYQ0MghpZBDSyCCkkUFII4OQRgYhjQxCGhmENDIIaWQQ0sggpJFBSCODkEYGIY0MQhoZhDQyCGlkENLIIKSRQUgjg5BGBiGNDEIaGYQ0MghpZBDSyCCkkUFII4OQRgYhjQxCGhmENDIIaWQQ0sggpJFBSCODkEYGIY0MQhoZhDQyCGlkENLIIKTtD4fDn9E/AgAAAAAAAPgB0rNEuhH4qeJjdbLqIoukm4MfJ20DaBWxdJPwoyS3CbymkFqI1RwdCbxIpRuGn6LoUldXVVV3f8ykm4afoY1gsTM/iHYFIcSK9jZueb/7FxeEEGvZmawdbmcF7c9PzBZiYZGN4P0YODGvVAKNwo9SjEWwDSFXYywqNjlzzwSaKZt65SbhhzEDkuPIq4frq7tVW4SfxpTBsVfT66vlmg3CT2NCth99vZ64UgNzyD3TL3suxlhYNXkpbobG43USeJd3BpApQiwr9pY5X6EE3mOGJPnEOwoyiEWl3iFHzjpCLMqfMDKIZZFBSCODkEYGIS19MIOsY8VS/HMzJXMzWFTknaM+sIIQy7quizlMvIF7dVhY6VmbtfNerIH3ZJ4nRgqGJFhYNH2tjXigBIsrJ2dncpYPYnFmdmZkVGIfumMTOCyqmih15rVi5RbhpzGF0DksKSiDWIXd8uj+EWMbQSZmsLTIPMh+KoezhLH98dQENjAPu63MYPO3duu3mmeLsYI2hKcqz9I0zfaH5gc109NYRdxm7oZzOy5gAdHeGUGGI1iR48sh+IISrCwp+gGscxIIAckxr87KPCOAAAAAAAAAAADc+R/iXCRHUQNWsAAAAABJRU5ErkJggg==;" parent="mMBgnrupJotZcHhOcbj2-23" vertex="1">
          <mxGeometry x="6.839999999999918" y="40" width="186.32" height="110" as="geometry" />
        </mxCell>
        <mxCell id="mMBgnrupJotZcHhOcbj2-25" value="" style="group" vertex="1" connectable="0" parent="1">
          <mxGeometry x="680" y="80" width="1480" height="1106.5" as="geometry" />
        </mxCell>
        <mxCell id="380feVYEUsmyo0d7AHBr-3" value="" style="group" parent="mMBgnrupJotZcHhOcbj2-25" vertex="1" connectable="0">
          <mxGeometry y="480" width="200" height="160" as="geometry" />
        </mxCell>
        <mxCell id="380feVYEUsmyo0d7AHBr-4" value="" style="group" parent="380feVYEUsmyo0d7AHBr-3" vertex="1" connectable="0">
          <mxGeometry width="200" height="160" as="geometry" />
        </mxCell>
        <mxCell id="380feVYEUsmyo0d7AHBr-1" value="&lt;font style=&quot;font-size: 18px&quot;&gt;Glutamine&lt;/font&gt;" style="rounded=1;whiteSpace=wrap;html=1;verticalAlign=top;fillColor=#ffe6cc;strokeColor=#d79b00;" parent="380feVYEUsmyo0d7AHBr-4" vertex="1">
          <mxGeometry width="200" height="160" as="geometry" />
        </mxCell>
        <mxCell id="380feVYEUsmyo0d7AHBr-2" value="" style="shape=image;imageAspect=0;aspect=fixed;verticalLabelPosition=bottom;verticalAlign=top;image=data:image/png,iVBORw0KGgoAAAANSUhEUgAAAxwAAAGXCAMAAAAOMaYIAAADAFBMVEX///+AAAAAgACAgAAAAICAAIAAgIDAwMDA3MCmyvD/8NT/4rH/1I7/xmv/uEj/qiX/qgDckgC5egCWYgBzSgBQMgD/49T/x7H/q47/j2v/c0j/VyX/VQDcSQC5PQCWMQBzJQBQGQD/1NT/sbH/jo7/a2v/SEj/JSX+AADcAAC5AACWAABzAABQAAD/1OP/scf/jqv/a4//SHP/JVf/AFXcAEm5AD2WADFzACVQABn/1PD/seL/jtT/a8b/SLj/Jar/AKrcAJK5AHqWAGJzAEpQADL/1P//sf//jv//a///SP//Jf/+AP7cANy5ALmWAJZzAHNQAFDw1P/isf/Ujv/Ga/+4SP+qJf+qAP+SANx6ALliAJZKAHMyAFDj1P/Hsf+rjv+Pa/9zSP9XJf9VAP9JANw9ALkxAJYlAHMZAFDU1P+xsf+Ojv9ra/9ISP8lJf8AAP4AANwAALkAAJYAAHMAAFDU4/+xx/+Oq/9rj/9Ic/8lV/8AVf8ASdwAPbkAMZYAJXMAGVDU8P+x4v+O1P9rxv9IuP8lqv8Aqv8AktwAerkAYpYASnMAMlDU//+x//+O//9r//9I//8l//8A/v4A3NwAubkAlpYAc3MAUFDU//Cx/+KO/9Rr/8ZI/7gl/6oA/6oA3JIAuXoAlmIAc0oAUDLU/+Ox/8eO/6tr/49I/3Ml/1cA/1UA3EkAuT0AljEAcyUAUBnU/9Sx/7GO/45r/2tI/0gl/yUA/gAA3AAAuQAAlgAAcwAAUADj/9TH/7Gr/46P/2tz/0hX/yVV/wBJ3AA9uQAxlgAlcwAZUADw/9Ti/7HU/47G/2u4/0iq/yWq/wCS3AB6uQBilgBKcwAyUAD//9T//7H//47//2v//0j//yX+/gDc3AC5uQCWlgBzcwBQUADy8vLm5uba2trOzs7CwsK2traqqqqenp6SkpKGhoZ6enpubm5iYmJWVlZKSko+Pj4yMjImJiYaGhoODg7/+/CgoKSAgID/AAAA/wD//wAAAP//AP8A//8AAABYWvgoAAAAAXRSTlMAQObYZgAAAAFiS0dEAIgFHUgAAAAJcEhZcwAADsQAAA7EAZUrDhsAABMoSURBVHic7d1de6LKEoZhz/z/fxFlzKATlmNyOWeuSPMp3QgIRRU+99HKJtsxVb5NAw1uNgAAAAAAAAAAwJDk379o6fcAqHS53fZLvwdAJcIBBBAOIIBwAAGEAwggHEAA4QACCAcQQDiAumhb+rrdPsofdku/MWBp25vf76XfGLA0wgEExOfS9+1W/XBY+o0BinBADgQQDiCAcAABhAMIIBxAAOEAAggHEEA4gADCAQQQDgAAAAAAAAAAAAAAAADYbA7pXezdlm0qV1rtmz/WdWwCzEqyB1RdvN8DmG0qcxM3f6zr2ASY5cJxO/q2EQ68tTwc3k824cBbK8Jx8WwjHHhrRThuSXsb4cBbK8PhuQGQcOCtVeE4t7YRDry1KhztiRXhwFvLwnHxT6wIB95aFo408U6sCAfemgvH5uybWBEOvLU8HHvfxIpw4K3l4dj4JlaEA2+tCIdvYkU48NbKcHgmVoQDb60Mh2diRTjw1qpwtCdWvnCcU48z4cAK1cLRmlj5wtGBcGBdauFoTawIB95aPRyPEyvCgbfWCMfDxIpw4K01wpFPrIoffeG4xh5XwoEVaoYjn1hd3Q++cPQ/lbuP490MbxiQ8hCOfGLlPtUvhCP+dC90YncCsx7C0ZhYjQ5HlFZHIp/eR2IB+j2Goz6xGhuO6Fw/Tj+TDtjUCkdtYjU2HPl+I03dHYaf8717YEatcGyO5cRqZDgO9x8u2U/xmdNYMKsdjuhSTKxGhuNcm0tlMyx2HTCpHY7iat9uZDh2jV/LZmmzvHNgZp5wlBOrceG4/1Bb+E44YJUvHMXEauwBeZxcq22EA1b5wtFYRvXizU7Rzf+QakA9bzjyidUU4bi/vucZ1YB+/nDkE6uXwxFlL89VQJjkD0dtYvXCwsOt2wHxXYGwKRCOamI1Ohz5dfIz2YBRoXCUE6tXw3Fk3TqMCoWjnFiNDkc5MTtyzAGTguEoJlajw3G6/hx0ZPsf1uXCpHA48onVi6dysyuJ3i9yBpTb3e8B9x8zZ5victSPmj/WdWxya3Q57gA87gfm1+e/Bryf+66DReuAE9VnWHHooAZ4N/HxfDvUfyYcgPP5MI26n686LfZuAEWuD6enLhyQA052m2y16zhyKhfrsN9ut6+uFMwWVZ3cMXl0ujGrwjr8m+C8a7bruF2OcbFmnRs6sAZThMNdFK9h0TrWYJJwNNNxIRtYhWnCsdlXT5JOmFNhHSYKx8+Bx/WUpmmyJRpYi8nCAawN4QACCAcQQDiAAMIBBBAOIIBwAAGEAwggHEAA4QACCAcQQDiAAMIBBBAOIIBwAAGEAwggHEAA4QACCAcQQDiAAMIBBBAOIIBwAAGEAwggHEAA4QACCAcQQDiAAMIBBBAOIIBwAAGEAwggHEAA4QACCAcQQDiAAMIBBBAOIIBwAAGEAwggHEAA4QACCAcQQDiAAMIBBBAOIIBwAAGEAwggHEAA4QACCAcQQDiAAMIBBBAOIIBwAAGEAwggHEDAW4Uj+ef1e+n3BZ3eKhyXm9d56fcFnQgH4UDAW4WDaRWGeKtwAEMQDiCAcAABhAMIIBxAAOEAAggHELDKcMTXJP3xmRx2L7zK8f4ax6Gb6g73X0tj77Zs0/6Ft4fZrS8c8al+9ftyHJ2P9P7/T4duqkvcW4h827JN/txAibWFI05bq0NOI+MxVThu3l0M4dBvXeGIPr2Lp5JRLzZZOLwZIBz6rSoc+8DKwlvqndk8MV04Lp5thEO/NYVjX4bhnBziOD4cz+X/MCId04XDt+siHPqtKBxlNpLqIGN3Gp+OCcNxa5+WIhz6rSccUT6n+mzGYJfvPZ5/lB9NGY72LSOEQ7/1hCM/Fj+0NpyCU5tuU4aj/a8TDv1WE45tKBtlOoae0Z0oHBf/xIpw6LeacFyC2cg/y7fTwFecKBxp4p1YEQ791hKOQ9eBxW7UrmOqcGzOvokV4dBvLeFIOz/+yZijjsnCsfdNrAiHfisJx677jFSUbfZdi+swWTg2vokV4dBvJeE4dBxx3H16D4q7TRcO38SKcOi3knC4E1LhC30uPNdBrzlhODwTK8Kh30rCcfGdEKpx86phf+iE4fBMrAiHfisJx9PP/mX4QYc7xk99uo9wSlU42hOrVYVjv5Y/pGkd4Yifno1yn+dBL9q+M6RpUDhaE6sVhSM6fd/+vHLPpVZrCkfXIYWb1wzq4KThaE2s1hOO5Ov+p3wfx9wWoNnuz+18OX//Z/1e5sPTj1oy/MM4bTgeJ1ZrCcev8raAS/hkoUHR8fs+mN3/sD+2Y//8o798OB4mVusIx65RJPODbOXgliO55H+Pu5VUifnCcY59ziPCkb+F4sc1hCP6952nosiI8UG2sP/P/Tnfxy/3H3+3S7+l8eYLR/9Tubuf0Dwc0zTDkU+s8iOjFYTj46uaTxWzK9uDrBP9qaJe5t/uY5TmO+boGY7yeUCn+j/xEI58YuUSZD4c8UMcPlYwyGaSYnfo4lDMHL9PRveK7mxV1wHhMfuNQX9e/3A0Zt61OxEfwtGYWBkPx642uuZWMMj+2F6q3WGu2Ct+fSz4vsZzY/Ic1zn6hKN6sEOmul39MRz1iZXpcLhTOfe/tfEX7K0PstVf0DwxneR7xfOvpd7YK9yY/ewXht1H3jccxc3rxZXz6mJGKxy1iZXlcByK0bU1lG7/Wh5k71cz3e7w8YJYuSU1eLHz2Y7BLWkfdi9g33Aktb3wobELa4Ujn93d/ye74ahO5fj2D4YH2fKt+9pS7lP+mdsrug9deK57zbYPu0rVNxyNqVR0nzkVa7ja4cj3Mle74ShP5YTG0Ke/oNTTI4vw/lI5N18JP/fc/eHDMt8zHNvmK+9rKW2HIz918DOxMhqO4lRO146he9ei067PjiHxHmnpd+n89LuP5MA1ZD3DkTzM1z6rXZQnHOXEymQ4+h5SWBtkqxNt3Xu76gqIqb1i913i6YhZVd9w3D/t9VP7SfU+fOEoJlYGwzFk2m1qkP3of5xU7hUtXex0dzMFjjrcJ3HgLeT9z1Ztj/V/9p6Ia/WfrVfIJ1bmwlGdsOl1GWNnZpAtrmZ+9fu8f7QvhOgUVW+w44ti8hOoQ/+YkXcCflYfem848omVJxyqZ+jDL4A/XkLXqQhx/2sz5UUe3essP76+y2Epn654HhidZ6PjJlq/ceHIThrn/+0PR1R9UUIjHNGX3mV7v4aNrjn9g2z5QR90Vd+zPECbbGSqPnr5dOXy+Ffmzwkd+OiRzdhw3BdZFcfn/nDUJlaNcPxRO8iWy2OGfhiqZbs6B9nR6R03WIgp0lt9vorHNif1DpbfQTB88BoVjiyKxe4sEI5qYlUPR5x9ji76lu29NI0oc6VwRclLB9eK11lWi3tqDSu/KfOYf+iibfU/Df83xoRj3/i3QuEoJ1b1cPxWumzv1bmR1kE2enFupHad5Yf/PHrtUPeSpmntS9CGPbHKGRGOLBsdCw8LxcSquWyvGMg0DbJTHFWrHGST1yd8Khezh6/AHm5+o7oyPBzu0L86dRkMRxHjh1O5xbUzNYPsROdjB54FFjDRVUp16yzL3eGnp2E739fJjgz24HC4aNb6Hw5HPrFqXefoszpDznRX8nQt2wssTB9D1zrLZx+f+DEeY7+GfLO/3y3uH+q8m66P2cjunA28QrYpbvdG0bK9adeA6BlkwwvTX3o1PQ3rKvHuWubjcjqIjVTZsf/59Qrti1n+soNsOXed7G0o2StOPtYrWWc5YOccHrPnkS1VH/WNzm0fPUaAmUXFab4px8POCbGQX3PswBSss1S0A2txh+JDv1gtJHAXqpy5ZtJLD7K9FqaPsfQ6y0TjCcGcy8aY88UBiy7bm/PwYMlBtu/C9FGvveSKEq2XkjIuG9OGtnwQ1IjLly+Z+SkJy+0VZ77cstg6S5WXW0rZWsPWmq6X1Z+ZJkbguu8yy/YGLkwfY5F1ltqXr93LPs2heNMCf7fMxWz5QXb4wvQxFljMvsgIOkAyUzY2LyyHHUfumZ6yPZX70Aqvs1R/y0w2qbo2HzQ93QFfcXAs8OeXqwskkii5VxSd7ggeHBu4raS22rE0ZWGEztKJTwmkjiPF7/oWWme5+Pn+Pmprf2cJh8yyvSUOJssLcjN+bJc4xSrSMAUXHp/bebIxbTgEFrOXc1fhi3Oz7xUXujg3+zrLpa+m9rT3fdvs5MNvnzVloy34NKZ5Vz0sOLrOus5SwzocVeZbtrfs0of5BtmFR9f5FrMrWcGpyUyL2WfdJy34DpZfiTfT+L5dvGEq7ac/Mph+YfoYM+y7VNyENMO+S9ddY6oE7p0fa/nRtXgjEx/1qLmzauKjHjUNU2nSk9vluSIFc9cp94qqVuLN0jCFC9NVmOyyqMRVhiGmutKi7ZE50zVM88J0LSZZAaVqdHWmuUav8DlAk6yA0vx0PFVeXranbXTNvT7IKh1dX94ral+YrsmLtdK7zvm1vaLelXirbZhKL+xlda9zLj8Hg6dFur8a4IV5rO6GqbQdd0Ctd3TNjZ3yqf++g5FTPvUN02nEmT3vA7i1GTPI7pe65X6I3680TPHCdJUGXxMysc55U9sr/u73+1a+yHK1DVNp0PIPI+ucM4OWfyz91KgBBi3/sNQwlXov27Myuub6D7LGRtfeS1sUPTbZrn4rmO2tc+63V9SxdHKQtTZMpR5ro22uc36+V7S5Eq/HTlzN0kn7nizbs7vO+cnRhIqF6WM8OZqw2zCVOhaz2xxdc12D7NBzWqp0HCnp+yIs64JXMEacXFclDlzBULh0cpDVNkwl76VUpSvxBvFd+1a6dHKQ1TZMpdayPeuja669akrhwvQxWqumWJg+o8byzRWtc24+NFjumb6zW2vDVIqKBzD+ty/qfvuz9JuaQhWIda3EW23DNMo/Qz8zjuI/bhZP5niUU6l1ja7rbZg+91p/VbX+WlGt81Ocf8tpyCqsuGHq3Gv9+35x7F7rc3bEt55aZxfH/q5rJd6qG6aMK+7PIPs3u760tlpv//58iGwsnexp5Q1TpSju/k82uq6v1smn/oXpQ6y+YYo8FJdaa0fD5FBrY2iYHGptDA2TQ62NoWFyqLUxNEwOtTaGhsmh1sbQMDnU2hgaJodaG0PD5FBrY2iYHGptDA2TQ62NoWFyqLUxNEwOtTaGhsmh1sbQMDnU2hgaJodaG0PD5FBrY2iYHGptDA2TQ62NoWFyqLUxNEwOtTaGhsmh1sbQMDnU2hgaJodaG0PD5FBrY2iYHGptDA2TQ62NoWFyqLUxNEwOtTaGhsmh1sbQMDnU2hgaJodaG0PD5FBrY2iYHGptDA2TQ62NoWFyqLUxNEwOtTaGhsmh1sbQMDnU2hgaJodaG0PD5FBrY2iYHGptDA2TQ62NoWFyqLUxNEwOtTaGhsmh1sbQMDnU2hgaJodaG0PD5FBrY2iYHGptDA2TQ62NoWFyqLUxNEwOtTaGhsmh1sbQMDnU2hgaJodaG0PD5FBrY2iYHGptDA2TQ62NoWFyqLUxNEwOtTaGhsmh1sbQMDnU2hgaJodaG0PD5FBrY2iYHGptDA2TQ62NoWFyqLUxNEwOtTaGhsmh1sbQMDnU2hgaJodaG0PD5FBrY2iYHGptDA2TQ62NoWFyqLUxNEwOtTaGhsmh1sbQMDnU2hgaJodaG0PD5FBrY2iYHGptDA2TQ62NoWFyqLUxNEwOtTaGhsmh1sbQMDnU2hgaJodaG0PD5FBrY2iYHGptDA2TQ62NoWFyqLUxNEzOn/P5fAj+CHVoGAAAAAAAAAAAD6L4x27pd4HeaJiM/TG95c7H7dLvBk/RMCmHy60piZZ+S+hCw6RsHyudVXvpd4UgGiYlOnkqfd9ZM5nViYaJic618qZpWqv2fun3Bg8aJqYs9eWYl3Z3SCm2XjRMTlHqxoLnOKXYWtEwMUdX08/Hcx1JvtvmHIgyNExM7Ep6am85uC2cAtGFhsm5hEpdFpszIKrQMDGunql/42e4D1gIDZNz7jqI27mRiEmsIjRMzN4d24U2u2O8q+Q7QicaJscVM7hozY1EZ8l3hE40TI47OR7efmY3rQsNk9O9k95srt0DFaTRMDHxsxPjT38BomiYnMPTcabrxCHE0TA57vAu7viNC7XWhIbJSZ4evj07AIQoGibneSWptSo0TA61NoaGyaHWxtAwOdTaGBomJ6HWttAwOc/PDHLaXBUaJmf77JpSlP0CNwhoQcPkuEWcx/AvsBpBFxomKCtlxwrn49PdOETRMDnuyXnhm44vHN7pQsPkbLv3wjEzWGVomKCsmMHFOumz4z9Io2Fykq4jPDdMXWTfETrRMDnu1J9/rMm3HXzbsBAaJih/iKTnWS/584oZh3ShYYLyxxK3zv5FoQ1YFg2T456E1DoDkj+SteuCExZBwwTlT1i9XWpz1fKB9h0PusBCaJigotg/lU22cRxfT+UXzqU8AUkhGiYovgVwNUknGiZol3pLzcUkrWiYJM9X9/K91prRMEnbz3qhzwcqrRwNExUnx/THKdlSaBNoGAAAAAAAAAAAAAB5/wOO5mF/WcNeQgAAAABJRU5ErkJggg==;" parent="380feVYEUsmyo0d7AHBr-4" vertex="1">
          <mxGeometry x="10.628571428571425" y="40" width="178.73333333333332" height="91.42857142857142" as="geometry" />
        </mxCell>
        <mxCell id="380feVYEUsmyo0d7AHBr-5" value="&lt;font style=&quot;font-size: 18px&quot;&gt;Glutamine&lt;/font&gt;" style="rounded=1;whiteSpace=wrap;html=1;" parent="mMBgnrupJotZcHhOcbj2-25" vertex="1">
          <mxGeometry y="360" width="200" height="40" as="geometry" />
        </mxCell>
        <mxCell id="380feVYEUsmyo0d7AHBr-6" value="" style="endArrow=classic;html=1;exitX=0.5;exitY=1;exitDx=0;exitDy=0;entryX=0.5;entryY=0;entryDx=0;entryDy=0;" parent="mMBgnrupJotZcHhOcbj2-25" source="380feVYEUsmyo0d7AHBr-5" target="380feVYEUsmyo0d7AHBr-1" edge="1">
          <mxGeometry width="50" height="50" relative="1" as="geometry">
            <mxPoint x="240" y="700" as="sourcePoint" />
            <mxPoint x="290" y="650" as="targetPoint" />
          </mxGeometry>
        </mxCell>
        <mxCell id="380feVYEUsmyo0d7AHBr-7" value="&lt;font style=&quot;font-size: 18px&quot;&gt;Glutamate&lt;br&gt;&lt;/font&gt;" style="rounded=1;whiteSpace=wrap;html=1;" parent="mMBgnrupJotZcHhOcbj2-25" vertex="1">
          <mxGeometry x="360" y="360" width="200" height="40" as="geometry" />
        </mxCell>
        <mxCell id="380feVYEUsmyo0d7AHBr-8" value="" style="group" parent="mMBgnrupJotZcHhOcbj2-25" vertex="1" connectable="0">
          <mxGeometry x="360" y="480" width="200" height="160" as="geometry" />
        </mxCell>
        <mxCell id="380feVYEUsmyo0d7AHBr-9" value="" style="group" parent="380feVYEUsmyo0d7AHBr-8" vertex="1" connectable="0">
          <mxGeometry width="200" height="160" as="geometry" />
        </mxCell>
        <mxCell id="380feVYEUsmyo0d7AHBr-10" value="&lt;font style=&quot;font-size: 18px&quot;&gt;Glutamate&lt;/font&gt;" style="rounded=1;whiteSpace=wrap;html=1;verticalAlign=top;fillColor=#ffe6cc;strokeColor=#d79b00;" parent="380feVYEUsmyo0d7AHBr-9" vertex="1">
          <mxGeometry width="200" height="160" as="geometry" />
        </mxCell>
        <mxCell id="380feVYEUsmyo0d7AHBr-12" value="" style="shape=image;imageAspect=0;aspect=fixed;verticalLabelPosition=bottom;verticalAlign=top;image=data:image/png,iVBORw0KGgoAAAANSUhEUgAAAtsAAAGXCAMAAABV3GwQAAADAFBMVEX///+AAAAAgACAgAAAAICAAIAAgIDAwMDA3MCmyvD/8NT/4rH/1I7/xmv/uEj/qiX/qgDckgC5egCWYgBzSgBQMgD/49T/x7H/q47/j2v/c0j/VyX/VQDcSQC5PQCWMQBzJQBQGQD/1NT/sbH/jo7/a2v/SEj/JSX+AADcAAC5AACWAABzAABQAAD/1OP/scf/jqv/a4//SHP/JVf/AFXcAEm5AD2WADFzACVQABn/1PD/seL/jtT/a8b/SLj/Jar/AKrcAJK5AHqWAGJzAEpQADL/1P//sf//jv//a///SP//Jf/+AP7cANy5ALmWAJZzAHNQAFDw1P/isf/Ujv/Ga/+4SP+qJf+qAP+SANx6ALliAJZKAHMyAFDj1P/Hsf+rjv+Pa/9zSP9XJf9VAP9JANw9ALkxAJYlAHMZAFDU1P+xsf+Ojv9ra/9ISP8lJf8AAP4AANwAALkAAJYAAHMAAFDU4/+xx/+Oq/9rj/9Ic/8lV/8AVf8ASdwAPbkAMZYAJXMAGVDU8P+x4v+O1P9rxv9IuP8lqv8Aqv8AktwAerkAYpYASnMAMlDU//+x//+O//9r//9I//8l//8A/v4A3NwAubkAlpYAc3MAUFDU//Cx/+KO/9Rr/8ZI/7gl/6oA/6oA3JIAuXoAlmIAc0oAUDLU/+Ox/8eO/6tr/49I/3Ml/1cA/1UA3EkAuT0AljEAcyUAUBnU/9Sx/7GO/45r/2tI/0gl/yUA/gAA3AAAuQAAlgAAcwAAUADj/9TH/7Gr/46P/2tz/0hX/yVV/wBJ3AA9uQAxlgAlcwAZUADw/9Ti/7HU/47G/2u4/0iq/yWq/wCS3AB6uQBilgBKcwAyUAD//9T//7H//47//2v//0j//yX+/gDc3AC5uQCWlgBzcwBQUADy8vLm5uba2trOzs7CwsK2traqqqqenp6SkpKGhoZ6enpubm5iYmJWVlZKSko+Pj4yMjImJiYaGhoODg7/+/CgoKSAgID/AAAA/wD//wAAAP//AP8A//8AAABYWvgoAAAAAXRSTlMAQObYZgAAAAFiS0dEAIgFHUgAAAAJcEhZcwAADsQAAA7EAZUrDhsAABHESURBVHic7d1dm5rKEobhOfP//0WUmKCRRZi5zJlrlE+1geKzuyrPfbRnO3E5Va9N07T48QEAAAAAAAAAUCL5+zfy/RqANeS328H3awDWQLZhFdmGVWQbVpFtWEW2YRXZhlVkG1aRbZgS7Wqft9vP+oe97xcGzLS7uf3y/cKAmcg2rIqz2tft1vxw9P3CgOVwLgmryDasItuwimzDKrINq8g2rCLbsIpswyqyDavINgAAAAAAAAAAAAAAwL/tmN7FzsceD9W7Sw7PP7b1PAT4kjxuRJI7v+Pm8VAd+/j5x7aehwBfimzfTq7HyDY0K7PtDCbZhmZVtnPHY2QbmlXZviXvj5FtaFZn2/FxG7INzZpsZ2+PkW1o1mT7fVZCtqHZI9u5e1ZCtqHZI9tp4pyVkG1oVmT7I3PNSsg2NCuzfXDNSsg2NCuz/eGalZBtaFZl2zUrIdvQrM62Y1ZCtqFZnW3HrIRsQ7Mm2++zEle2s9QhI9sITyvbb7MSV7Z7kG0EpZXtt1kJ2YZm7Wy/zkrINjR7yvbLrIRsQ7OnbJezkupHV7avscOVbCM8z9kuZyXX4gdXtuVrgIc43q/wggGhl2yXs5IilDOyHV+KJzozmMOXl2w/zUomZztKm1n4xXnrE2B1r9luz0qmZjvK2qeYGeGGF2/Zbs1Kpma7HLXTtPg8z2W9Vw90e8v2x6melUzM9vH+Q/74Kc5YQIEv79mO8mpWMjHbWWsi8pieMHDDh/dsVxdp9hOzvX/6tccUZ5VXDvRzZLuelUzL9v2H1k5Zsg1PXNmuZiVTzyXj5No8RrbhiSvbT1tHZn42Ibq576MJrM2Z7XJWskS278/vuI0msDp3tstZyexsR4+n5+INfHBnuzUrmbFXalcM/3wPDrzoyHYzK5mc7fLqZEa04UdXtutZydxsn9joCj+6sl3PSiZnu57VnJhvw4fObFezksnZPl+/J9yP0Z+dgPChO9vlrGTmGuDjApDzG/6Ade3vn3d0n+49HorrMTd6/rGt56FiVyBzblh0P6e8Dv8aoM594GaXK4yI2tOTuGtCDygTn7Lbsf0z2YYRl5c5yH2l5Ozt1QDLub4sjOScS8KIx2fKmoH7xBoggnDY7XZzNzc9NpKci9PJ6HxjSoIg/F1gwe4xcN/yU1xtcmUDNwKwRLaLS5Et7HJFABbJ9nO4c6KNECyT7Y9Dc7PLhAkJgrBQtr8n3ddzmqbJjmQjEItlGwgM2YZVZBtWkW1YRbZhFdmGVWQbVpFtWEW2YRXZhlVkG1aRbVhFtmEV2YZVZBtWkW1YRbZhFdmGVWQbVpFtWEW2YRXZhlVkG1aRbVhFtmEV2YZVZBtWkW1YRbZhFdmGVWQbVpFtWEW2YRXZhlVkG1aRbVhFtmEV2YZVZBtWkW1YRbZhFdmGVWQbVpFtWEW2YRXZhlVkG1aRbVhFtmEV2YZVZBtWkW1YRbZhFdmGVWQbVpFtWEW2Z4n/uh18vzD8Y9lO3EH8Nf0Zf93cdsu9aEz1T2U7dwcxm/6MZDtgZHtWtpmTBOyfyvbycxIE7J/KNv4pZBtWkW1YRbZhFdmGVWQbVpFtkf0uOaffTkns+6VAymS242tyD+IlOe6XeLromrUv9VyOSzwpVmcv2/G5HcT8NDfeUfJ2ITMn3RpYy3acviXxPCvdO/dlei6qh89WtqOLM4nJ9Gc8ubeg3G4M3cEzle1Dx2aoWxpNfMZmfnNO4m9J8+Yh3KGzlO1DM2VIjt9BPJ7qc8BsWriraKetPavHnHDrYCjbdbSTZoK9P88J97X8xzv3/81yYNjsZDsqx9PLc4r35didjn/GQ9fbonoXTZ3pYBN2sn3pmimUQ/f4E8qsc8Qvw32a8jqxFTPZ3nVPgstwj10KPPZMZuJpT4ktmcl23nN+V6x5nyc9Y8ek+jzpKbElK9k+9k2q91NG2bg3vREz7uBZyXbam95kwoz73L8WcmIdMHRGsr3vXwspRtl81FPm/f+kOJ00UDq7jGT7ODCKFosoYzaB7IdWQorp+IhnxMaMZPs8MPstsn8d8YzFv+i5h85p9NsF2zKS7ccg2nMPnWj0DCIZiu7QoQK+Gcn2YHQHZs/v0qEpRzzxilCADjZ3D9jI9nDOBqM6/h9YWeGOzl+33xavQlnKdt90Ohm7wp33Lrzc9S/NqJF83v+Or5O1pfr971uWZ1//aT8jOvavRX9U2R5x7B1Orols/6i3Adv6oFx0+rqfgd3/sN+637XDySXbLvunT+CpH+Ia5Sb74o37pfqkiGxPEf39KkNdRVz5EFc5/Ff8OV+nz+J//FF8P/QVsm1/vv3zs5mMVFMT3UNcIfrdvFPrt2+q9pi0wnz7MZT1LRoWS+Zqt3DHL2n+aWCIe0iqg1GR5mra9XVWekwq1kn6ToaKq4gj/rziKv3gf1PpOLdvjW0lA0Pct13eHIxK1THp86fH1zXdYTBno9e3B69LXsceCcJRLCJ8y55e/kH7ENf8Bc8rmkl5TMp++Hphczxeet86/ejJ8eCSebGFReM1j+qT+vnbQLb7o3mIu1+EKg5Gr12pH0kV9mtoWC529Y25iDi4A+U2NCEPVLOI4BqdFQ9x9Ut3HUvrEf2vumPS0Ka86+CE/M2lf4ZefD5T3alkvYjQNYIN/kKgBmfV3UerwB0Gkpb1B9Xl2D+HT4fm40GqFhH6huX+gT1Me8mwnDjPMsKX94Y3HpyPv+v/RGSscUoinU5rG+KaJZ7+Y02z8q3qmNT/ich0/JSkekr3GyLq+1h9oMZMOVUNcT/l5wj1MUnT2m05yrrnCNdJg2z5lM6lkvPLM0Zp6DFvlgpE86i9miGuugj1KYvrz/cF8DBFzQssRtncNSSVd4Ea/cdcO/9deTef5hJeEvpOo/GXHV8vXIapeg/K1+Trxf3QG/ZVjyrlLMFxG6jqtn7jn788iL+eolZ3+W6mK/tHucLdafRj3NhWCn+Iq3M66lqq46JsaB4DS3M5pryNWf76V1ZffDDhXVrOSl5mndWZVuttdJoSnc3sp27zazYKhjnETX7zTXuvb6Z68zWxq76XJml3sL5J8aSxp77tcVp9K9ThWt+/vj0R/RXuTqNZx+D6bRHgZfhZ54UBbw1rdkS0GlZ/ycGpDHy0a/6vaf+d9jcx3L/6rPkpez7HGnmqtp25E4tQh7ho5sQi2K1hP90LsK0vp8m/g9jK5Zg7kzyJ3r8b6uHyVtEgdxotcUIY5BCXzJ8tBbn7tfvC2dEdxL5b6AxyPWfufMLgdhottJAX3jFpoYtLwTWsPhhdHA3bu76obOb7MkpeviIq6zy8Sy5pb2e5CzBh7TTq2Mk6RVhbw4biE7+me97XSxZ2zbdCpUnf4BXQTqNlL5yHM8R172Sd9WzhNKyvxPtrHe/8fFxsoNnfv4Nv+NkC2WlUv4zFRtpAjkmLj7ShNEx+aLwH0dPsMICdRlH95YELjka9k8GN/Fjj8BFEw4I5fPTr+MjWdtaaRfoe4kQ7WafwvTUsCXEpqoPXq7prTo19DnHSnayTnttnw0K9hNDF206jlZfZ/R2TVl5m99awIJfZB7RvbbOZDa62+TkmjdzJOoWXrWGhb9np4OFlb3MJcfshbvxO1ik87H71MgAuYuOdRtvd+GzblmyXuY0bpmOLfJcNTxPqS7JbzBW2PCZtOlfYsmHhbyMfsNHu182Pp1udAm3+CceNtoZ5XyhewibL8j7Og+rrKCumzsfa3CZbwwK4XrSI1Xca1fO2ja+prH7JwdM1ldUb5vsi2JJ2gm0wk3m868a6xySPY9uqW8NC2LywpPV2Gvm9XrzeEOd5bFtv92sgm84WtNKbVbIxcl3rvAL/m4dWatiqh3BvVhiIlt/JOsUKR44gPjOwRsOC+pDHkhaeQPof26oXsvCMP5gPQlht2BoWXdSsVykCmLcdFlypCWrz0CoNU7CTdYrFLkZtsbo8xlIr7KHdW2G5hinbyTrFIpsIghrbCstcGQ3whhGLNizEmxgtafZOo9DGttL8IS7QsW32MUnpTtYpZv6p4W6MnLcTMdzNQ2YbtoYZc4qwN0bWbRw9pwj73sFmG7aGiYffcMe20tT5UvA3RLbasFVMWBJy3uIzNFOGuGYNccUXNteE7comdrJOMXopX8vGyPrayy/Z72v5jiWzDVvDqEuwmjZGjrpm7vvuICOYbdgaxDuNtIxtJfkQp2xsE+8HCOjWkN7Itjzq2xgp28cVxm6vUaw2bA2CEVnnxsjhY5LOzUOShoWy28u7gYmZ3o2RAzPpIHayTmG2YWvo+JKTO51jW6lviBu7mhKUnrOE8L5mwrPOleuAvwFNJO5YuQ5wt9coZhu2BucFrEA3D43iuuIY6G6vUcw2bA1vGw+0j22l950iAe5knaKzYdZ3sk7xtGHM0MbI528m3u6+hauz2rA1RNVXov13qMp2++37RS2hybOtzUNmG7aC+vvQ/lT/46ZxGcGhnofYGtvsNmxx91J9NqX6NFSqcm3sT30MN8Fww5Z2L9Wv+zWNe6myx8mKnVI9rmn8sbV5yHTDllXU5nuI+/O4LGCtVLs/3xnQsdtLyHjDllTV5vD7MbbZK1VyCX8n6xjmG7acl9pQqtDRMDFKpQwNE6NUytAwMUqlDA0To1TK0DAxSqUMDROjVMrQMDFKpQwNE6NUytAwMUqlDA0To1TK0DAxSqUMDROjVMrQMDFKpQwNE6NUytAwMUqlDA0To1TK0DAxSqUMDROjVMrQMDFKpQwNE6NUytAwMUqlDA0To1TK0DAxSqUMDROjVMrQMDFKpQwNE6NUytAwMUqlDA0To1TK0DAxSqUMDROjVMrQMDFKpQwNE6NUytAwMUqlDA0To1TK0DAxSqUMDROjVMrQMDFKpQwNE6NUytAwMUqlDA0To1TK0DAxSqUMDROjVMrQMDFKpQwNE6NUytAwMUqlDA0To1TK0DAxSqUMDROjVMrQMDFKpQwNE6NUytAwMUqlDA0To1TK0DAxSqUMDROjVMrQMDFKpQwNE6NUytAwMUqlDA0To1TK0DAxSqUMDROjVMrQMDFKpQwNE6NUytAwMUqlDA0To1TK0DAxSqUMDROjVMrQMDFKpQwNE6NUytAwMUqlDA0To1TK0DAxSqUMDROjVMrQMDFKpQwNE6NUytAwMUqlDA0To1TK0DAxSqUMDROjVMrQMDFKpQwNE6NUytAwMUqlDA0To1TK0DAxSqUMDROjVMrQMDFKpQwNE6NUytAwMUqlDA0To1TK0DAxSqUMDROjVMrQMDFKpQwNE6NUytAwsd9Zlh07f0RwaBgAAAAAAAAAtETxt73vVwExGiZyOKW3Unba+X41GETDhI757VkS+X5J6EPDhHavhXoUy/erQicaJhSdHYW6H+mYyIWJhklFWas6aZq2inXw/drgQMOk6krlp7Iy+2NKrcJFw8SqSj3tkIxTahUqGiZ1KkpyeT3LTspjHmffgaFhUnFRkfP7I8fiEU6+w0LDxPKuStW14tw7KDRMqihH6n7w0l1GeELDxLK+8499MQ4wgQsIDZM6FKclXQ8XpyfXLV8RetEwsaIWnftsinEg2/IVoRcNEysWRbsfzzjGhYWGifUf4T4+rv3DBLZGw6TioQXRwV/ApmiY2HHwXd634oTN0TCx4swk7vmNnFKFhIaJJYNnHkPnLtgUDRMbLgSlCgoNE6NUytAwMUqlDA0To1TK0DCxhFLpQsPEhpeUWC4NCg0T2w1dCogev8CG4FDQMLFi29ip+xe4hBsWGib3qETPlsjT4DEQm6JhYsX9ibo/YJdzZhIWGia26z+ExczeAkPD5B616NygkA6dumBrNEws6Ts5KQaJfNtXhF40TKxYM3K/08vH+LbZkNAwufJOW46bApS3VGQUCAsNkyvvnPi2bBR1PQC/aJhYcceLt3Pv8rZzfdcJ4AUNkyvvInfLW/O0+o63PR+phic0TK6q1Xdhkl0cx9dz/WUqKXe6CBANk4tvHbgIECYaJrdPnZXiGkCoaNgIju904/sKQ0bDRthd2nXKjhQqcDRsjDg5pd/OyY46qUDDAAAAAAAAAAAAMMr/mq7rnARw41MAAAAASUVORK5CYII=;" parent="380feVYEUsmyo0d7AHBr-9" vertex="1">
          <mxGeometry x="19.309999999999945" y="41.43000000000001" width="161.38" height="90" as="geometry" />
        </mxCell>
        <mxCell id="380feVYEUsmyo0d7AHBr-13" value="" style="endArrow=classic;html=1;exitX=0.5;exitY=1;exitDx=0;exitDy=0;entryX=0.5;entryY=0;entryDx=0;entryDy=0;" parent="mMBgnrupJotZcHhOcbj2-25" source="380feVYEUsmyo0d7AHBr-7" target="380feVYEUsmyo0d7AHBr-10" edge="1">
          <mxGeometry width="50" height="50" relative="1" as="geometry">
            <mxPoint x="459.5" y="400" as="sourcePoint" />
            <mxPoint x="459.5" y="480" as="targetPoint" />
          </mxGeometry>
        </mxCell>
        <mxCell id="380feVYEUsmyo0d7AHBr-14" value="" style="group" parent="mMBgnrupJotZcHhOcbj2-25" vertex="1" connectable="0">
          <mxGeometry x="280" y="80" width="280" height="200" as="geometry" />
        </mxCell>
        <mxCell id="380feVYEUsmyo0d7AHBr-15" value="" style="group" parent="380feVYEUsmyo0d7AHBr-14" vertex="1" connectable="0">
          <mxGeometry width="280" height="200" as="geometry" />
        </mxCell>
        <mxCell id="380feVYEUsmyo0d7AHBr-110" value="&lt;font style=&quot;font-size: 18px&quot;&gt;α-keto acid&lt;br&gt;&lt;/font&gt;" style="rounded=1;whiteSpace=wrap;html=1;" parent="380feVYEUsmyo0d7AHBr-15" vertex="1">
          <mxGeometry x="80" y="160" width="200" height="40" as="geometry" />
        </mxCell>
        <mxCell id="380feVYEUsmyo0d7AHBr-20" style="edgeStyle=orthogonalEdgeStyle;rounded=0;orthogonalLoop=1;jettySize=auto;html=1;exitX=1;exitY=0.5;exitDx=0;exitDy=0;entryX=0;entryY=0.5;entryDx=0;entryDy=0;" parent="mMBgnrupJotZcHhOcbj2-25" source="380feVYEUsmyo0d7AHBr-1" target="380feVYEUsmyo0d7AHBr-10" edge="1">
          <mxGeometry relative="1" as="geometry" />
        </mxCell>
        <mxCell id="380feVYEUsmyo0d7AHBr-39" value="" style="group" parent="mMBgnrupJotZcHhOcbj2-25" vertex="1" connectable="0">
          <mxGeometry x="840" y="920" width="200" height="186.5" as="geometry" />
        </mxCell>
        <mxCell id="380feVYEUsmyo0d7AHBr-37" value="&lt;font style=&quot;font-size: 18px&quot;&gt;Aspartate&lt;br&gt;&lt;/font&gt;" style="rounded=1;whiteSpace=wrap;html=1;verticalAlign=top;fillColor=#ffe6cc;strokeColor=#d79b00;" parent="380feVYEUsmyo0d7AHBr-39" vertex="1">
          <mxGeometry width="200" height="160" as="geometry" />
        </mxCell>
        <mxCell id="380feVYEUsmyo0d7AHBr-38" value="" style="shape=image;imageAspect=0;aspect=fixed;verticalLabelPosition=bottom;verticalAlign=top;image=data:image/png,iVBORw0KGgoAAAANSUhEUgAAAm4AAAGCCAMAAABuGL9FAAADAFBMVEX///+AAAAAgACAgAAAAICAAIAAgIDAwMDA3MCmyvD/8NT/4rH/1I7/xmv/uEj/qiX/qgDckgC5egCWYgBzSgBQMgD/49T/x7H/q47/j2v/c0j/VyX/VQDcSQC5PQCWMQBzJQBQGQD/1NT/sbH/jo7/a2v/SEj/JSX+AADcAAC5AACWAABzAABQAAD/1OP/scf/jqv/a4//SHP/JVf/AFXcAEm5AD2WADFzACVQABn/1PD/seL/jtT/a8b/SLj/Jar/AKrcAJK5AHqWAGJzAEpQADL/1P//sf//jv//a///SP//Jf/+AP7cANy5ALmWAJZzAHNQAFDw1P/isf/Ujv/Ga/+4SP+qJf+qAP+SANx6ALliAJZKAHMyAFDj1P/Hsf+rjv+Pa/9zSP9XJf9VAP9JANw9ALkxAJYlAHMZAFDU1P+xsf+Ojv9ra/9ISP8lJf8AAP4AANwAALkAAJYAAHMAAFDU4/+xx/+Oq/9rj/9Ic/8lV/8AVf8ASdwAPbkAMZYAJXMAGVDU8P+x4v+O1P9rxv9IuP8lqv8Aqv8AktwAerkAYpYASnMAMlDU//+x//+O//9r//9I//8l//8A/v4A3NwAubkAlpYAc3MAUFDU//Cx/+KO/9Rr/8ZI/7gl/6oA/6oA3JIAuXoAlmIAc0oAUDLU/+Ox/8eO/6tr/49I/3Ml/1cA/1UA3EkAuT0AljEAcyUAUBnU/9Sx/7GO/45r/2tI/0gl/yUA/gAA3AAAuQAAlgAAcwAAUADj/9TH/7Gr/46P/2tz/0hX/yVV/wBJ3AA9uQAxlgAlcwAZUADw/9Ti/7HU/47G/2u4/0iq/yWq/wCS3AB6uQBilgBKcwAyUAD//9T//7H//47//2v//0j//yX+/gDc3AC5uQCWlgBzcwBQUADy8vLm5uba2trOzs7CwsK2traqqqqenp6SkpKGhoZ6enpubm5iYmJWVlZKSko+Pj4yMjImJiYaGhoODg7/+/CgoKSAgID/AAAA/wD//wAAAP//AP8A//8AAABYWvgoAAAAAXRSTlMAQObYZgAAAAFiS0dEAIgFHUgAAAAJcEhZcwAADsQAAA7EAZUrDhsAABFnSURBVHic7d1dd9o8FoZhzviXfc+TJv3PBsepoXiom5UedC0mINuAkWRj7K0tuK+TmcSZjFIe9LltZjMAAAAAAAAAACby1+49dLtwl3Z2m9Dtwl0ibhDEYAoAAAAAAAAMl37mxZdNni1CNwV3Ll2fnhiUq9gT9/11L7Fdejpcan355P5J6yXcIC0uzqjWcQfu9d/ei+3S0+FS60t73NyXMFiysR6K5qHbdQsTt3//WS4Rt6CWpeMQvrCORXGo4vbP8icQt5CWTby2eZamabbaNt+IN2913CzDKXELqElbfpysLdbR562OmyUsxC2cpBpJN+fBWlQ9XBGoWTdr4vbj4h1D3MKpVgnZxYV13OuFJm7/vrcvEbdg5q60NXmLdD/kGLeLuBC3YEpn2mYzsxe3Fm7RSA5x+2EdTolbKJlvgraIuXs7xO37q204JW6hFN5A5RHP3kzcvtmGU+IWyMK/+kzM+alki0Zj4jZ7tgynxC2QzDNz2zPL1qVgi0ZTxW1mGU6JWyBm8eneyjVx/BRs0WjquFmGU+IWyGFdunVfN6NplPcv13GzDKfELZDONJXRTt6auF0Op8QtjLRz5WlWrmINGtExbhfDqTVur1bEbURp59Qsj3bn7Ri3i+HUGjcP4jYOsxJIPT+Rd/6EVidxaw+nxC2M7jDdR9xawylxC+NR4tYaTolbGA8Tt/Ph1Bq35yeLZ+I2okeZu7WG0xs3QvY5nKLFdy/tOMOazVYdxw56ncetGk7NzaU3xC15ruroXp9j/EcJa/kQ+24nX5tvDI/b8+mUznZPIXw6TxXivV+hHbeT4XRw3F7OlxDP07X+PnV1Xot463nbcTsZTofGrerbfry+/qB/G2LVUWD02Tm5U+sibsfhdGDcksMXL9/2//2b6eiYv13FTN5WzuvbaFcKlrg91cPpwLg9nw2g51+hl9KbpzTe+iNL3Gbfq+F0YNxez3/hvn+zPvEGTv67EYp4x1Jb3OrhdGDc9v/12/m1H6M3+76Z+knH7O0z4lsVrHGrhtPnQXH79q/et6uc/RL0Yrq30jacVg8PibNzs8atGk7/DVyZPj2f/T7idr3qESGWR89UafOUlqtmjdvpvfXN9wZW8z61ezv0YJYDu7I9nlZPc4jzNqyZK25P48Xtxfb70SWvcpWfdnDNE7ciHUpdcTsZTptvDYvbt9bKAT01z4BeVZUfyfz4rbBNu4EjbsfhtPnOsLi9sg8y0GrXKIuiOHl0apR3mBquuD2NE7cXOrfBsp3dPHTDbuCKWzOcNt8YErdD2jhTGGhhe/T4OsrDq5ozbvVw2nw9IG4vzl+OXtJ24CL/WAVP3J5ujVty+N1M3G6y+GwSV66zqHu2vcO9BvbJlbkPofkyOXxp/YOtl76RtrGkX2LdaRNS3UkTuhl4CM+kDWJePOcMwLgOaXtlvw0SDml7iX4ZhSh8Z7sNYv5jkYB+lvP5/MYdnoS0je1QUxm6EVPYb2H/ve1X7Cdur61n1ozTuIdF3JySfxYjte5RETenZ+I2OuLm9ELcRkfcnL7bnkw+UuseFXGDIOIGQcQNgogbBBE3CCJuEETcIIi4QRBxgyDiBkHEDYKIGwQRNwgibhBE3CCIuEEQcYMg4gZBxA2CiBsEETcIIm4QRNwgiLhBEHGDIOIGQcQNgogbBBE3CCJuEETcIIi4QRBxgyDiBkHEDYKIGwQRNwgibhBE3CCIuEEQcYMg4gZBxA2CiBsEETcIIm4QRNwgiLhBEHGDIOIGQcQNgogbBBE3CCJuEETcIIi4QRBxgyDidg/+2r2HbtcF4nYPdnab0O26QNzuAXEL7aHixmAa2kPFLRrEDYKIGwQRNwgibhBE3CCIuEEQcYtJ+pkXXzZ5tgjdlGGIWzTS9emJQbmKMXHELRJpcXFGtY4vcMQtCsnGeiiah27XtYhbDJal4xC+SEI37TrELQLLJl7bPEvTNFttm2/ElTfipl+Ttvw4WVuso8wbcVMvqUbSzXmwFlUPVwRq1iDETb1qlZBdXFjHt14gbtrNXWlr8hbRfghx0650pm02M3txa+EWDbf8H3HTLfNN0BZRdW/J348dcdOt8AYqj2j29v6nWkyHbsgU7iRuC//qMzlcLiVbNNBbs1VI3PTKPDO3PbNsXQq2aJDF6Ylv6MZM4U7iZhaf7q1cE8dPwRYNkKzMpG33vzlxU+2wLt26r5vRVN/9y6feq33qMmMjRLnONJXaJ29pNWn7WCXsuymXdq48C93ToeRXNWH7dVhcL/1Tg3htotr/dEk7p2a56p23vJq0bVPz9Vfcfpd/9D1M4kbL4mNbbneF1pehL7MSSD0/kXf+RDhZNWk75mtZ/j6k7y1ks8aWrPdvqv2c4eNv3D13d5j0xs2cWJ2/BuaV2U9HY+8Ijn6a7ett650Vo3jj1gSrNcI0IVzF3RHU6u3rP6vWvCFG0cYtr06sfl8Om/UQW0bdERj19vW+B2+timIU6dxt/rt6y1vX1G/14WnMHcFeXXNQ9+DR99xmZeo+w5rNVjt1ewvNW35ta9bZedYvVQ2/Ul1zcLLwyY472jEytylEte92fMvbTnKbq/V/xFHNYlFvX5/34MfzOvXn2DaHpvtOFcwrK9aeTvVb3v7+Prn6HnVHsPjl6sEXzRQuwp67q/MyBUpq9rObEytrp3V+NeKOoGm6tQf3/yOoZqZm7tfjs3NyJ8j/xr686p/k6dU5Q6s78d9z0XbdzkzeVs7r5o2k4tVq3vJb66TNui/1Zp0A6dasPz1t9k9gFSu9eUo753Zi3r3bac7Nttg6gqTn1CzSntt/N0KhZSz1bzn5rrqOH3TK+883m547pu1sUz/pmL2ZmVv4ajf/hnpz1RGo5cnWvG7z6w5E8suNOZ2S49BiurfS2mnsdHRuTZmR9Z/Vf/WgOYVQ3RE0b4vehwaR9Nz5x5/mL6oeEWJ59EyVNk9puYj5RZnR2dV+SdLfETTRuepINIKe+/D6HbfS0qoDb4+n1dMcAt+G5f/3XPaeMGs/4B78flBekVC9Qh/Hf/W8eiHy05eseeJW0KHUP1ocr/Z5S2g+4L5p2t8uaVbE+vo1z4BeVQ1O5sdvhWmnkXt3Ma7e49DaESxuHBHV9tyO12+1a5RFUZw8OjXkHab+PdpBO7jeneJA2mVGQxx77hEbdiv3K5Tt7ALujfYsM7ryoFrfAfdI+9DqKhKaV8j2+i1sjx4PuGHdvOWt+523nL7rOuC2lxkNoasiwf/6fUnbgQv5sQodZUa3vZP1dATuMqNbfpuCntv/+hmLzyZx5ToL2OSeZUaD5ymdbz0Z4/dHbzp67isGkPRL2N64b5nRLZ2vhgPuSQrBFVQkKOpku9kLiRqj7TGFLk3qU2Y0ROjSpI7XTxn/1tioG2c/3fcOTq5vmdEQQXturVubVj3LjEY6Hwx3wD3xOUCwigTNBzcX/IVEydp3dZgwB9xXlhkNEaQioasQTJeOMqNp/gHlO4Lry4yGCNBz9ygE08P/ujdXf47+fyx7wC0XA+GBLY6Swoq/kKh/mdEQkgfcooOc4LQ9grK7I38h0fRLe6mOQPzuAqGe+7pCsND8W5MiG5cSHcGtZUZDiPTcP8NvLffnP3iROpaZ/IA71Pbr5BUJoffLr+IvJGrqVATOQ6Y9ewl4uDRpRYK3zEgbf58iXVIzXUcwXpnRENP9OyqpdejJ/74LUCfU1M2M2geFP7OeqA/qU2akhr+Q6OzTOcRMMMPSUfY4wQxLV51qB38hUbibPcY+4FZTyzny7DF8l32VpHp8+7RlRkO8eR/8ex1Nt6yMuTumt8wo2RdsWvqo/d2t9v3Oy0/nEDbW3r+2G/JG2/tXWma0XDXPZd6u2p34b8eN8SOXGQ0xzsmmwtuNRznZVFpmlJ3cr3pwdpv+7M1/Y3zYDuH2jkBpD3Bzz620zGjeDtshcB3/I8+nc0i7bUjXe2Z9Y1x0lhk1xZAtW9/f6P90DnHDB0MtfbTdDYOh0jKjZHuSsKI4/WQN57JIw91R54ZO9dU/3WvgQD9tIdhwTdrKVZWuRVb486bzPGQ5YLP5bbpS0PEM2MjQW2ZUp+1sazMtPHlTex5y7Tatvj7a7uptWgV3sDpUD1TatP+Q6kFylw/K1HwectUhVOi7PK9x1T+64jKj6nGYlo+aqR601Gqy9vOQ/u3T2wNY9e65hz5vSkTpSluTt9OZt//TOXToV+SpuY+26zdh1jmtrplIOT61bdOOov/TOdTo7re099F2PaaaaooM7Mx73PFGMB/pdvIpNWY+p+w8xKJjVqajzGiIjlmZ9i7bPB7f+blGJl7HZ7AenrO/0bgb2ubrCJT3AH6eW1vGed7UlEye3GOOmacdv/Gudze0zXVztdIz696chyBqy4yOuj4h9eIzBHVP2s7Zzgu0lRkNYT3iVVpkcM4/ltafsxXHTsGly45AYZnREBenoXF02WbTzTOv7PwB5c7r8YKXgo7nrNZDaZnRhayz8zJ/hViDxneMmN4yoyGSKm9fK7c6euq7BbNS8A0sZexxO3YEf6LoAXprKhSP9TzaJz15eyVwoWstEYNqrDnETUEp6EjK+k86xO3jI4K4dYfpHuJWbX/+UXlmPdg+btl+82P/txXLkrgp8l7u/mgvM7qOydfi11fc9lu+xE2VZLWJ7cTKr85X+is//VKzB4rb3WnlK4a45cQtWtHGzbcREv2+292KMG7zru2a5PAD1uJLhBVh3EzFh+cJLLEfYt2xCONmxsqt+/qqc7RFIDHGzdw+7z7WKVkpaBVj3Ob+wTJl6qZWjHEzo6nz1LSI4uT3MUUZt9y3WDB9XynbIvQTZdwST+lKdS3GG0geQJRxq5/NYDlPrB5VQ+emU5xxq59Ic7HZkbguQIVI42ZuNb1YnlbPDvHtASOkSONWPwrk7C7f5nlbnru0EFSscWvy9hWufJ6m6ee6qYMv7qkg8b5EG7dm4LzABq9e8cbt+Eiwc7E0/yFFHDfrk+5zBlLNoo7bV+A2p1nbZoRNt8jj9iXNV8WXdT4na+rFHzdEhLhBEHGDIOIGQcQNgogbBBE3CCJuEETcIIi4QRBxgyDiBkHEDYKIGwQRNwgibhBE3CCIuEEQcYMg4gZBxA2CiBsEETcIIm4QRNwgiLhBEHGDIOIGQcQNgogbBBE3CCJuEETcIIi4QRBxgyDiBkHEDYKIGwQRNwgibhBE3CCIuEEQcYMg4gZBxA2CiBsEETcIIm4QRNwgiLhBEHGDIOIGQcQNgogbBBE3CCJuEETcIIi4QRBxgyDiBkHEDYKIGwQRNwgibhBE3CCIuEEQcYMg4gZBxA2CiBsEETcIIm4QRNwgqNhut6nzSwAAAAAAAADDJemXRehW4AEsV8Wusl1xooApZeXuXJ6EbhLu1bwdtkPgQrcKdylZW8K2H1OZxWF0yfYkYUVRnARuGbptuDdN2spVla5FVpA3TKNOW3b6zbQgb5jAysRq016I5tXoygIV40lNqtaXVzLWpxhb6UpbkzeWpxiLiVRhv7hxRxEYYOtbDyxM98bsDeNYmmWC67JZLnxKtgh3zOTJeR5vuretZItwx8zumvv6ltEU4/GPpbPZp7/3A66Qdu2sdf4A0FvW2Xn59kmAq5iVgu/hDCVxw1jyzpVA11oC6K07TMQNoyFuEETcIIi4QVBO3CCneyOEfTeMZt61zZtQ8YbRmIqPlfsHOMTCiLoKjFadoy3Q27rjboSSlQLGM/cPlilTN4zJfzdCQbkbxpT7Fgum7ytlW4Q7ZnY67B1YdS2zXQOGqJ7NYLn1r3pUDZ0bRlQ9keZisyNxXQCGM7eaXixPq2eH+PaAgetVjwLZlSeTtOZ5W567tIAh6rx9hSufp2n6uW6e1FtwiynGlu4c2ODFBBaFNW3s72Ialifd88EKmM58c5q1bUbYMK00XxVf1vmcrAEAAAAAAAAAJvF/2CA5YiHOPHUAAAAASUVORK5CYII=;" parent="380feVYEUsmyo0d7AHBr-39" vertex="1">
          <mxGeometry x="14.27000000000021" y="40" width="171.45" height="106.5" as="geometry" />
        </mxCell>
        <mxCell id="380feVYEUsmyo0d7AHBr-74" value="" style="endArrow=classic;html=1;curved=1;entryX=0.5;entryY=0;entryDx=0;entryDy=0;" parent="mMBgnrupJotZcHhOcbj2-25" edge="1" target="380feVYEUsmyo0d7AHBr-23">
          <mxGeometry width="50" height="50" relative="1" as="geometry">
            <mxPoint x="264.75" y="560" as="sourcePoint" />
            <mxPoint x="265.75" y="880" as="targetPoint" />
            <Array as="points" />
          </mxGeometry>
        </mxCell>
        <mxCell id="380feVYEUsmyo0d7AHBr-80" value="&lt;font style=&quot;font-size: 18px&quot;&gt;α-ketoglutarate&lt;br&gt;&lt;/font&gt;" style="rounded=1;whiteSpace=wrap;html=1;" parent="mMBgnrupJotZcHhOcbj2-25" vertex="1">
          <mxGeometry x="640.6600000000001" y="360" width="200" height="40" as="geometry" />
        </mxCell>
        <mxCell id="380feVYEUsmyo0d7AHBr-109" value="&lt;font style=&quot;font-size: 18px&quot;&gt;L-Amino acid&lt;span style=&quot;color: rgba(0 , 0 , 0 , 0) ; font-family: monospace ; font-size: 0px&quot;&gt;%3CmxGraphModel%3E%3Croot%3E%3CmxCell%20id%3D%220%22%2F%3E%3CmxCell%20id%3D%221%22%20parent%3D%220%22%2F%3E%3CmxCell%20id%3D%222%22%20value%3D%22%26lt%3Bfont%20style%3D%26quot%3Bfont-size%3A%2018px%26quot%3B%26gt%3B%CE%B1-ketoglutarate%26lt%3Bbr%26gt%3B%26lt%3B%2Ffont%26gt%3B%22%20style%3D%22rounded%3D1%3BwhiteSpace%3Dwrap%3Bhtml%3D1%3B%22%20vertex%3D%221%22%20parent%3D%221%22%3E%3CmxGeometry%20x%3D%221320.66%22%20y%3D%22440%22%20width%3D%22200%22%20height%3D%2240%22%20as%3D%22geometry%22%2F%3E%3C%2FmxCell%3E%3C%2Froot%3E%3C%2FmxGraphModel%3E&lt;/span&gt;&lt;br&gt;&lt;/font&gt;" style="rounded=1;whiteSpace=wrap;html=1;" parent="mMBgnrupJotZcHhOcbj2-25" vertex="1">
          <mxGeometry x="640.6600000000001" y="240" width="200" height="40" as="geometry" />
        </mxCell>
        <mxCell id="380feVYEUsmyo0d7AHBr-111" value="" style="curved=1;endArrow=classic;html=1;strokeColor=#000000;exitX=0.25;exitY=1;exitDx=0;exitDy=0;entryX=0.75;entryY=1;entryDx=0;entryDy=0;" parent="mMBgnrupJotZcHhOcbj2-25" source="380feVYEUsmyo0d7AHBr-109" target="380feVYEUsmyo0d7AHBr-110" edge="1">
          <mxGeometry width="50" height="50" relative="1" as="geometry">
            <mxPoint x="710" y="520" as="sourcePoint" />
            <mxPoint x="760" y="470" as="targetPoint" />
            <Array as="points">
              <mxPoint x="640" y="320" />
              <mxPoint x="560" y="320" />
            </Array>
          </mxGeometry>
        </mxCell>
        <mxCell id="380feVYEUsmyo0d7AHBr-112" value="" style="curved=1;endArrow=classic;html=1;strokeColor=#000000;exitX=0.25;exitY=0;exitDx=0;exitDy=0;entryX=0.75;entryY=0;entryDx=0;entryDy=0;" parent="mMBgnrupJotZcHhOcbj2-25" source="380feVYEUsmyo0d7AHBr-80" target="380feVYEUsmyo0d7AHBr-7" edge="1">
          <mxGeometry width="50" height="50" relative="1" as="geometry">
            <mxPoint x="710" y="520" as="sourcePoint" />
            <mxPoint x="760" y="470" as="targetPoint" />
            <Array as="points">
              <mxPoint x="640" y="320" />
              <mxPoint x="560" y="320" />
            </Array>
          </mxGeometry>
        </mxCell>
        <mxCell id="380feVYEUsmyo0d7AHBr-113" value="&lt;font style=&quot;font-size: 18px&quot;&gt;Glutamine&lt;/font&gt;" style="rounded=1;whiteSpace=wrap;html=1;fillColor=#f8cecc;strokeColor=#b85450;" parent="mMBgnrupJotZcHhOcbj2-25" vertex="1">
          <mxGeometry y="240" width="200" height="40" as="geometry" />
        </mxCell>
        <mxCell id="380feVYEUsmyo0d7AHBr-114" value="" style="endArrow=classic;html=1;strokeColor=#000000;exitX=0.5;exitY=1;exitDx=0;exitDy=0;" parent="mMBgnrupJotZcHhOcbj2-25" source="380feVYEUsmyo0d7AHBr-113" target="380feVYEUsmyo0d7AHBr-5" edge="1">
          <mxGeometry width="50" height="50" relative="1" as="geometry">
            <mxPoint x="340" y="440" as="sourcePoint" />
            <mxPoint x="390" y="390" as="targetPoint" />
          </mxGeometry>
        </mxCell>
        <mxCell id="380feVYEUsmyo0d7AHBr-115" value="" style="endArrow=classic;html=1;strokeColor=#000000;exitX=0.5;exitY=1;exitDx=0;exitDy=0;entryX=1;entryY=0.5;entryDx=0;entryDy=0;rounded=1;" parent="mMBgnrupJotZcHhOcbj2-25" source="380feVYEUsmyo0d7AHBr-10" target="380feVYEUsmyo0d7AHBr-23" edge="1">
          <mxGeometry width="50" height="50" relative="1" as="geometry">
            <mxPoint x="690" y="880" as="sourcePoint" />
            <mxPoint x="740" y="830" as="targetPoint" />
            <Array as="points">
              <mxPoint x="460" y="860" />
            </Array>
          </mxGeometry>
        </mxCell>
        <mxCell id="380feVYEUsmyo0d7AHBr-116" value="&lt;font style=&quot;font-size: 14px&quot;&gt;Glutaminase&lt;/font&gt;" style="ellipse;whiteSpace=wrap;html=1;fillColor=#ffe6cc;strokeColor=#d79b00;" parent="mMBgnrupJotZcHhOcbj2-25" vertex="1">
          <mxGeometry x="211.5" y="530" width="108.5" height="40" as="geometry" />
        </mxCell>
        <mxCell id="380feVYEUsmyo0d7AHBr-118" value="&lt;font style=&quot;font-size: 14px&quot;&gt;Glutamate&lt;br&gt;dehydrogenase&lt;/font&gt;" style="ellipse;whiteSpace=wrap;html=1;fillColor=#ffe6cc;strokeColor=#d79b00;" parent="mMBgnrupJotZcHhOcbj2-25" vertex="1">
          <mxGeometry x="325.75" y="730" width="132.26" height="60" as="geometry" />
        </mxCell>
        <mxCell id="380feVYEUsmyo0d7AHBr-122" value="&lt;font style=&quot;font-size: 16px&quot;&gt;PLP&lt;/font&gt;" style="rhombus;whiteSpace=wrap;html=1;" parent="mMBgnrupJotZcHhOcbj2-25" vertex="1">
          <mxGeometry x="570" y="190" width="60" height="150" as="geometry" />
        </mxCell>
        <mxCell id="380feVYEUsmyo0d7AHBr-124" value="&lt;font style=&quot;font-size: 14px&quot;&gt;Aminotransferase&lt;/font&gt;" style="ellipse;whiteSpace=wrap;html=1;" parent="mMBgnrupJotZcHhOcbj2-25" vertex="1">
          <mxGeometry x="530" y="290" width="140" height="60" as="geometry" />
        </mxCell>
        <mxCell id="380feVYEUsmyo0d7AHBr-150" value="" style="endArrow=classic;html=1;strokeColor=#000000;fontSize=18;exitX=0.5;exitY=0;exitDx=0;exitDy=0;entryX=0.07;entryY=0.4;entryDx=0;entryDy=0;entryPerimeter=0;rounded=1;" parent="mMBgnrupJotZcHhOcbj2-25" source="380feVYEUsmyo0d7AHBr-110" edge="1">
          <mxGeometry width="50" height="50" relative="1" as="geometry">
            <mxPoint x="780" y="360" as="sourcePoint" />
            <mxPoint x="807.8400000000006" y="68" as="targetPoint" />
            <Array as="points">
              <mxPoint x="460" y="68" />
            </Array>
          </mxGeometry>
        </mxCell>
        <mxCell id="380feVYEUsmyo0d7AHBr-152" value="" style="endArrow=classic;html=1;strokeColor=#000000;fontSize=18;exitX=0.8;exitY=0.8;exitDx=0;exitDy=0;exitPerimeter=0;rounded=1;" parent="mMBgnrupJotZcHhOcbj2-25" target="mMBgnrupJotZcHhOcbj2-1" edge="1">
          <mxGeometry width="50" height="50" relative="1" as="geometry">
            <mxPoint x="1050.0000000000002" y="69" as="sourcePoint" />
            <mxPoint x="1209.9279999999997" y="240.00000000000023" as="targetPoint" />
            <Array as="points">
              <mxPoint x="1310" y="69" />
            </Array>
          </mxGeometry>
        </mxCell>
        <mxCell id="mMBgnrupJotZcHhOcbj2-1" value="&lt;font style=&quot;font-size: 24px&quot;&gt;Citric Acid Cycle&lt;/font&gt;" style="shape=parallelogram;perimeter=parallelogramPerimeter;whiteSpace=wrap;html=1;fixedSize=1;fillColor=#ffe6cc;strokeColor=#d79b00;strokeWidth=10;fontSize=18;" vertex="1" parent="mMBgnrupJotZcHhOcbj2-25">
          <mxGeometry x="1140" y="480" width="340" height="160" as="geometry" />
        </mxCell>
        <mxCell id="380feVYEUsmyo0d7AHBr-16" value="&lt;font style=&quot;font-size: 18px&quot;&gt;Oxaloacetate&lt;br&gt;&lt;br&gt;&lt;/font&gt;" style="rounded=1;whiteSpace=wrap;html=1;verticalAlign=top;fillColor=#ffe6cc;strokeColor=#d79b00;" parent="mMBgnrupJotZcHhOcbj2-25" vertex="1">
          <mxGeometry x="840" y="480" width="200" height="160" as="geometry" />
        </mxCell>
        <mxCell id="380feVYEUsmyo0d7AHBr-18" value="" style="shape=image;imageAspect=0;aspect=fixed;verticalLabelPosition=bottom;verticalAlign=top;image=data:image/png,iVBORw0KGgoAAAANSUhEUgAAAoMAAAF7CAMAAACemXFVAAADAFBMVEX///+AAAAAgACAgAAAAICAAIAAgIDAwMDA3MCmyvD/8NT/4rH/1I7/xmv/uEj/qiX/qgDckgC5egCWYgBzSgBQMgD/49T/x7H/q47/j2v/c0j/VyX/VQDcSQC5PQCWMQBzJQBQGQD/1NT/sbH/jo7/a2v/SEj/JSX+AADcAAC5AACWAABzAABQAAD/1OP/scf/jqv/a4//SHP/JVf/AFXcAEm5AD2WADFzACVQABn/1PD/seL/jtT/a8b/SLj/Jar/AKrcAJK5AHqWAGJzAEpQADL/1P//sf//jv//a///SP//Jf/+AP7cANy5ALmWAJZzAHNQAFDw1P/isf/Ujv/Ga/+4SP+qJf+qAP+SANx6ALliAJZKAHMyAFDj1P/Hsf+rjv+Pa/9zSP9XJf9VAP9JANw9ALkxAJYlAHMZAFDU1P+xsf+Ojv9ra/9ISP8lJf8AAP4AANwAALkAAJYAAHMAAFDU4/+xx/+Oq/9rj/9Ic/8lV/8AVf8ASdwAPbkAMZYAJXMAGVDU8P+x4v+O1P9rxv9IuP8lqv8Aqv8AktwAerkAYpYASnMAMlDU//+x//+O//9r//9I//8l//8A/v4A3NwAubkAlpYAc3MAUFDU//Cx/+KO/9Rr/8ZI/7gl/6oA/6oA3JIAuXoAlmIAc0oAUDLU/+Ox/8eO/6tr/49I/3Ml/1cA/1UA3EkAuT0AljEAcyUAUBnU/9Sx/7GO/45r/2tI/0gl/yUA/gAA3AAAuQAAlgAAcwAAUADj/9TH/7Gr/46P/2tz/0hX/yVV/wBJ3AA9uQAxlgAlcwAZUADw/9Ti/7HU/47G/2u4/0iq/yWq/wCS3AB6uQBilgBKcwAyUAD//9T//7H//47//2v//0j//yX+/gDc3AC5uQCWlgBzcwBQUADy8vLm5uba2trOzs7CwsK2traqqqqenp6SkpKGhoZ6enpubm5iYmJWVlZKSko+Pj4yMjImJiYaGhoODg7/+/CgoKSAgID/AAAA/wD//wAAAP//AP8A//8AAABYWvgoAAAAAXRSTlMAQObYZgAAAAFiS0dEAIgFHUgAAAAJcEhZcwAADsQAAA7EAZUrDhsAAA/HSURBVHic7d1bk6JIEIbhufP//0WQYQYZWIbucO5ctQo8AaUtkJnV7xOxEdttx0a5fCZ1ovzxAwAAAAAAAAAAAAAAABfbvKjqo2K/lW7KrJKs2J3eV1lsEum2YEK6aw9Xyky6QXPJq+v31eyJoVJpebhXR5HCvH14YwUp1Kh4uFAnlfmLtW0G39hGul24l9SDV+pwaI33C/OR93XYSbcMt5K+WLS7fZZlm+KSSdMhvESwKjbHN7Yv+xtzKd02XOsjWF4ClxQRhLCLYJtf+hRZTQgV8sPG5jZtSTdIMdsn3Po3UNz+Ohv+NQTtx+qCLyO1QJvmkLQjhbyr+1EM+6OQjt+afAiNDiJ3o30JH8Jm/TZhUDnRO3KdwnblFs0jnejOJu61fO02YVA62elr7V6rcqrTlxv+cMWnmExZZrZHmEynrKZHqEc7PfZ1Pad0zRbNI58e+26Yn1EjDVwLN2jer9iimZSBD4/rgqzYIIzJAyNfl9FqxRbNpA2MfMvxEQvWVYamoRub9cJ9diZWhTdWC3x86lDEQvc0pbJQxEKdEKwmOO4tbA4gw802O+KPTrC7l9mcISyC3b2aGUId0ukZjB9dBs2t75fBbmywF4J1hBNmNIPhhJFBJcggpJFBSKM/CHHBWbJNYCFFqSI4rdkEFlKwlljnB/fMD5oRvCNVNm9ZwXWSrc0+RoyCc7mt0anc0OR7bnPuPUahpfttsMOoVGivRRXsMGIth+mu+c7mkKTrEI42PAm8b6yonOy8+4d/Vm3RPNLpMUcR6i9iPdNPjBRWb8WBJ0b8Z4tbsQ71REXYGr5U7sPVDm/Prex+tmLkj74YGhr7Z8GNXqp6fGicG/5sRakaC2F3JobRS+WL+MAnyEeQ89/U8H2jh7my7vhIsx13f3RYfX879r8fuU1DQncQVXVd8PrD34zeiU/qoU9Xf/gbz9Rp0h8VWXbH1me77leWp9D6gxXb7nsG0rw/3dPgnGfUro/Mrev66gzn0vQN6/qM4+b4xq7eprldGNHbPh5ef2Z+TX83/L4absT6JEMH89cRXKls6GB+8x+tSD18QUkVye0qv0thy9eT6JXkl2Prq73RWcEh28v3DDQ7xiLqbbMj6UYsIDm9r4g+VwAAAAAAAMCsfh9uNsnc/WjYad59M/ojFCGDkEYGIY0MQhoZhDQyCGlkENLIIKSRQUgjg5BGBiGNDEIaGYQ0MghpZBDSyCCkkUFII4OQRgYhjQxCGhmENDIIaWQQ0sggpJFBSCODkEYGIY0MQhoZhDQyCGlkENLIIKSRQUgjg5BGBiGNDEIaGYQ0MghpZBDSyCCkkUFII4OQRgYhjQxCGhmENDIIaWQQ0sggpJFBSCODkEYGIY0MQhoZhDQyCGlkENLIIKSRQUgjg5BGBiGNDEIaGYQ0MghpZDAiv/8NKqTbFUAGI9IcBrXS7QoggxEhg7p8xwxyL9blO2bQKDIIaWQQ0sggpJFBSCODkEYGIY0MGrTNi6o+KvZb6abMgQxak+7a60WQMpNu0NvIoC1p+bAUV1tPIRk0pRhcEK4S6Xa9hQwaktTDmxIOrel+IRm0I+n3xbS7fZZlm+KSScshJINm9BEsL4FLighCSAbNqFzYmtu0Jd0gxW6fkAxasfdF8OGF3A+PBdo0DzJoRDoWwT6EZt8eGTSiHI1gN2Ojfcv+KDJoQzrZ6XMrJ/m6TZoNGbShmExZZrpHSAZtaKfHvm7aJl2zRfMhgyakE73BEzdo3q/YohmRQRPywMjXZbRasUUzIoMmlKFpaHczXq9BcyKDJtShiJWGO4R96NLs5kfz+tD9TG5+tCk47nXjZps7CX3okt3nR72NMINZ03wUP+LI4FR3LzM8Q+hC9+t4iT4On2USWQbTP8e3czj83RjPoBtyTJ0bkwX/Qq9T6P7+d2r/x+mfP1Fl8M/n4ZzB423sw3QGwwmznkHno/uXeDLo3k7/DsmgTn0Gmz9xZbD7SH3+a8mgaht/qT5+/fix/c9fq392t0N2ku4TVafHMeOn+/f2p3Szviri/uC27mqFS13uS0b7S7hh7yr8R6txqesT+cfmBJofF48v1R2Lic1Kn5Sfl1rhdSWjsTnT5Gz+Xoq719X4z53NGu+u08Qf2Jwf/O1rxd+bD09qvmT0xb28idsv0zU+uE5Shf5AoZ9+uPjx0IXI/CufBjsXx+L+ryvu9w+aJTv/yn8GH0FzZW6i4edPmKmd1OlwrfD6kmFv2v3XYHH3LjXe3A3ZdffG92Ztgx1GZfpaMVYRgn+g1M9QCQ/+gVqulz768s7YkOSZMtcVysNgodQprZ4oc12hbO1cr7NycsyRHEx1B5/t7o13GHV6trs33mFUbfqJkcLSrfiVLtFk30qbF/qw051hreqJHqHrDRrZPfja9N9lAlF7yeiL+3PTf/0Eovoaf5lIcoVwcGjsD6IxUQZfXwa5X0jR6QvLIHcLKUodL9ilWFRjIezOQjJQBr+2VDCw5qDNl9Z2hhaJlDlfsMtQ2I87Hvapbn0E9T9U1x/P9PL/8/4S6ywZXXF/+UPSfyZ11vjuQ/JwNz5U11ewP/xN/534nXtPf6ur9JWMt4L05fiuoLtgf68umD/b6Ji3jX+32a77lfoNd+/eULWu+L99Q9W6RWNk0NSH8PSW6/rq64q1D/FHFvFfonJX1wwDC5W7usYnj7Y3XwtxoXx8P9OcbD8FrKZkzDTB8uK0zvImF0qToYP5tU+dzTfRrGvFf8aJZl1bNPrFxJHWPHxBSaWlKIyYd41ez66ueRfcFO3qeuaCJXnZ35KrvaI+xJCnFvFfEvqQrmT2ZvRbNGRr/Au3mm12tEab3rLIp1vDrq5FyrGCXV2XLrd4OZ7JUr0c6RX/xbql0ls0bD9sMGC74GhPclfXkl030V1dWqdgv2zpWa9CqmQsXCvmmEn9EpXTlG9ZfvZfZsV/hVohs0VD+ZL869ZZBV1/V9dKtWL9XV2al62/ZL1srPy/brVacXNMyPJEtmimzbDfM/y3171Hrrjiv1kz8CuOD4S2MfrN/w/+vf+fXnussFZXevVasdYWDanB3WIZlJgzWXIOqCNSK9bYovFT7LGWZDPszUkpqbnjxadWhWrF4gfvSE/2z05wDW3ZFX/BCfFFt2hoWPScl+xeguV2dQnXiuV2dSnZ/DEf+T1Vy6z4y9eKhVogf8FmpmNv6QLnuKioFQscvKPjgs1Jyx77uVf81dSKmXuk8e3Q0vSs0ZydN1W1YvjE2q8xtkPrtFN2+rOibcNPv+L/7pqPluLuzTZDqe2CTUn3XTfk0Jb5SHtXXth8yiwr/pqKuzfLSo3mwwLuZX0Au/7wUJt1HtvzfslQWive39VlaIfW9j6B5xTeXw+9ZxG9d46LxuLuvZehVXddvGk/kMCTm56R2Ibfp7yxq0t1rXjjXmrjED3v6gnmtq7rq7MdrmbJttrPpvziri69xd37Yj/BwEFzV/oIln4eINmUAyE8f6o0n9H7lV1duou795XxktjjN1/SHeVVXF+F/nSHSwiPhVB87jbgco7Lc39v5eDhl+eYjR0uvxl5d/73V+fA/tEwdxvw0oq/9NO9L3hp/tzaDi1/2mvz2Fq/73XqS/MUen5Xl7Fa8fQ6ovyui1eVYxHsQ2htp89z57goOe3lFc/tp1Cx6+Il7ouSD8PXwU3ZmPpSvLPwri5Fp1694IkKp2bXxQvcgGTseHX3hvT3lh4Eenq6Tv97QaCnp2rXxdNck8dedaeyV2s2aCZTI95XR8+qTDyTpO/Y2qe4kI1fi3biTq3c2Myf+WNWhk7PP1G46+Ipoa9Jtvb1oDcGV0C0nor/gsEVEKW7Lp4Q+rr4baBOKvewzcdqrbjzsBJsaYfWPfdxeucPdLvdEaP8W5JecbtFQ/Wui4A0WOZChVK9yz0q/fI3l6nkOxrHTkW3Q8tmrXBDkqmppNJ6Bi8lo7FbK4Z0Z88fPrp/meP0oPVlwSGHG7TY7b+fuTmLcwbffupEjVMG20sGP6xmMJywKDLo5m4bO4v4zzhl8N9psv2Uvr+bigxqlzXHDCrfofUaF7pk9/lxnq8mgwb8qoxOc47oQpf+ORd3MojV3YXObAazJzMY0z0sFnFlcGpuprI/NxOpWDKYBOeozxMa9nYQfgOxZNDti2km/sDu/Hvsosmgu9WOT5ptgjdrCIkmg/k5Y+O7iUuGJFpFk8Fk+l7rXqY7qFE0GfQ347HZmSI4ZoGUeDLoZmdGRiX+obsotjpFJ54M+g2Cw6XOvVau3CI8JaIMukI4OCwpKYOKRZTB7sijx0eMfQSZmNEppgwmfn9xdTtLmHbbjoWahYCYMnj5Ts+rw9/6Zy/aeDZ9RiaqDF59sWxd5FmW5bum+0XL9LRWcWWwv+8+GDyOCypElsEfyW4wggxHFIstg4NfDjH4BSXQIr4MHlNYXgewLUigbjFm8Gi7L+qjqsgJoHqRZhCGkEFII4OQRgYhjQxCGhmENDIIaWQQ0sggpJFBSCODkEYGIY0MQhoZhDQyCGlkENLIIKSRQUgjg5BGBiGNDEIaGYQ0MghpZBDSyCCkkUFII4OQRgYhjQxCGhmENDIIaWQQ0sggpJFBSCODkEYGIY0MQhoZhDQyCGlkENLIIKSRQUgjg5BGBiGNDEIaGYQ0MghpZBDSyCCkkUFII4OQRgYhjQxCGhmENDIIaWQQ0sggpJFBSCODkEYGIY0MQhoZhDQyCGlkENLIIKSRQUgjg5BGBiGNDEIaGYQ0MghpZBDSyCCk7Zqm+T36IwAAAAAAAIBvIDvaSjcC31W6rw9eW+aJdHPw7WR9AL0ylW4SvpXtfQLPKaQWYjX7gQSeZNINw3dRXlLX1nXdXn7MpZuG76GPYLlxv0g2JSHEinY+bsV19y8tCSHWsnFZa+5nBf3vD8wWYmGJj+DjGHjrXqkFGoVvpRyLYB9C7sZYVOpyNjwT6KZs2pWbhG/GDUj2I68251c3q7YI340rg2OvZudXqzUbhO/GhWw3+no7cacG5lAEpl923IyxsHryVtwNjcfrJPCu4AwgU4RYVhosc6FCCbzHDUmKib8oySAWlQWHHAX7CLGocMLIIJZFBiGNDEIaGYS07MkMso8VSwnPzVTMzWBRSXCOumEHIZZ13hfTTPwBa3VYWBXYm7UJ3qyB9+SBJ0ZKhiRYWDJ9r014oASLqyZnZwq2D2JxbnZmZFTiH7rjEDgsqp4ode61cuUW4btxhXBwWFJSBrEKf+TR4yPGPoJMzGBpiXuQ/VDdzhKm/tdTE9jAPPyxMjeHv/VHv7U8W4wV9CE81EWeZVm+a7pftExPYxVpn7k7g8dxAQtIdoMRZDiCFQ18OQRfUIKVbcvrALYFCYSA7b6oj6oiJ4AAAAAAAAAAADz4HzHb600fMjhSAAAAAElFTkSuQmCC;" parent="mMBgnrupJotZcHhOcbj2-25" vertex="1">
          <mxGeometry x="865.05" y="529.25" width="149.9" height="88.5" as="geometry" />
        </mxCell>
        <mxCell id="380feVYEUsmyo0d7AHBr-33" value="&lt;font style=&quot;font-size: 18px&quot;&gt;α-ketoglutarate&lt;/font&gt;" style="rounded=1;whiteSpace=wrap;html=1;verticalAlign=top;fillColor=#ffe6cc;strokeColor=#d79b00;" parent="mMBgnrupJotZcHhOcbj2-25" vertex="1">
          <mxGeometry x="360" y="920" width="200" height="160" as="geometry" />
        </mxCell>
        <mxCell id="380feVYEUsmyo0d7AHBr-36" value="" style="shape=image;imageAspect=0;aspect=fixed;verticalLabelPosition=bottom;verticalAlign=top;image=data:image/png,iVBORw0KGgoAAAANSUhEUgAAAtsAAAF7CAMAAAA0WrfpAAADAFBMVEX///+AAAAAgACAgAAAAICAAIAAgIDAwMDA3MCmyvD/8NT/4rH/1I7/xmv/uEj/qiX/qgDckgC5egCWYgBzSgBQMgD/49T/x7H/q47/j2v/c0j/VyX/VQDcSQC5PQCWMQBzJQBQGQD/1NT/sbH/jo7/a2v/SEj/JSX+AADcAAC5AACWAABzAABQAAD/1OP/scf/jqv/a4//SHP/JVf/AFXcAEm5AD2WADFzACVQABn/1PD/seL/jtT/a8b/SLj/Jar/AKrcAJK5AHqWAGJzAEpQADL/1P//sf//jv//a///SP//Jf/+AP7cANy5ALmWAJZzAHNQAFDw1P/isf/Ujv/Ga/+4SP+qJf+qAP+SANx6ALliAJZKAHMyAFDj1P/Hsf+rjv+Pa/9zSP9XJf9VAP9JANw9ALkxAJYlAHMZAFDU1P+xsf+Ojv9ra/9ISP8lJf8AAP4AANwAALkAAJYAAHMAAFDU4/+xx/+Oq/9rj/9Ic/8lV/8AVf8ASdwAPbkAMZYAJXMAGVDU8P+x4v+O1P9rxv9IuP8lqv8Aqv8AktwAerkAYpYASnMAMlDU//+x//+O//9r//9I//8l//8A/v4A3NwAubkAlpYAc3MAUFDU//Cx/+KO/9Rr/8ZI/7gl/6oA/6oA3JIAuXoAlmIAc0oAUDLU/+Ox/8eO/6tr/49I/3Ml/1cA/1UA3EkAuT0AljEAcyUAUBnU/9Sx/7GO/45r/2tI/0gl/yUA/gAA3AAAuQAAlgAAcwAAUADj/9TH/7Gr/46P/2tz/0hX/yVV/wBJ3AA9uQAxlgAlcwAZUADw/9Ti/7HU/47G/2u4/0iq/yWq/wCS3AB6uQBilgBKcwAyUAD//9T//7H//47//2v//0j//yX+/gDc3AC5uQCWlgBzcwBQUADy8vLm5uba2trOzs7CwsK2traqqqqenp6SkpKGhoZ6enpubm5iYmJWVlZKSko+Pj4yMjImJiYaGhoODg7/+/CgoKSAgID/AAAA/wD//wAAAP//AP8A//8AAABYWvgoAAAAAXRSTlMAQObYZgAAAAFiS0dEAIgFHUgAAAAJcEhZcwAADsQAAA7EAZUrDhsAABA1SURBVHic7d3blqLIEoDhuvP9XxFl7EZbxqJqOXeOykEtITNADhHR/7f2xe622qEiwiTJDOHjAwAAAAAAAAAAAAAAAAAAK9arbJ9f7LJ06UMBxpOcjucHh+3SBwSMIsnOPxVUNxxYvVT21XGz9HEBb9q1lvYFQzds2ze1vM/Si+xAccOFurTz1f3vtgXFDfNOVRWv2v+a5UBYtamuG5OOF84vLwA2HDtKuynu3fzHBIxg21naHx9pWdzruY8JGEMRmlSXV5n7eY8IGEUarN6EGTfM2ofXQnasA8Kq25Sk6Hy5vJw8zHhAwDjWsZWQcjo+3wEBI9m27do8Kicl9EzBnCxWulsm3LApj005ynWUbLYDAkYSre0PVrhh0+1SMQ/9xDn6E4BG8cqltmETtQ2vqG14xXwbXuXhLfe6W4oWbphzYH0bTkX3JU98ZxI2lcPyqfsH9nzzBjYlsR7Wc2xCDih1CH+xZsWlJKzahq8Vc1pcYVX4G5EpUxLYlQVm3ElB9zbsqgbu1qWSPcM2LKvu+9cyOFf3wAx84wxQrbxefFkMSaobFfMld5hVzUrOx6fdx/omxe13UwNMqG/Yes631Qbk5lTffpstSZi2aSr5Ut8X9z8dKW3YljyU86MDExKYt22p7IIVEniQZMVzZR/ZsoEbq13zZOA8o4cEzqyvz+Bjlg0AAAAAAAAAMOO6ZbPp/CNgF7UNr6hteEVtwytqG15R2/CK2oZX1Da8orbhFbUNr6hteEVtwytqG15R2/CK2oZX1Da8orbhFbUNr6hteEVtwytqG15R2/CK2oZX1Da8orbhFbUNr6hteEVtwytqG15R2/CK2oZX1Da8orbhFbUNr6hteEVtwytqG15R2/CK2oZX1Da8orbhFbUNr6hteEVtwytqG15R2/CK2oZX1Da8orbhFbUNr6hteEVtwytqG15R2/CK2oZX1Da8orbhFbUNr6hteEVtwytqG15R22NI/2tHKJf0N9Z21l6Iv4e/4+9zu9V4B43e/sbaLtoL8Tj8HaltjajtMWqbOYlGf2Ntjz8ngUZ/Y23j70BtwytqG15R2/CK2oZX1Da8orb7WK+yfX6xy9KlDwVRnms7PWXXQjxk2/UYb5ecjo9bPYftGG+K6bit7XT/WIjF7t3yTrKXjcyC6lbNaW2n+Usl7t+q7lX7Nr2HWLnlsraTQ2slZsPfcdf6hhcM3Xp5rO1NRzPUOU8GvuN9frPP0ovs/uGhuNVyWNub+5Qh214KcbtrrgGPw4q7Lu38oWd1W1Dcyvmr7aa0s/sEe71/p7hP1T9etf81y4FKuavtpBpPD89VvK7G7rz/O266Phb1p2joTAfTclfbh66ZQjV097+gPHaO+FVx74YcJybnrbZX3ZPgqrj7LgVuA5OZdNhbYhbearsIXN+Va977Qe/YManeD3pLzMJZbW9Dk+r1kFE2DVZvwoxbL2e1nQerNxsw496H10J2gfMEluWrttfhtZBylC16vWUR/ifl5eSh11tiHr5qexsZRctFlD6/4Dq2ElJOx3u8I+biq7b3kdlvWfunHu9Y/ovAPXR2vT8umImv2r4NooF76CS9ZxBZrHRjpwosxldtR0s3Mnt+lcemHOmA61OlNs66B5piXiVPfzQpXmfRUu3/D7yscCf77/MfV7tQVTGvPo/Frw8ftR2aTmd9V7iL4MLLVXhpxozs6/p7fO8cLdXfinlzGZ2Ol/+lxmt7G16L/qhru8e5N165Lmr7n6YN2NEX5a6/zp/v8622L//Pdm3HK5fabrN++gbev3YL4FnzG92/w233V6O2h0j++66Kui7xPz4mJnVBf+++qO0W/ufbv77uk5F6avLtYN1n/fBJbT6+dr+8PcF8+xag0KJhuWRutoU7/VHNdaV/Gn/kQ7KrT0ZlNdeV/r03ek4q10lCF0PlLmKPX6/cpY/+N42Oc+s/L7OQZojLzQ5xF7+K+8moUp+TvmzmahOts97r29F9yVPfM4Eezdh2fDr8jfUh7n4yel7RzEyfk26HHtqX7D05ji6Zly0sFvc86m/q3zY2nqw+qyHu5RULkuZk9DMr1+2psgIM5is2LJddfX02EaMdKOfYhFypzb+tY1ulHuKO/8x+YO/KWk9Gleac9J+5c1KsKe8UnZC/OIRn6OX3M81dSjZjW9cIFv0BpeqTUecpJ/oDWm0ilXYMF2qbbXgOn8fm4yo1Y1tgWA4P7Do1xxwaloMDu2JFsHjT6Hz8VfgbkanFKYl0Ot09IddJOp3unpCrFv5GZN5/SlK/ZfsHIgl9rV6pPlNOU0Ncj2sEi+ekepRtnyOcBg2y1Vu2LpXsf7xjkmsv8/vYJppHrc0Mcc3JSLZ8/cvKOSm5V1Q5yhZtH8fqLlC9q+/U+e+qu/ncl0sz7Z1G/bcdf25c6tR/2/HnxqVSv76+m1GlmiW03Aaqvq1f//ev4vbzErW+y/d9urK+hUtvp9GwrbmWPT5lhu2ltmzKanMbWO7bMdVtzIqfv2X94IMBn9JqVvJj1llfaT18jHZDSmc266FtfvdGQZ1D3GO3Vy/KW8PqD9+97Orn0mSPGWxuUjxo7Glue5zXT4XanJr71z9ORH/r3dV96xzcfCwUbsO/NWlqPhaKE/bYu9g85GBXFXyyuv/VsP/O45MYro8+u//p+HyN1fNSbT7vTiy0dhq9O7FQ2xrWcbH78HCa4lKID3XZ584kT5LXZ0PdHF4iqrLTaIwLQo3dr2NcEKrsfu1epNy2F2LoFjpRbe/ZfiZT12k00kKevnPSSAt5PZcPp9dsLh1aErZue1DZm5/LJPvxiKhj5+ldsqU9n/E2YHR1Go24AaOrNSxWPunP6n7v8ZKl1f2pUHkWGrwUdRqNu3Gu55w07sa5ou5XSTPX+tSUd7HfjjbQrK/P4Iu/m5JdXVHzUC9KzkmjH8b4kRp2GPJT47UQF5odKug0SpqHB444GgUngzNZTdGoqqD7VdHpI6zjK1vzmWoWufQ5abJp/9KtYZa+9Lboru6UU+Mlz0lTjm2Ldr9q3ULoslin0cTL7MudkyYe2zq+Rjw9lcvsEYObHd4xw27bMuekGca2RVrDtLfsdFjgsOfZQpz/nDTP2LZA9+siA+AoZu40mq+7bd6UzDdIDO6YHMZGi3yXGS8Tmi3ZOfIy5zlp1g/SjN2vBtrII2bqfp39fDrXJdDsY9tMrWGLLxSPYZZl+SWug/6ZodNoibFtltYwBRt8o5i802ip9auptxyWGtsmb1deehNsTJNsFdcW3HeY9py04Ng2aWuYhuaFMU3XabTsfvF056SFx7bpul+VNJ2NaKIP6/J9PtMcwfLNwhMdwaSn8MVMMBDp6M+c4MyhYmybImGqvuQxppEnkGoaI8ee8av5IoTXhE1h1Av/ZpVCwbxtM+JKjaovVU+SMAOdrEOMtmA7x+pyH2OtsGv74vF4CTPWyTrEKBttChsjx9kZVXjDiFETpvEmRmN6u0FC6X1j3h/ilI5tb5+TjHayDvHmr6q3MfK9TqOZu/B6cJuwKbwxp9DdGDn8Pnu67x38xpxCd8KmMPD0q74xcuh8Sf0Nkb0mbBIDloRab/GpzZBz0r3ba8IDe9eAdmUXnaxD9F7Kt9IY2ey9/Jb9vJVnLLlN2BR6bcFaaozs1Wm09N1BenCbsCmIO42sjG0V+RBnbGwT9wMs3+21PFlbkIrmoV5kfVw6ur168ZqwKQhGZJuNkfFz0iT3LZycoF1ZTbfX4iITM7uNkZGZtK67X/fgNmFTCDwIwHRjZOic1Hc1RZXAVYK2bq/Fda5cK34CmkjXyrXCbq9e3CZsCq0bWEqbh3pp23FU2u3Vi9uETeGl8cD62FZ57RRR2Mk6RGfCvHeyDvHUMOaoMfK5w0/5U3n78JqwKST1I9H+3dRhO/9Z+qDGcK/nWe9bODm3CZtA8zy0z/r/nC0uI7Ro5iG+xja/CRvdNVRf91B9OQpVtTb22ZzDXXCcsLFdQ/X7uqdxDdXxdrHiJ1S3PY1PX81DrhM2rjI2lyHu87Yt4C1Uq89LDdjo9hJynrAx1bHZ/LmNbf5ClR30d7L24T5h4/kRG0KlHQkTI1TGkDAxQmUMCRMjVMaQMDFCZQwJEyNUxpAwMUJlDAkTI1TGkDAxQmUMCRMjVMaQMDFCZQwJEyNUxpAwMUJlDAkTI1TGkDAxQmUMCRMjVMaQMDFCZQwJEyNUxpAwMUJlDAkTI1TGkDAxQmUMCRMjVMaQMDFCZQwJEyNUxpAwMUJlDAkTI1TGkDAxQmUMCRMjVMaQMDFCZQwJEyNUxpAwMUJlDAkTI1TGkDAxQmUMCRMjVMaQMDFCZQwJEyNUxpAwMUJlDAkTI1TGkDAxQmUMCRMjVMaQMDFCZQwJEyNUxpAwMUJlDAkTI1TGkDAxQmUMCRMjVMaQMDFCZQwJEyNUxpAwMUJlDAkTI1TGkDAxQmUMCRMjVMaQMDFCZQwJEyNUxpAwMUJlDAkTI1TGkDAxQmUMCRMjVMaQMDFCZQwJEyNUxpAwMUJlDAkTI1TGkDAxQmUMCRMjVMaQMDFCZQwJEyNUxpAwMUJlDAkTI1TGkDAxQmUMCRMjVMaQMDFCZQwJEyNUxpAwMUJlDAkTI1TGkDAxQmUMCRMjVMaQMDFCZQwJEyNUxpAwMUJlDAkTI1TGkDAxQmUMCRMjVMaQMDFCZQwJEyNUxpAwMUJlDAkTI1TGkDAxQmUMCRMjVMaQMDFCZQwJEyNUxpAwMUJlDAkTI1TGkDAxQmUMCRP7czwet51/hDokDAAAAAAAAAAeJOnFeumjgBgJE9ns8nPluFstfTSIImFC2+L8LEuWPiSEkDCh1c9A3YK19FGhEwkTSvYtgbqe6ZjI6UTCpJLjQ3TyPH8I1mbpY0MLEibVRKrYVZFZb3NipRcJE6sj9dQhmebESisSJrUrQ3L4eZWdVec8rr6VIWFSaRmR/esr2/IVLr51IWFiRVekmlhx7a0KCZMqw5G3v3joDiMWQsLEjqHrj3U5DjCBU4SESW3Ky5Kul8vLk9OcR4QgEiZWxqKzz6YcB45zHhGCSJhYuSja/fqRc5wuJEwsfIb7+DiFhwnMjYRJpbEF0egPYFYkTGwb/ZSHVpwwOxImVl6ZpIGfKAiVJiRMLIteecSuXTArEiYWDwShUoWEiREqY0iYGKEyhoSJESpjSJhYRqhsIWFi8SUllktVIWFiq9hWQHL7ARqCtSBhYmXb2K77B9jC1YWEyd0iEWiJ3EXPgZgVCRMr70/U/QW7gisTXUiY2Cp8CkuZvSlDwuRusehsUMhjly6YGwkTy0IXJ+UgUcx7RAgiYWLlmlH7J716jafNakLC5Ko7bbXcFKC6pSKjgC4kTK66c+LLslHS9QKWRcLEyjtevFx7V7edC+0TYBEkTK66i9y5eJinNXe8DXylGgshYXJ1rC6ByVZpmp72zcNUcu50oRAJk0vPHdgE0ImEya3z1kixB6AVCeuh5ZluPK9QMxLWw+rwGKfjlkApR8L6SLNdfrHPVsTJBBIGAAAAAAAAAACAXv4H8goMXbJ/SFsAAAAASUVORK5CYII=;" parent="mMBgnrupJotZcHhOcbj2-25" vertex="1">
          <mxGeometry x="376.66999999999985" y="960" width="173.33" height="90" as="geometry" />
        </mxCell>
        <mxCell id="380feVYEUsmyo0d7AHBr-23" value="&lt;font style=&quot;font-size: 18px&quot;&gt;Ammonium&lt;/font&gt;" style="rounded=1;whiteSpace=wrap;html=1;verticalAlign=top;fillColor=#ffe6cc;strokeColor=#d79b00;" parent="mMBgnrupJotZcHhOcbj2-25" vertex="1">
          <mxGeometry x="205.75" y="800" width="120" height="120" as="geometry" />
        </mxCell>
        <mxCell id="380feVYEUsmyo0d7AHBr-25" value="" style="shape=image;imageAspect=0;aspect=fixed;verticalLabelPosition=bottom;verticalAlign=top;image=data:image/png,iVBORw0KGgoAAAANSUhEUgAAAH0AAABmCAMAAADRT25PAAAC7lBMVEX///+AAAAAgACAgAAAAICAAIAAgIDAwMDA3MCmyvD/8NT/4rH/1I7/xmv/uEj/qiX/qgDckgC5egCWYgBzSgBQMgD/49T/x7H/q47/j2v/c0j/VyX/VQDcSQC5PQCWMQBzJQBQGQD/1NT/sbH/jo7/a2v/SEj/JSX+AADcAAC5AACWAABzAABQAAD/1OP/scf/jqv/a4//SHP/JVf/AFXcAEm5AD2WADFzACVQABn/1PD/seL/jtT/a8b/SLj/Jar/AKrcAJK5AHqWAGJzAEpQADL/1P//sf//jv//a///SP//Jf/+AP7cANy5ALmWAJZzAHNQAFDw1P/isf/Ujv/Ga/+4SP+qJf+qAP+SANx6ALliAJZKAHMyAFDj1P/Hsf+rjv+Pa/9zSP9XJf9VAP9JANw9ALkxAJYlAHMZAFDU1P+xsf+Ojv9ra/9ISP8lJf8AAP4AANwAALkAAJYAAHMAAFDU4/+xx/+Oq/9rj/9Ic/8lV/8AVf8ASdwAPbkAMZYAJXMAGVDU8P+x4v+O1P9rxv9IuP8lqv8Aqv8AktwAerkAYpYASnMAMlDU//+x//+O//9r//9I//8l//8A/v4A3NwAubkAlpYAc3MAUFDU//Cx/+KO/9Rr/8ZI/7gl/6oA/6oA3JIAuXoAlmIAc0oAUDLU/+Ox/8eO/6tr/49I/3Ml/1cA/1UA3EkAuT0AljEAcyUAUBnU/9Sx/7GO/45r/2tI/0gl/yUA/gAA3AAAuQAAlgAAcwAAUADj/9TH/7Gr/46P/2tz/0hX/yVV/wBJ3AA9uQAxlgAlcwAZUADw/9Ti/7HU/47G/2u4/0iq/yWq/wCS3AB6uQBilgBKcwAyUAD//9T//7H//47//2v//0j//yX+/gDc3AC5uQCWlgBzcwBQUADy8vLm5uba2trOzs7CwsK2traqqqqenp6SkpKGhoZ6enpubm5iYmJWVlZKSko+Pj4yMjImJiYaGhoODg7/+/CgoKSAgID/AACo5ZpOAAAAAXRSTlMAQObYZgAAAAFiS0dEAIgFHUgAAAAJcEhZcwAADsQAAA7EAZUrDhsAAAGoSURBVGiB7dpNboMwEIZhTgFdG9vc/3KWZtcYbPPjKa1nYKjEfCtIFJ72baJGTbtOp9P9jxlrx+f0LwCnuuqq3z6/bAKY0mEvqH/Yw96jm2GeA/DL0RAE9bRXPudVf7U+em+f03U6nU53+ea3cBP6LsrGu3w59fvT7U7u+oMO6G8WMR3MozrWXk7H2gvqSHtJvX6wpF63F9Wr9lK6R9tL6cZj7cV0g7UX0xfpcAE5vUPaC+pIe0EdaS+p1+1F9ao9pp+Mp1ftZfVje2H90F5YP7SX1pMw/qzf9pyPS+37q3Tj/ekXtdd37fl6iLc36Nv2fN216pv2bH2EVn3Tnqunb6RJD1Nuz9TThdr0tT1Td0DRS3ueHn/oA0HP7Vl6LOg6gp7bO4YePjf5QNJTe2DodrkqSQ8TUx+WVw1Nz+2peg/pz/w0fW1P0uN5YOilPUW35ZJEvbQn6PGhdr06Rc/t2/WwOSbrqX27Hk/yZ7hkPbVv1kcob81+16+ege1natJ6zODLIJ2hcW/S66l+/8xus/zZA//H0Mk/51VX/d16fK0/p+t0ulfvG1wGRA7JPLPgAAAAAElFTkSuQmCC;" parent="mMBgnrupJotZcHhOcbj2-25" vertex="1">
          <mxGeometry x="239" y="858.17" width="53.5" height="43.66" as="geometry" />
        </mxCell>
        <mxCell id="mMBgnrupJotZcHhOcbj2-3" value="" style="endArrow=classic;html=1;" edge="1" parent="mMBgnrupJotZcHhOcbj2-25" target="380feVYEUsmyo0d7AHBr-33">
          <mxGeometry width="50" height="50" relative="1" as="geometry">
            <mxPoint x="460" y="850" as="sourcePoint" />
            <mxPoint x="620" y="600" as="targetPoint" />
          </mxGeometry>
        </mxCell>
        <mxCell id="mMBgnrupJotZcHhOcbj2-4" value="" style="curved=1;endArrow=classic;html=1;exitX=1;exitY=0.5;exitDx=0;exitDy=0;entryX=1;entryY=0.5;entryDx=0;entryDy=0;" edge="1" parent="mMBgnrupJotZcHhOcbj2-25" source="380feVYEUsmyo0d7AHBr-10" target="380feVYEUsmyo0d7AHBr-33">
          <mxGeometry width="50" height="50" relative="1" as="geometry">
            <mxPoint x="950" y="910" as="sourcePoint" />
            <mxPoint x="1000" y="860" as="targetPoint" />
            <Array as="points">
              <mxPoint x="700" y="640" />
              <mxPoint x="700" y="880" />
            </Array>
          </mxGeometry>
        </mxCell>
        <mxCell id="mMBgnrupJotZcHhOcbj2-5" value="" style="curved=1;endArrow=classic;html=1;exitX=0;exitY=0.5;exitDx=0;exitDy=0;entryX=0;entryY=0.5;entryDx=0;entryDy=0;" edge="1" parent="mMBgnrupJotZcHhOcbj2-25" source="380feVYEUsmyo0d7AHBr-16" target="380feVYEUsmyo0d7AHBr-37">
          <mxGeometry width="50" height="50" relative="1" as="geometry">
            <mxPoint x="570" y="570" as="sourcePoint" />
            <mxPoint x="570" y="1010" as="targetPoint" />
            <Array as="points">
              <mxPoint x="700" y="640" />
              <mxPoint x="700" y="880" />
            </Array>
          </mxGeometry>
        </mxCell>
        <mxCell id="380feVYEUsmyo0d7AHBr-121" value="&lt;font style=&quot;font-size: 16px&quot;&gt;PLP&lt;/font&gt;" style="rhombus;whiteSpace=wrap;html=1;fillColor=#ffe6cc;strokeColor=#d79b00;" parent="mMBgnrupJotZcHhOcbj2-25" vertex="1">
          <mxGeometry x="630" y="660" width="140" height="80" as="geometry" />
        </mxCell>
        <mxCell id="mMBgnrupJotZcHhOcbj2-6" value="&lt;font style=&quot;font-size: 24px&quot;&gt;Amino&amp;nbsp;Acid&lt;br&gt;metabolism&lt;/font&gt;" style="shape=parallelogram;perimeter=parallelogramPerimeter;whiteSpace=wrap;html=1;fixedSize=1;strokeWidth=10;fontSize=18;" vertex="1" parent="mMBgnrupJotZcHhOcbj2-25">
          <mxGeometry x="800" width="270" height="150" as="geometry" />
        </mxCell>
        <mxCell id="380feVYEUsmyo0d7AHBr-120" value="&lt;span style=&quot;font-size: 14px&quot;&gt;Aspartate&lt;br&gt;&lt;/span&gt;&lt;font style=&quot;font-size: 14px&quot;&gt;aminotransferase&lt;/font&gt;" style="ellipse;whiteSpace=wrap;html=1;fillColor=#ffe6cc;strokeColor=#d79b00;" parent="mMBgnrupJotZcHhOcbj2-25" vertex="1">
          <mxGeometry x="605" y="720" width="190" height="60" as="geometry" />
        </mxCell>
        <mxCell id="mMBgnrupJotZcHhOcbj2-7" value="" style="endArrow=classic;html=1;fontSize=18;exitX=1;exitY=0.5;exitDx=0;exitDy=0;entryX=0;entryY=0.5;entryDx=0;entryDy=0;" edge="1" parent="mMBgnrupJotZcHhOcbj2-25" source="380feVYEUsmyo0d7AHBr-16" target="mMBgnrupJotZcHhOcbj2-1">
          <mxGeometry width="50" height="50" relative="1" as="geometry">
            <mxPoint x="1300" y="860" as="sourcePoint" />
            <mxPoint x="1350" y="810" as="targetPoint" />
          </mxGeometry>
        </mxCell>
        <mxCell id="380feVYEUsmyo0d7AHBr-73" value="&lt;font&gt;&lt;font style=&quot;font-size: 18px&quot;&gt;Malate&lt;/font&gt;&lt;br&gt;&lt;/font&gt;" style="rounded=1;whiteSpace=wrap;html=1;verticalAlign=middle;fillColor=#ffe6cc;strokeColor=#d79b00;labelPosition=center;verticalLabelPosition=middle;align=center;" parent="mMBgnrupJotZcHhOcbj2-25" vertex="1">
          <mxGeometry x="1240" y="750" width="140" height="80" as="geometry" />
        </mxCell>
        <mxCell id="mMBgnrupJotZcHhOcbj2-29" value="" style="endArrow=classic;html=1;fontSize=18;exitX=0.5;exitY=1;exitDx=0;exitDy=0;entryX=0.5;entryY=0;entryDx=0;entryDy=0;" edge="1" parent="mMBgnrupJotZcHhOcbj2-25" source="mMBgnrupJotZcHhOcbj2-1" target="380feVYEUsmyo0d7AHBr-73">
          <mxGeometry width="50" height="50" relative="1" as="geometry">
            <mxPoint x="1330" y="910" as="sourcePoint" />
            <mxPoint x="1380" y="860" as="targetPoint" />
          </mxGeometry>
        </mxCell>
        <mxCell id="mMBgnrupJotZcHhOcbj2-26" value="" style="endArrow=classic;html=1;fontSize=18;exitX=1;exitY=0.5;exitDx=0;exitDy=0;entryX=0;entryY=0.5;entryDx=0;entryDy=0;" edge="1" parent="1" source="380feVYEUsmyo0d7AHBr-46" target="380feVYEUsmyo0d7AHBr-48">
          <mxGeometry width="50" height="50" relative="1" as="geometry">
            <mxPoint x="930" y="1770" as="sourcePoint" />
            <mxPoint x="980" y="1720" as="targetPoint" />
          </mxGeometry>
        </mxCell>
        <mxCell id="mMBgnrupJotZcHhOcbj2-27" style="edgeStyle=orthogonalEdgeStyle;rounded=1;orthogonalLoop=1;jettySize=auto;html=1;exitX=0.5;exitY=1;exitDx=0;exitDy=0;entryX=0.5;entryY=0;entryDx=0;entryDy=0;fontSize=18;" edge="1" parent="1" source="380feVYEUsmyo0d7AHBr-33" target="380feVYEUsmyo0d7AHBr-42">
          <mxGeometry relative="1" as="geometry" />
        </mxCell>
        <mxCell id="mMBgnrupJotZcHhOcbj2-28" value="" style="curved=1;endArrow=none;html=1;fontSize=18;entryX=1;entryY=0.5;entryDx=0;entryDy=0;endFill=0;" edge="1" parent="1" target="380feVYEUsmyo0d7AHBr-126">
          <mxGeometry width="50" height="50" relative="1" as="geometry">
            <mxPoint x="920" y="1270" as="sourcePoint" />
            <mxPoint x="1020" y="1420" as="targetPoint" />
            <Array as="points">
              <mxPoint x="1140" y="1280" />
            </Array>
          </mxGeometry>
        </mxCell>
        <mxCell id="mMBgnrupJotZcHhOcbj2-30" value="" style="endArrow=classic;html=1;fontSize=18;exitX=1;exitY=0.5;exitDx=0;exitDy=0;entryX=1;entryY=0.5;entryDx=0;entryDy=0;" edge="1" parent="1" source="380feVYEUsmyo0d7AHBr-73" target="380feVYEUsmyo0d7AHBr-71">
          <mxGeometry width="50" height="50" relative="1" as="geometry">
            <mxPoint x="1430" y="2030" as="sourcePoint" />
            <mxPoint x="1480" y="1980" as="targetPoint" />
            <Array as="points">
              <mxPoint x="2530" y="870" />
              <mxPoint x="2530" y="3000" />
            </Array>
          </mxGeometry>
        </mxCell>
      </root>
    </mxGraphModel>
  </diagram>
</mxfile>
